Titillium Math Sans Pro Zanichelli-Bold.ufo
<glyph name="quotedbl" format="2">
  <advance width="420"/>
  <unicode hex="0022"/>
  <note>
quotedbl
</note>
  <outline>
    <contour>
      <point x="181" y="730" type="line"/>
      <point x="49" y="730" type="line"/>
      <point x="56" y="480" type="line"/>
      <point x="174" y="480" type="line"/>
    </contour>
    <contour>
      <point x="371" y="730" type="line"/>
      <point x="239" y="730" type="line"/>
      <point x="246" y="480" type="line"/>
      <point x="364" y="480" type="line"/>
    </contour>
  </outline>
</glyph>
<glyph name="percent" format="2">
  <advance width="676"/>
  <unicode hex="0025"/>
  <note>
percent
</note>
  <outline>
    <contour>
      <point x="160" y="716" type="curve" smooth="yes"/>
      <point x="75" y="716"/>
      <point x="31" y="677"/>
      <point x="31" y="546" type="curve" smooth="yes"/>
      <point x="31" y="411"/>
      <point x="75" y="372"/>
      <point x="160" y="372" type="curve" smooth="yes"/>
      <point x="245" y="372"/>
      <point x="289" y="411"/>
      <point x="289" y="546" type="curve" smooth="yes"/>
      <point x="289" y="677"/>
      <point x="245" y="716"/>
    </contour>
    <contour>
      <point x="517" y="710" type="line"/>
      <point x="85" y="43" type="line"/>
      <point x="157" y="-10" type="line"/>
      <point x="592" y="658" type="line"/>
    </contour>
    <contour>
      <point x="136" y="546" type="curve" smooth="yes"/>
      <point x="136" y="619"/>
      <point x="142" y="626"/>
      <point x="160" y="626" type="curve" smooth="yes"/>
      <point x="178" y="626"/>
      <point x="184" y="619"/>
      <point x="184" y="546" type="curve" smooth="yes"/>
      <point x="184" y="470"/>
      <point x="178" y="462"/>
      <point x="160" y="462" type="curve" smooth="yes"/>
      <point x="142" y="462"/>
      <point x="136" y="470"/>
    </contour>
    <contour>
      <point x="387" y="160" type="curve" smooth="yes"/>
      <point x="387" y="25"/>
      <point x="431" y="-14"/>
      <point x="516" y="-14" type="curve" smooth="yes"/>
      <point x="601" y="-14"/>
      <point x="645" y="25"/>
      <point x="645" y="160" type="curve" smooth="yes"/>
      <point x="645" y="291"/>
      <point x="601" y="330"/>
      <point x="516" y="330" type="curve" smooth="yes"/>
      <point x="431" y="330"/>
      <point x="387" y="291"/>
    </contour>
    <contour>
      <point x="492" y="160" type="curve" smooth="yes"/>
      <point x="492" y="233"/>
      <point x="498" y="240"/>
      <point x="516" y="240" type="curve" smooth="yes"/>
      <point x="534" y="240"/>
      <point x="540" y="233"/>
      <point x="540" y="160" type="curve" smooth="yes"/>
      <point x="540" y="84"/>
      <point x="534" y="76"/>
      <point x="516" y="76" type="curve" smooth="yes"/>
      <point x="498" y="76"/>
      <point x="492" y="84"/>
    </contour>
  </outline>
</glyph>
<glyph name="parenright" format="2">
  <advance width="302"/>
  <unicode hex="0029"/>
  <note>
parenright
</note>
  <outline>
    <contour>
      <point x="145" y="750" type="curve"/>
      <point x="28" y="750" type="line"/>
      <point x="28" y="750"/>
      <point x="123" y="500"/>
      <point x="123" y="301" type="curve" smooth="yes"/>
      <point x="123" y="102"/>
      <point x="28" y="-125"/>
      <point x="28" y="-125" type="curve"/>
      <point x="145" y="-125" type="line"/>
      <point x="145" y="-125"/>
      <point x="261" y="62"/>
      <point x="261" y="301" type="curve" smooth="yes"/>
      <point x="261" y="540"/>
      <point x="145" y="750"/>
    </contour>
  </outline>
</glyph>
<glyph name="colon" format="2">
  <advance width="256"/>
  <unicode hex="003A"/>
  <note>
colon
</note>
  <outline>
    <contour>
      <point x="200" y="165" type="line"/>
      <point x="56" y="165" type="line"/>
      <point x="56" y="0" type="line"/>
      <point x="200" y="0" type="line"/>
    </contour>
    <contour>
      <point x="56" y="460" type="line"/>
      <point x="56" y="295" type="line"/>
      <point x="200" y="295" type="line"/>
      <point x="200" y="460" type="line"/>
    </contour>
  </outline>
</glyph>
<glyph name="semicolon" format="2">
  <advance width="274"/>
  <unicode hex="003B"/>
  <note>
semicolon
</note>
  <outline>
    <contour>
      <point x="221" y="165" type="line"/>
      <point x="73" y="165" type="line"/>
      <point x="23" y="-123" type="line"/>
      <point x="131" y="-123" type="line"/>
    </contour>
    <contour>
      <point x="73" y="460" type="line"/>
      <point x="73" y="295" type="line"/>
      <point x="217" y="295" type="line"/>
      <point x="217" y="460" type="line"/>
    </contour>
  </outline>
</glyph>
<glyph name="less" format="2">
  <advance width="560"/>
  <unicode hex="003C"/>
  <note>
less
</note>
  <outline>
    <contour>
      <point x="490" y="153" type="line"/>
      <point x="210" y="277" type="line"/>
      <point x="490" y="401" type="line"/>
      <point x="490" y="532" type="line"/>
      <point x="64" y="328" type="line"/>
      <point x="64" y="226" type="line"/>
      <point x="490" y="22" type="line"/>
    </contour>
  </outline>
</glyph>
<glyph name="backslash" format="2">
  <advance width="434"/>
  <unicode hex="005C"/>
  <note>
backslash
</note>
  <outline>
    <contour>
      <point x="423" y="8" type="line"/>
      <point x="127" y="718" type="line"/>
      <point x="11" y="670" type="line"/>
      <point x="307" y="-40" type="line"/>
    </contour>
  </outline>
</glyph>
<glyph name="bracketright" format="2">
  <advance width="354"/>
  <unicode hex="005D"/>
  <note>
bracketright
</note>
  <outline>
    <contour>
      <point x="32" y="748" type="line"/>
      <point x="32" y="628" type="line"/>
      <point x="152" y="628" type="line"/>
      <point x="152" y="-3" type="line"/>
      <point x="32" y="-3" type="line"/>
      <point x="32" y="-123" type="line"/>
      <point x="284" y="-123" type="line"/>
      <point x="284" y="748" type="line"/>
    </contour>
  </outline>
</glyph>
<glyph name="grave" format="2">
  <advance width="406"/>
  <unicode hex="0060"/>
  <note>
grave
</note>
  <outline>
    <contour>
      <point x="328" y="564" type="line"/>
      <point x="356" y="651" type="line"/>
      <point x="88" y="753" type="line"/>
      <point x="50" y="638" type="line"/>
    </contour>
  </outline>
</glyph>
<glyph name="i" format="2">
  <advance width="258"/>
  <unicode hex="0069"/>
  <note>
i
</note>
  <anchor x="129" y="0" name="bottom"/>
  <anchor x="196" y="0" name="ogonek"/>
  <anchor x="129" y="700" name="top"/>
  <outline>
    <contour>
      <point x="196" y="510" type="line"/>
      <point x="62" y="510" type="line"/>
      <point x="62" y="0" type="line"/>
      <point x="196" y="0" type="line"/>
    </contour>
    <contour>
      <point x="62" y="700" type="line"/>
      <point x="62" y="564" type="line"/>
      <point x="196" y="564" type="line"/>
      <point x="196" y="700" type="line"/>
    </contour>
  </outline>
</glyph>
<glyph name="braceright" format="2">
  <advance width="376"/>
  <unicode hex="007D"/>
  <note>
braceright
</note>
  <outline>
    <contour>
      <point x="102" y="173" type="curve" smooth="yes"/>
      <point x="102" y="140"/>
      <point x="109" y="93"/>
      <point x="109" y="60" type="curve" smooth="yes"/>
      <point x="109" y="20"/>
      <point x="95" y="-10"/>
      <point x="34" y="-15" type="curve"/>
      <point x="37" y="-129" type="line"/>
      <point x="192" y="-124"/>
      <point x="241" y="-76"/>
      <point x="241" y="43" type="curve" smooth="yes"/>
      <point x="241" y="82"/>
      <point x="234" y="131"/>
      <point x="234" y="160" type="curve" smooth="yes"/>
      <point x="234" y="206"/>
      <point x="270" y="247"/>
      <point x="345" y="267" type="curve"/>
      <point x="345" y="361" type="line"/>
      <point x="269" y="379"/>
      <point x="234" y="414"/>
      <point x="234" y="460" type="curve" smooth="yes"/>
      <point x="234" y="492"/>
      <point x="241" y="540"/>
      <point x="241" y="577" type="curve" smooth="yes"/>
      <point x="241" y="706"/>
      <point x="187" y="749"/>
      <point x="37" y="754" type="curve"/>
      <point x="34" y="640" type="line"/>
      <point x="95" y="635"/>
      <point x="110" y="607"/>
      <point x="110" y="567" type="curve" smooth="yes"/>
      <point x="110" y="534"/>
      <point x="103" y="482"/>
      <point x="103" y="449" type="curve" smooth="yes"/>
      <point x="103" y="369"/>
      <point x="117" y="338"/>
      <point x="226" y="314" type="curve"/>
      <point x="117" y="290"/>
      <point x="102" y="253"/>
    </contour>
  </outline>
</glyph>
<glyph name="exclamdown" format="2">
  <advance width="256"/>
  <unicode hex="00A1"/>
  <note>
exclamdown
</note>
  <outline>
    <contour>
      <point x="56" y="500" type="line"/>
      <point x="56" y="345" type="line"/>
      <point x="200" y="345" type="line"/>
      <point x="200" y="500" type="line"/>
    </contour>
    <contour>
      <point x="69" y="240" type="line"/>
      <point x="55" y="-200" type="line"/>
      <point x="201" y="-200" type="line"/>
      <point x="187" y="240" type="line"/>
    </contour>
  </outline>
</glyph>
<glyph name="yen" format="2">
  <advance width="608"/>
  <unicode hex="00A5"/>
  <note>
yen
</note>
  <outline>
    <contour>
      <point x="238" y="0" type="line"/>
      <point x="372" y="0" type="line"/>
      <point x="372" y="88" type="line"/>
      <point x="519" y="88" type="line"/>
      <point x="519" y="198" type="line"/>
      <point x="372" y="198" type="line"/>
      <point x="372" y="262" type="line"/>
      <point x="519" y="262" type="line"/>
      <point x="519" y="372" type="line"/>
      <point x="430" y="372" type="line"/>
      <point x="592" y="660" type="line"/>
      <point x="444" y="660" type="line"/>
      <point x="304" y="392" type="line"/>
      <point x="164" y="660" type="line"/>
      <point x="16" y="660" type="line"/>
      <point x="179" y="372" type="line"/>
      <point x="91" y="372" type="line"/>
      <point x="91" y="262" type="line"/>
      <point x="238" y="262" type="line"/>
      <point x="238" y="198" type="line"/>
      <point x="91" y="198" type="line"/>
      <point x="91" y="88" type="line"/>
      <point x="238" y="88" type="line"/>
    </contour>
  </outline>
</glyph>
<glyph name="dieresis" format="2">
  <advance width="444"/>
  <unicode hex="00A8"/>
  <note>
dieresis
</note>
  <outline>
    <contour>
      <point x="178" y="720" type="line"/>
      <point x="50" y="720" type="line"/>
      <point x="50" y="587" type="line"/>
      <point x="178" y="587" type="line"/>
    </contour>
    <contour>
      <point x="266" y="720" type="line"/>
      <point x="266" y="587" type="line"/>
      <point x="394" y="587" type="line"/>
      <point x="394" y="720" type="line"/>
    </contour>
  </outline>
</glyph>
<glyph name="guillemotleft" format="2">
  <advance width="612"/>
  <unicode hex="00AB"/>
  <note>
guillemotleft
</note>
  <outline>
    <contour>
      <point x="326" y="136" type="line"/>
      <point x="150" y="277" type="line"/>
      <point x="326" y="418" type="line"/>
      <point x="264" y="508" type="line"/>
      <point x="41" y="327" type="line"/>
      <point x="41" y="227" type="line"/>
      <point x="264" y="46" type="line"/>
    </contour>
    <contour>
      <point x="296" y="327" type="line"/>
      <point x="296" y="229" type="line"/>
      <point x="515" y="51" type="line"/>
      <point x="576" y="139" type="line"/>
      <point x="403" y="278" type="line"/>
      <point x="576" y="416" type="line"/>
      <point x="515" y="504" type="line"/>
    </contour>
  </outline>
</glyph>
<glyph name="uni00AD" format="2">
  <advance width="0"/>
  <unicode hex="00AD"/>
  <note>
uni00AD
</note>
  <outline>
    <contour>
      <point x="160" y="337" type="line"/>
      <point x="-160" y="337" type="line"/>
      <point x="-160" y="217" type="line"/>
      <point x="160" y="217" type="line"/>
    </contour>
  </outline>
</glyph>
<glyph name="uni00B2" format="2">
  <advance width="285"/>
  <unicode hex="00B2"/>
  <note>
uni00B2
</note>
  <outline>
    <contour>
      <point x="27" y="500" type="line"/>
      <point x="27" y="416" type="line"/>
      <point x="258" y="416" type="line"/>
      <point x="258" y="506" type="line"/>
      <point x="158" y="506" type="line"/>
      <point x="196" y="546" type="line" smooth="yes"/>
      <point x="233" y="585"/>
      <point x="258" y="600"/>
      <point x="258" y="650" type="curve" smooth="yes"/>
      <point x="258" y="716"/>
      <point x="230" y="746"/>
      <point x="147" y="746" type="curve" smooth="yes"/>
      <point x="102" y="746"/>
      <point x="29" y="737"/>
      <point x="29" y="737" type="curve"/>
      <point x="33" y="644" type="line"/>
      <point x="33" y="644"/>
      <point x="92" y="650"/>
      <point x="114" y="650" type="curve" smooth="yes"/>
      <point x="139" y="650"/>
      <point x="147" y="643"/>
      <point x="147" y="628" type="curve" smooth="yes"/>
      <point x="147" y="612"/>
      <point x="142" y="606"/>
      <point x="115" y="581" type="curve" smooth="yes"/>
    </contour>
  </outline>
</glyph>
<glyph name="uni00B3" format="2">
  <advance width="287"/>
  <unicode hex="00B3"/>
  <note>
uni00B3
</note>
  <outline>
    <contour>
      <point x="27" y="737" type="curve"/>
      <point x="33" y="648" type="line"/>
      <point x="33" y="648"/>
      <point x="80" y="653"/>
      <point x="117" y="653" type="curve" smooth="yes"/>
      <point x="133" y="653"/>
      <point x="144" y="650"/>
      <point x="144" y="634" type="curve" smooth="yes"/>
      <point x="144" y="622"/>
      <point x="137" y="616"/>
      <point x="124" y="616" type="curve" smooth="yes"/>
      <point x="60" y="616" type="line"/>
      <point x="60" y="539" type="line"/>
      <point x="126" y="539" type="line" smooth="yes"/>
      <point x="144" y="539"/>
      <point x="152" y="535"/>
      <point x="152" y="517" type="curve" smooth="yes"/>
      <point x="152" y="498"/>
      <point x="144" y="494"/>
      <point x="123" y="494" type="curve" smooth="yes"/>
      <point x="90" y="494"/>
      <point x="29" y="500"/>
      <point x="29" y="500" type="curve"/>
      <point x="23" y="410" type="line"/>
      <point x="23" y="410"/>
      <point x="95" y="402"/>
      <point x="144" y="402" type="curve" smooth="yes"/>
      <point x="217" y="402"/>
      <point x="262" y="424"/>
      <point x="262" y="499" type="curve" smooth="yes"/>
      <point x="262" y="535"/>
      <point x="246" y="570"/>
      <point x="203" y="579" type="curve"/>
      <point x="242" y="598"/>
      <point x="256" y="631"/>
      <point x="256" y="659" type="curve" smooth="yes"/>
      <point x="256" y="726"/>
      <point x="215" y="746"/>
      <point x="135" y="746" type="curve" smooth="yes"/>
      <point x="95" y="746"/>
      <point x="27" y="737"/>
    </contour>
  </outline>
</glyph>
<glyph name="acute" format="2">
  <advance width="406"/>
  <unicode hex="00B4"/>
  <note>
acute
</note>
  <outline>
    <contour>
      <point x="318" y="753" type="line"/>
      <point x="50" y="651" type="line"/>
      <point x="78" y="564" type="line"/>
      <point x="356" y="638" type="line"/>
    </contour>
  </outline>
</glyph>
<glyph name="uni00B9" format="2">
  <advance width="243"/>
  <unicode hex="00B9"/>
  <note>
uni00B9
</note>
  <outline>
    <contour>
      <point x="206" y="737" type="line"/>
      <point x="110" y="737" type="line"/>
      <point x="5" y="664" type="line"/>
      <point x="45" y="594" type="line"/>
      <point x="100" y="630" type="line"/>
      <point x="100" y="416" type="line"/>
      <point x="206" y="416" type="line"/>
    </contour>
  </outline>
</glyph>
<glyph name="guillemotright" format="2">
  <advance width="612"/>
  <unicode hex="00BB"/>
  <note>
guillemotright
</note>
  <outline>
    <contour>
      <point x="286" y="418" type="line"/>
      <point x="462" y="277" type="line"/>
      <point x="286" y="136" type="line"/>
      <point x="348" y="46" type="line"/>
      <point x="571" y="227" type="line"/>
      <point x="571" y="327" type="line"/>
      <point x="348" y="508" type="line"/>
    </contour>
    <contour>
      <point x="209" y="278" type="line"/>
      <point x="36" y="139" type="line"/>
      <point x="97" y="51" type="line"/>
      <point x="316" y="229" type="line"/>
      <point x="316" y="327" type="line"/>
      <point x="97" y="504" type="line"/>
      <point x="36" y="416" type="line"/>
    </contour>
  </outline>
</glyph>
<glyph name="onequarter" format="2">
  <advance width="638"/>
  <unicode hex="00BC"/>
  <note>
onequarter
</note>
  <outline>
    <contour>
      <point x="221" y="707" type="line"/>
      <point x="125" y="707" type="line"/>
      <point x="20" y="634" type="line"/>
      <point x="60" y="564" type="line"/>
      <point x="115" y="600" type="line"/>
      <point x="115" y="386" type="line"/>
      <point x="221" y="386" type="line"/>
    </contour>
    <contour>
      <point x="483" y="710" type="line"/>
      <point x="51" y="43" type="line"/>
      <point x="123" y="-10" type="line"/>
      <point x="558" y="658" type="line"/>
    </contour>
    <contour>
      <point x="358" y="137" type="line"/>
      <point x="358" y="49" type="line"/>
      <point x="492" y="49" type="line"/>
      <point x="492" y="0" type="line"/>
      <point x="586" y="0" type="line"/>
      <point x="586" y="49" type="line"/>
      <point x="610" y="49" type="line"/>
      <point x="610" y="139" type="line"/>
      <point x="586" y="139" type="line"/>
      <point x="586" y="227" type="line"/>
      <point x="509" y="227" type="line"/>
      <point x="494" y="139" type="line"/>
      <point x="453" y="139" type="line"/>
      <point x="517" y="321" type="line"/>
      <point x="399" y="321" type="line"/>
    </contour>
  </outline>
</glyph>
<glyph name="onehalf" format="2">
  <advance width="634"/>
  <unicode hex="00BD"/>
  <note>
onehalf
</note>
  <outline>
    <contour>
      <point x="221" y="707" type="line"/>
      <point x="125" y="707" type="line"/>
      <point x="20" y="634" type="line"/>
      <point x="60" y="564" type="line"/>
      <point x="115" y="600" type="line"/>
      <point x="115" y="386" type="line"/>
      <point x="221" y="386" type="line"/>
    </contour>
    <contour>
      <point x="483" y="710" type="line"/>
      <point x="51" y="43" type="line"/>
      <point x="123" y="-10" type="line"/>
      <point x="558" y="658" type="line"/>
    </contour>
    <contour>
      <point x="363" y="84" type="line"/>
      <point x="363" y="0" type="line"/>
      <point x="594" y="0" type="line"/>
      <point x="594" y="90" type="line"/>
      <point x="494" y="90" type="line"/>
      <point x="532" y="130" type="line" smooth="yes"/>
      <point x="569" y="169"/>
      <point x="594" y="184"/>
      <point x="594" y="234" type="curve" smooth="yes"/>
      <point x="594" y="300"/>
      <point x="566" y="330"/>
      <point x="483" y="330" type="curve" smooth="yes"/>
      <point x="438" y="330"/>
      <point x="365" y="321"/>
      <point x="365" y="321" type="curve"/>
      <point x="369" y="228" type="line"/>
      <point x="369" y="228"/>
      <point x="428" y="234"/>
      <point x="450" y="234" type="curve" smooth="yes"/>
      <point x="475" y="234"/>
      <point x="483" y="227"/>
      <point x="483" y="212" type="curve" smooth="yes"/>
      <point x="483" y="196"/>
      <point x="478" y="190"/>
      <point x="451" y="165" type="curve" smooth="yes"/>
    </contour>
  </outline>
</glyph>
<glyph name="threequarters" format="2">
  <advance width="667"/>
  <unicode hex="00BE"/>
  <note>
threequarters
</note>
  <outline>
    <contour>
      <point x="41" y="707" type="curve"/>
      <point x="47" y="618" type="line"/>
      <point x="47" y="618"/>
      <point x="94" y="623"/>
      <point x="131" y="623" type="curve" smooth="yes"/>
      <point x="147" y="623"/>
      <point x="158" y="620"/>
      <point x="158" y="604" type="curve" smooth="yes"/>
      <point x="158" y="592"/>
      <point x="151" y="586"/>
      <point x="138" y="586" type="curve" smooth="yes"/>
      <point x="74" y="586" type="line"/>
      <point x="74" y="509" type="line"/>
      <point x="140" y="509" type="line" smooth="yes"/>
      <point x="158" y="509"/>
      <point x="166" y="505"/>
      <point x="166" y="487" type="curve" smooth="yes"/>
      <point x="166" y="468"/>
      <point x="158" y="464"/>
      <point x="137" y="464" type="curve" smooth="yes"/>
      <point x="104" y="464"/>
      <point x="43" y="470"/>
      <point x="43" y="470" type="curve"/>
      <point x="37" y="380" type="line"/>
      <point x="37" y="380"/>
      <point x="109" y="372"/>
      <point x="158" y="372" type="curve" smooth="yes"/>
      <point x="231" y="372"/>
      <point x="276" y="394"/>
      <point x="276" y="469" type="curve" smooth="yes"/>
      <point x="276" y="505"/>
      <point x="260" y="540"/>
      <point x="217" y="549" type="curve"/>
      <point x="256" y="568"/>
      <point x="270" y="601"/>
      <point x="270" y="629" type="curve" smooth="yes"/>
      <point x="270" y="696"/>
      <point x="229" y="716"/>
      <point x="149" y="716" type="curve" smooth="yes"/>
      <point x="109" y="716"/>
      <point x="41" y="707"/>
    </contour>
    <contour>
      <point x="513" y="710" type="line"/>
      <point x="81" y="43" type="line"/>
      <point x="153" y="-10" type="line"/>
      <point x="588" y="658" type="line"/>
    </contour>
    <contour>
      <point x="388" y="137" type="line"/>
      <point x="388" y="49" type="line"/>
      <point x="522" y="49" type="line"/>
      <point x="522" y="0" type="line"/>
      <point x="616" y="0" type="line"/>
      <point x="616" y="49" type="line"/>
      <point x="640" y="49" type="line"/>
      <point x="640" y="139" type="line"/>
      <point x="616" y="139" type="line"/>
      <point x="616" y="227" type="line"/>
      <point x="539" y="227" type="line"/>
      <point x="524" y="139" type="line"/>
      <point x="483" y="139" type="line"/>
      <point x="547" y="321" type="line"/>
      <point x="429" y="321" type="line"/>
    </contour>
  </outline>
</glyph>
<glyph name="questiondown" format="2">
  <advance width="420"/>
  <unicode hex="00BF"/>
  <note>
questiondown
</note>
  <outline>
    <contour>
      <point x="23" y="-30" type="curve" smooth="yes"/>
      <point x="23" y="-175"/>
      <point x="105" y="-210"/>
      <point x="219" y="-210" type="curve" smooth="yes"/>
      <point x="333" y="-210"/>
      <point x="399" y="-175"/>
      <point x="399" y="-175" type="curve"/>
      <point x="392" y="-74" type="line"/>
      <point x="392" y="-74"/>
      <point x="317" y="-92"/>
      <point x="252" y="-92" type="curve" smooth="yes"/>
      <point x="183" y="-92"/>
      <point x="163" y="-72"/>
      <point x="163" y="-31" type="curve" smooth="yes"/>
      <point x="163" y="-1"/>
      <point x="173" y="22"/>
      <point x="247" y="80" type="curve" smooth="yes"/>
      <point x="301" y="122"/>
      <point x="319" y="151"/>
      <point x="319" y="185" type="curve" smooth="yes"/>
      <point x="319" y="224"/>
      <point x="293" y="265"/>
      <point x="293" y="265" type="curve"/>
      <point x="181" y="265" type="line"/>
      <point x="181" y="234" type="line" smooth="yes"/>
      <point x="181" y="206"/>
      <point x="177" y="187"/>
      <point x="106" y="133" type="curve" smooth="yes"/>
      <point x="37" y="81"/>
      <point x="23" y="31"/>
    </contour>
    <contour>
      <point x="166" y="500" type="line"/>
      <point x="166" y="345" type="line"/>
      <point x="310" y="345" type="line"/>
      <point x="310" y="500" type="line"/>
    </contour>
  </outline>
</glyph>
<glyph name="Agrave" format="2">
  <advance width="613"/>
  <unicode hex="00C0"/>
  <note>
Agrave
</note>
  <anchor x="307" y="0" name="bottom"/>
  <anchor x="595" y="0" name="ogonek"/>
  <anchor x="307" y="943" name="top"/>
  <outline>
    <contour>
      <point x="292" y="596" type="line"/>
      <point x="322" y="596" type="line"/>
      <point x="395" y="278" type="line"/>
      <point x="218" y="278" type="line"/>
    </contour>
    <contour>
      <point x="186" y="710" type="line"/>
      <point x="18" y="0" type="line"/>
      <point x="156" y="0" type="line"/>
      <point x="190" y="158" type="line"/>
      <point x="423" y="158" type="line"/>
      <point x="457" y="0" type="line"/>
      <point x="595" y="0" type="line"/>
      <point x="428" y="710" type="line"/>
    </contour>
    <contour>
      <point x="192" y="952" type="line"/>
      <point x="154" y="837" type="line"/>
      <point x="432" y="763" type="line"/>
      <point x="460" y="850" type="line"/>
    </contour>
  </outline>
</glyph>
<glyph name="Atilde" format="2">
  <advance width="613"/>
  <unicode hex="00C3"/>
  <note>
Atilde
</note>
  <anchor x="307" y="0" name="bottom"/>
  <anchor x="595" y="0" name="ogonek"/>
  <anchor x="307" y="920" name="top"/>
  <outline>
    <contour>
      <point x="292" y="596" type="line"/>
      <point x="322" y="596" type="line"/>
      <point x="395" y="278" type="line"/>
      <point x="218" y="278" type="line"/>
    </contour>
    <contour>
      <point x="186" y="710" type="line"/>
      <point x="18" y="0" type="line"/>
      <point x="156" y="0" type="line"/>
      <point x="190" y="158" type="line"/>
      <point x="423" y="158" type="line"/>
      <point x="457" y="0" type="line"/>
      <point x="595" y="0" type="line"/>
      <point x="428" y="710" type="line"/>
    </contour>
    <contour>
      <point x="117" y="855" type="curve"/>
      <point x="161" y="785" type="line"/>
      <point x="161" y="785"/>
      <point x="210" y="816"/>
      <point x="238" y="816" type="curve" smooth="yes"/>
      <point x="271" y="816"/>
      <point x="335" y="780"/>
      <point x="377" y="780" type="curve" smooth="yes"/>
      <point x="429" y="780"/>
      <point x="497" y="848"/>
      <point x="497" y="848" type="curve"/>
      <point x="453" y="918" type="line"/>
      <point x="453" y="918"/>
      <point x="399" y="884"/>
      <point x="373" y="884" type="curve" smooth="yes"/>
      <point x="345" y="884"/>
      <point x="277" y="920"/>
      <point x="236" y="920" type="curve" smooth="yes"/>
      <point x="184" y="920"/>
      <point x="117" y="855"/>
    </contour>
  </outline>
</glyph>
<glyph name="Adieresis" format="2">
  <advance width="613"/>
  <unicode hex="00C4"/>
  <note>
Adieresis
</note>
  <anchor x="307" y="0" name="bottom"/>
  <anchor x="595" y="0" name="ogonek"/>
  <anchor x="307" y="908" name="top"/>
  <outline>
    <contour>
      <point x="292" y="596" type="line"/>
      <point x="322" y="596" type="line"/>
      <point x="395" y="278" type="line"/>
      <point x="218" y="278" type="line"/>
    </contour>
    <contour>
      <point x="186" y="710" type="line"/>
      <point x="18" y="0" type="line"/>
      <point x="156" y="0" type="line"/>
      <point x="190" y="158" type="line"/>
      <point x="423" y="158" type="line"/>
      <point x="457" y="0" type="line"/>
      <point x="595" y="0" type="line"/>
      <point x="428" y="710" type="line"/>
    </contour>
    <contour>
      <point x="135" y="910" type="line"/>
      <point x="135" y="777" type="line"/>
      <point x="263" y="777" type="line"/>
      <point x="263" y="910" type="line"/>
    </contour>
    <contour>
      <point x="351" y="910" type="line"/>
      <point x="351" y="777" type="line"/>
      <point x="479" y="777" type="line"/>
      <point x="479" y="910" type="line"/>
    </contour>
  </outline>
</glyph>
<glyph name="Aring" format="2">
  <advance width="613"/>
  <unicode hex="00C5"/>
  <note>
Aring
</note>
  <anchor x="307" y="0" name="bottom"/>
  <anchor x="595" y="0" name="ogonek"/>
  <anchor x="307" y="975" name="top"/>
  <outline>
    <contour>
      <point x="292" y="596" type="line"/>
      <point x="322" y="596" type="line"/>
      <point x="395" y="278" type="line"/>
      <point x="218" y="278" type="line"/>
    </contour>
    <contour>
      <point x="186" y="710" type="line"/>
      <point x="18" y="0" type="line"/>
      <point x="156" y="0" type="line"/>
      <point x="190" y="158" type="line"/>
      <point x="423" y="158" type="line"/>
      <point x="457" y="0" type="line"/>
      <point x="595" y="0" type="line"/>
      <point x="428" y="710" type="line"/>
    </contour>
    <contour>
      <point x="190" y="860" type="curve" smooth="yes"/>
      <point x="190" y="793"/>
      <point x="240" y="747"/>
      <point x="307" y="747" type="curve" smooth="yes"/>
      <point x="372" y="747"/>
      <point x="424" y="793"/>
      <point x="424" y="860" type="curve" smooth="yes"/>
      <point x="424" y="925"/>
      <point x="372" y="973"/>
      <point x="307" y="973" type="curve" smooth="yes"/>
      <point x="240" y="973"/>
      <point x="190" y="925"/>
    </contour>
    <contour>
      <point x="265" y="860" type="curve" smooth="yes"/>
      <point x="265" y="884"/>
      <point x="283" y="902"/>
      <point x="308" y="902" type="curve" smooth="yes"/>
      <point x="332" y="902"/>
      <point x="350" y="884"/>
      <point x="350" y="860" type="curve" smooth="yes"/>
      <point x="350" y="835"/>
      <point x="332" y="817"/>
      <point x="308" y="817" type="curve" smooth="yes"/>
      <point x="283" y="817"/>
      <point x="265" y="835"/>
    </contour>
  </outline>
</glyph>
<glyph name="Ccedilla" format="2">
  <advance width="545"/>
  <unicode hex="00C7"/>
  <note>
Ccedilla
</note>
  <anchor x="333" y="-240" name="bottom"/>
  <anchor x="325" y="710" name="top"/>
  <outline>
    <contour>
      <point x="513" y="9" type="curve"/>
      <point x="510" y="122" type="line"/>
      <point x="470" y="116"/>
      <point x="385" y="108"/>
      <point x="332" y="108" type="curve" smooth="yes"/>
      <point x="214" y="108"/>
      <point x="190" y="159"/>
      <point x="190" y="344" type="curve" smooth="yes"/>
      <point x="190" y="571"/>
      <point x="224" y="604"/>
      <point x="325" y="604" type="curve" smooth="yes"/>
      <point x="374" y="604"/>
      <point x="457" y="596"/>
      <point x="503" y="589" type="curve"/>
      <point x="507" y="699" type="line"/>
      <point x="465" y="709"/>
      <point x="382" y="726"/>
      <point x="302" y="726" type="curve" smooth="yes"/>
      <point x="109" y="726"/>
      <point x="48" y="626"/>
      <point x="48" y="344" type="curve" smooth="yes"/>
      <point x="48" y="102"/>
      <point x="99" y="-7"/>
      <point x="285" y="-14" type="curve"/>
      <point x="268" y="-105" type="line"/>
      <point x="292" y="-105" type="line" smooth="yes"/>
      <point x="319" y="-105"/>
      <point x="330" y="-110"/>
      <point x="330" y="-127" type="curve" smooth="yes"/>
      <point x="330" y="-143"/>
      <point x="319" y="-152"/>
      <point x="292" y="-152" type="curve" smooth="yes"/>
      <point x="234" y="-151" type="line"/>
      <point x="230" y="-229" type="line"/>
      <point x="240" y="-229"/>
      <point x="290" y="-240"/>
      <point x="333" y="-240" type="curve" smooth="yes"/>
      <point x="401" y="-240"/>
      <point x="444" y="-204"/>
      <point x="444" y="-128" type="curve" smooth="yes"/>
      <point x="444" y="-52"/>
      <point x="401" y="-38"/>
      <point x="334" y="-37" type="curve"/>
      <point x="338" y="-13" type="line"/>
      <point x="406" y="-10"/>
      <point x="474" y="0"/>
    </contour>
  </outline>
</glyph>
<glyph name="Egrave" format="2">
  <advance width="556"/>
  <unicode hex="00C8"/>
  <note>
Egrave
</note>
  <anchor x="294" y="0" name="bottom"/>
  <anchor x="472" y="0" name="ogonek"/>
  <anchor x="294" y="943" name="top"/>
  <outline>
    <contour>
      <point x="512" y="710" type="line"/>
      <point x="72" y="710" type="line"/>
      <point x="72" y="0" type="line"/>
      <point x="512" y="0" type="line"/>
      <point x="512" y="120" type="line"/>
      <point x="210" y="120" type="line"/>
      <point x="210" y="299" type="line"/>
      <point x="452" y="299" type="line"/>
      <point x="452" y="417" type="line"/>
      <point x="210" y="417" type="line"/>
      <point x="210" y="590" type="line"/>
      <point x="512" y="590" type="line"/>
    </contour>
    <contour>
      <point x="179" y="952" type="line"/>
      <point x="141" y="837" type="line"/>
      <point x="419" y="763" type="line"/>
      <point x="447" y="850" type="line"/>
    </contour>
  </outline>
</glyph>
<glyph name="Ecircumflex" format="2">
  <advance width="556"/>
  <unicode hex="00CA"/>
  <note>
Ecircumflex
</note>
  <anchor x="294" y="0" name="bottom"/>
  <anchor x="472" y="0" name="ogonek"/>
  <anchor x="294" y="936" name="top"/>
  <outline>
    <contour>
      <point x="512" y="710" type="line"/>
      <point x="72" y="710" type="line"/>
      <point x="72" y="0" type="line"/>
      <point x="512" y="0" type="line"/>
      <point x="512" y="120" type="line"/>
      <point x="210" y="120" type="line"/>
      <point x="210" y="299" type="line"/>
      <point x="452" y="299" type="line"/>
      <point x="452" y="417" type="line"/>
      <point x="210" y="417" type="line"/>
      <point x="210" y="590" type="line"/>
      <point x="512" y="590" type="line"/>
    </contour>
    <contour>
      <point x="236" y="946" type="line"/>
      <point x="105" y="769" type="line"/>
      <point x="225" y="769" type="line"/>
      <point x="294" y="867" type="line"/>
      <point x="363" y="769" type="line"/>
      <point x="483" y="769" type="line"/>
      <point x="352" y="946" type="line"/>
    </contour>
  </outline>
</glyph>
<glyph name="Edieresis" format="2">
  <advance width="556"/>
  <unicode hex="00CB"/>
  <note>
Edieresis
</note>
  <anchor x="294" y="0" name="bottom"/>
  <anchor x="472" y="0" name="ogonek"/>
  <anchor x="294" y="908" name="top"/>
  <outline>
    <contour>
      <point x="512" y="710" type="line"/>
      <point x="72" y="710" type="line"/>
      <point x="72" y="0" type="line"/>
      <point x="512" y="0" type="line"/>
      <point x="512" y="120" type="line"/>
      <point x="210" y="120" type="line"/>
      <point x="210" y="299" type="line"/>
      <point x="452" y="299" type="line"/>
      <point x="452" y="417" type="line"/>
      <point x="210" y="417" type="line"/>
      <point x="210" y="590" type="line"/>
      <point x="512" y="590" type="line"/>
    </contour>
    <contour>
      <point x="122" y="910" type="line"/>
      <point x="122" y="777" type="line"/>
      <point x="250" y="777" type="line"/>
      <point x="250" y="910" type="line"/>
    </contour>
    <contour>
      <point x="338" y="910" type="line"/>
      <point x="338" y="777" type="line"/>
      <point x="466" y="777" type="line"/>
      <point x="466" y="910" type="line"/>
    </contour>
  </outline>
</glyph>
<glyph name="Iacute" format="2">
  <advance width="282"/>
  <unicode hex="00CD"/>
  <note>
Iacute
</note>
  <anchor x="140" y="0" name="bottom"/>
  <anchor x="140" y="353" name="center"/>
  <anchor x="210" y="0" name="ogonek"/>
  <anchor x="140" y="943" name="top"/>
  <outline>
    <contour>
      <point x="210" y="710" type="line"/>
      <point x="72" y="710" type="line"/>
      <point x="72" y="0" type="line"/>
      <point x="210" y="0" type="line"/>
    </contour>
    <contour>
      <point x="255" y="952" type="line"/>
      <point x="-13" y="850" type="line"/>
      <point x="15" y="763" type="line"/>
      <point x="293" y="837" type="line"/>
    </contour>
  </outline>
</glyph>
<glyph name="Icircumflex" format="2">
  <advance width="282"/>
  <unicode hex="00CE"/>
  <note>
Icircumflex
</note>
  <anchor x="140" y="0" name="bottom"/>
  <anchor x="140" y="353" name="center"/>
  <anchor x="210" y="0" name="ogonek"/>
  <anchor x="140" y="936" name="top"/>
  <outline>
    <contour>
      <point x="210" y="710" type="line"/>
      <point x="72" y="710" type="line"/>
      <point x="72" y="0" type="line"/>
      <point x="210" y="0" type="line"/>
    </contour>
    <contour>
      <point x="82" y="946" type="line"/>
      <point x="-49" y="769" type="line"/>
      <point x="71" y="769" type="line"/>
      <point x="140" y="867" type="line"/>
      <point x="209" y="769" type="line"/>
      <point x="329" y="769" type="line"/>
      <point x="198" y="946" type="line"/>
    </contour>
  </outline>
</glyph>
<glyph name="Idieresis" format="2">
  <advance width="282"/>
  <unicode hex="00CF"/>
  <note>
Idieresis
</note>
  <anchor x="140" y="0" name="bottom"/>
  <anchor x="140" y="353" name="center"/>
  <anchor x="210" y="0" name="ogonek"/>
  <anchor x="140" y="908" name="top"/>
  <outline>
    <contour>
      <point x="210" y="710" type="line"/>
      <point x="72" y="710" type="line"/>
      <point x="72" y="0" type="line"/>
      <point x="210" y="0" type="line"/>
    </contour>
    <contour>
      <point x="-32" y="910" type="line"/>
      <point x="-32" y="777" type="line"/>
      <point x="96" y="777" type="line"/>
      <point x="96" y="910" type="line"/>
    </contour>
    <contour>
      <point x="184" y="910" type="line"/>
      <point x="184" y="777" type="line"/>
      <point x="312" y="777" type="line"/>
      <point x="312" y="910" type="line"/>
    </contour>
  </outline>
</glyph>
<glyph name="Eth" format="2">
  <advance width="670"/>
  <unicode hex="00D0"/>
  <note>
Eth
</note>
  <anchor x="332" y="0" name="bottom"/>
  <anchor x="168" y="354" name="center"/>
  <anchor x="332" y="710" name="top"/>
  <outline>
    <contour>
      <point x="101" y="298" type="line"/>
      <point x="101" y="0" type="line"/>
      <point x="331" y="0" type="line" smooth="yes"/>
      <point x="571" y="0"/>
      <point x="623" y="130"/>
      <point x="623" y="361" type="curve" smooth="yes"/>
      <point x="623" y="618"/>
      <point x="558" y="710"/>
      <point x="325" y="710" type="curve" smooth="yes"/>
      <point x="101" y="710" type="line"/>
      <point x="101" y="412" type="line"/>
      <point x="36" y="412" type="line"/>
      <point x="36" y="298" type="line"/>
    </contour>
    <contour>
      <point x="330" y="120" type="curve" smooth="yes"/>
      <point x="239" y="120" type="line"/>
      <point x="239" y="298" type="line"/>
      <point x="383" y="298" type="line"/>
      <point x="383" y="412" type="line"/>
      <point x="239" y="412" type="line"/>
      <point x="239" y="590" type="line"/>
      <point x="330" y="590" type="line" smooth="yes"/>
      <point x="444" y="590"/>
      <point x="481" y="552"/>
      <point x="481" y="361" type="curve" smooth="yes"/>
      <point x="481" y="182"/>
      <point x="444" y="120"/>
    </contour>
  </outline>
</glyph>
<glyph name="Ntilde" format="2">
  <advance width="729"/>
  <unicode hex="00D1"/>
  <note>
Ntilde
</note>
  <anchor x="364" y="0" name="bottom"/>
  <anchor x="374" y="920" name="top"/>
  <outline>
    <contour>
      <point x="322" y="710" type="line"/>
      <point x="72" y="710" type="line"/>
      <point x="72" y="0" type="line"/>
      <point x="210" y="0" type="line"/>
      <point x="210" y="590" type="line"/>
      <point x="240" y="590" type="line"/>
      <point x="410" y="0" type="line"/>
      <point x="657" y="0" type="line"/>
      <point x="657" y="710" type="line"/>
      <point x="519" y="710" type="line"/>
      <point x="519" y="120" type="line"/>
      <point x="489" y="120" type="line"/>
    </contour>
    <contour>
      <point x="184" y="855" type="curve"/>
      <point x="228" y="785" type="line"/>
      <point x="228" y="785"/>
      <point x="277" y="816"/>
      <point x="305" y="816" type="curve" smooth="yes"/>
      <point x="338" y="816"/>
      <point x="402" y="780"/>
      <point x="444" y="780" type="curve" smooth="yes"/>
      <point x="496" y="780"/>
      <point x="564" y="848"/>
      <point x="564" y="848" type="curve"/>
      <point x="520" y="918" type="line"/>
      <point x="520" y="918"/>
      <point x="466" y="884"/>
      <point x="440" y="884" type="curve" smooth="yes"/>
      <point x="412" y="884"/>
      <point x="344" y="920"/>
      <point x="303" y="920" type="curve" smooth="yes"/>
      <point x="251" y="920"/>
      <point x="184" y="855"/>
    </contour>
  </outline>
</glyph>
<glyph name="Otilde" format="2">
  <advance width="664"/>
  <unicode hex="00D5"/>
  <note>
Otilde
</note>
  <anchor x="336" y="0" name="bottom"/>
  <anchor x="336" y="350" name="center"/>
  <anchor x="425" y="0" name="ogonek"/>
  <anchor x="336" y="920" name="top"/>
  <anchor x="646" y="710" name="topright"/>
  <outline>
    <contour>
      <point x="332" y="106" type="curve" smooth="yes"/>
      <point x="220" y="106"/>
      <point x="188" y="177"/>
      <point x="188" y="356" type="curve" smooth="yes"/>
      <point x="188" y="537"/>
      <point x="220" y="616"/>
      <point x="332" y="616" type="curve" smooth="yes"/>
      <point x="444" y="616"/>
      <point x="476" y="537"/>
      <point x="476" y="356" type="curve" smooth="yes"/>
      <point x="476" y="177"/>
      <point x="444" y="106"/>
    </contour>
    <contour>
      <point x="46" y="356" type="curve" smooth="yes"/>
      <point x="46" y="104"/>
      <point x="118" y="-14"/>
      <point x="332" y="-14" type="curve" smooth="yes"/>
      <point x="546" y="-14"/>
      <point x="618" y="104"/>
      <point x="618" y="356" type="curve" smooth="yes"/>
      <point x="618" y="610"/>
      <point x="546" y="726"/>
      <point x="332" y="726" type="curve" smooth="yes"/>
      <point x="118" y="726"/>
      <point x="46" y="610"/>
    </contour>
    <contour>
      <point x="146" y="855" type="curve"/>
      <point x="190" y="785" type="line"/>
      <point x="190" y="785"/>
      <point x="239" y="816"/>
      <point x="267" y="816" type="curve" smooth="yes"/>
      <point x="300" y="816"/>
      <point x="364" y="780"/>
      <point x="406" y="780" type="curve" smooth="yes"/>
      <point x="458" y="780"/>
      <point x="526" y="848"/>
      <point x="526" y="848" type="curve"/>
      <point x="482" y="918" type="line"/>
      <point x="482" y="918"/>
      <point x="428" y="884"/>
      <point x="402" y="884" type="curve" smooth="yes"/>
      <point x="374" y="884"/>
      <point x="306" y="920"/>
      <point x="265" y="920" type="curve" smooth="yes"/>
      <point x="213" y="920"/>
      <point x="146" y="855"/>
    </contour>
  </outline>
</glyph>
<glyph name="Oslash" format="2">
  <advance width="664"/>
  <unicode hex="00D8"/>
  <note>
Oslash
</note>
  <anchor x="336" y="0" name="bottom"/>
  <anchor x="336" y="350" name="center"/>
  <anchor x="425" y="0" name="ogonek"/>
  <anchor x="336" y="700" name="top"/>
  <anchor x="646" y="710" name="topright"/>
  <outline>
    <contour>
      <point x="332" y="106" type="curve" smooth="yes"/>
      <point x="310" y="106"/>
      <point x="292" y="109"/>
      <point x="276" y="114" type="curve"/>
      <point x="465" y="496" type="line"/>
      <point x="473" y="459"/>
      <point x="476" y="412"/>
      <point x="476" y="356" type="curve" smooth="yes"/>
      <point x="476" y="177"/>
      <point x="444" y="106"/>
    </contour>
    <contour>
      <point x="46" y="356" type="curve" smooth="yes"/>
      <point x="46" y="211"/>
      <point x="70" y="111"/>
      <point x="130" y="51" type="curve"/>
      <point x="97" y="-16" type="line"/>
      <point x="189" y="-60" type="line"/>
      <point x="219" y="1" type="line"/>
      <point x="251" y="-9"/>
      <point x="289" y="-14"/>
      <point x="332" y="-14" type="curve" smooth="yes"/>
      <point x="546" y="-14"/>
      <point x="618" y="104"/>
      <point x="618" y="356" type="curve" smooth="yes"/>
      <point x="618" y="494"/>
      <point x="597" y="592"/>
      <point x="543" y="652" type="curve"/>
      <point x="574" y="715" type="line"/>
      <point x="482" y="759" type="line"/>
      <point x="457" y="708" type="line"/>
      <point x="422" y="720"/>
      <point x="381" y="726"/>
      <point x="332" y="726" type="curve" smooth="yes"/>
      <point x="118" y="726"/>
      <point x="46" y="610"/>
    </contour>
    <contour>
      <point x="188" y="356" type="curve" smooth="yes"/>
      <point x="188" y="537"/>
      <point x="220" y="616"/>
      <point x="332" y="616" type="curve" smooth="yes"/>
      <point x="361" y="616"/>
      <point x="384" y="611"/>
      <point x="403" y="600" type="curve"/>
      <point x="204" y="199" type="line"/>
      <point x="192" y="238"/>
      <point x="188" y="289"/>
    </contour>
  </outline>
</glyph>
<glyph name="Uacute" format="2">
  <advance width="654"/>
  <unicode hex="00DA"/>
  <note>
Uacute
</note>
  <anchor x="326" y="0" name="bottom"/>
  <anchor x="419" y="0" name="ogonek"/>
  <anchor x="326" y="943" name="top"/>
  <anchor x="626" y="710" name="topright"/>
  <outline>
    <contour>
      <point x="206" y="225" type="curve" smooth="yes"/>
      <point x="206" y="710" type="line"/>
      <point x="68" y="710" type="line"/>
      <point x="68" y="228" type="line" smooth="yes"/>
      <point x="68" y="58"/>
      <point x="157" y="-14"/>
      <point x="327" y="-14" type="curve" smooth="yes"/>
      <point x="497" y="-14"/>
      <point x="586" y="58"/>
      <point x="586" y="228" type="curve" smooth="yes"/>
      <point x="586" y="710" type="line"/>
      <point x="448" y="710" type="line"/>
      <point x="448" y="225" type="line" smooth="yes"/>
      <point x="448" y="145"/>
      <point x="408" y="106"/>
      <point x="327" y="106" type="curve" smooth="yes"/>
      <point x="246" y="106"/>
      <point x="206" y="144"/>
    </contour>
    <contour>
      <point x="441" y="952" type="line"/>
      <point x="173" y="850" type="line"/>
      <point x="201" y="763" type="line"/>
      <point x="479" y="837" type="line"/>
    </contour>
  </outline>
</glyph>
<glyph name="Yacute" format="2">
  <advance width="556"/>
  <unicode hex="00DD"/>
  <note>
Yacute
</note>
  <anchor x="277" y="0" name="bottom"/>
  <anchor x="277" y="943" name="top"/>
  <outline>
    <contour>
      <point x="209" y="298" type="line"/>
      <point x="209" y="0" type="line"/>
      <point x="347" y="0" type="line"/>
      <point x="347" y="298" type="line"/>
      <point x="555" y="710" type="line"/>
      <point x="402" y="710" type="line"/>
      <point x="277" y="432" type="line"/>
      <point x="152" y="710" type="line"/>
      <point x="-1" y="710" type="line"/>
    </contour>
    <contour>
      <point x="392" y="952" type="line"/>
      <point x="124" y="850" type="line"/>
      <point x="152" y="763" type="line"/>
      <point x="430" y="837" type="line"/>
    </contour>
  </outline>
</glyph>
<glyph name="Thorn" format="2">
  <advance width="603"/>
  <unicode hex="00DE"/>
  <note>
Thorn
</note>
  <anchor x="140" y="0" name="bottom"/>
  <anchor x="140" y="353" name="center"/>
  <anchor x="210" y="0" name="ogonek"/>
  <anchor x="140" y="710" name="top"/>
  <outline>
    <contour>
      <point x="323" y="593" type="curve" smooth="yes"/>
      <point x="210" y="593" type="line"/>
      <point x="210" y="710" type="line"/>
      <point x="72" y="710" type="line"/>
      <point x="72" y="0" type="line"/>
      <point x="210" y="0" type="line"/>
      <point x="210" y="121" type="line"/>
      <point x="323" y="121" type="line" smooth="yes"/>
      <point x="483" y="121"/>
      <point x="565" y="208"/>
      <point x="565" y="361" type="curve" smooth="yes"/>
      <point x="565" y="514"/>
      <point x="483" y="593"/>
    </contour>
    <contour>
      <point x="322" y="239" type="curve" smooth="yes"/>
      <point x="212" y="239" type="line"/>
      <point x="212" y="475" type="line"/>
      <point x="322" y="475" type="line" smooth="yes"/>
      <point x="391" y="475"/>
      <point x="425" y="441"/>
      <point x="425" y="361" type="curve" smooth="yes"/>
      <point x="425" y="280"/>
      <point x="391" y="239"/>
    </contour>
  </outline>
</glyph>
<glyph name="ccedilla" format="2">
  <advance width="451"/>
  <unicode hex="00E7"/>
  <note>
ccedilla
</note>
  <anchor x="249" y="-240" name="bottom"/>
  <anchor x="248" y="510" name="top"/>
  <outline>
    <contour>
      <point x="253" y="526" type="curve" smooth="yes"/>
      <point x="104" y="526"/>
      <point x="40" y="446"/>
      <point x="40" y="255" type="curve" smooth="yes"/>
      <point x="40" y="87"/>
      <point x="88" y="6"/>
      <point x="202" y="-11" type="curve"/>
      <point x="184" y="-105" type="line"/>
      <point x="208" y="-105" type="line" smooth="yes"/>
      <point x="235" y="-105"/>
      <point x="246" y="-110"/>
      <point x="246" y="-127" type="curve" smooth="yes"/>
      <point x="246" y="-143"/>
      <point x="235" y="-152"/>
      <point x="208" y="-152" type="curve" smooth="yes"/>
      <point x="150" y="-151" type="line"/>
      <point x="146" y="-229" type="line"/>
      <point x="156" y="-229"/>
      <point x="206" y="-240"/>
      <point x="249" y="-240" type="curve" smooth="yes"/>
      <point x="317" y="-240"/>
      <point x="360" y="-204"/>
      <point x="360" y="-128" type="curve" smooth="yes"/>
      <point x="360" y="-52"/>
      <point x="317" y="-38"/>
      <point x="250" y="-37" type="curve"/>
      <point x="254" y="-14" type="line"/>
      <point x="311" y="-13"/>
      <point x="413" y="7"/>
      <point x="413" y="7" type="curve"/>
      <point x="409" y="114" type="line"/>
      <point x="409" y="114"/>
      <point x="331" y="106"/>
      <point x="293" y="106" type="curve" smooth="yes"/>
      <point x="197" y="106"/>
      <point x="178" y="141"/>
      <point x="178" y="255" type="curve" smooth="yes"/>
      <point x="178" y="369"/>
      <point x="196" y="406"/>
      <point x="292" y="406" type="curve" smooth="yes"/>
      <point x="330" y="406"/>
      <point x="409" y="398"/>
      <point x="409" y="398" type="curve"/>
      <point x="413" y="504" type="line"/>
      <point x="413" y="504"/>
      <point x="311" y="526"/>
    </contour>
  </outline>
</glyph>
<glyph name="eacute" format="2">
  <advance width="514"/>
  <unicode hex="00E9"/>
  <note>
eacute
</note>
  <anchor x="257" y="0" name="bottom"/>
  <anchor x="391" y="0" name="ogonek"/>
  <anchor x="297" y="753" name="top"/>
  <outline>
    <contour>
      <point x="460" y="103" type="line"/>
      <point x="285" y="104" type="line" smooth="yes"/>
      <point x="183" y="104"/>
      <point x="175" y="129"/>
      <point x="174" y="209" type="curve"/>
      <point x="468" y="209" type="line"/>
      <point x="478" y="302" type="line"/>
      <point x="478" y="451"/>
      <point x="405" y="526"/>
      <point x="265" y="526" type="curve" smooth="yes"/>
      <point x="112" y="526"/>
      <point x="39" y="439"/>
      <point x="39" y="256" type="curve" smooth="yes"/>
      <point x="39" y="63"/>
      <point x="103" y="-14"/>
      <point x="254" y="-14" type="curve" smooth="yes"/>
      <point x="347" y="-14"/>
      <point x="462" y="4"/>
      <point x="462" y="4" type="curve"/>
    </contour>
    <contour>
      <point x="412" y="753" type="line"/>
      <point x="144" y="651" type="line"/>
      <point x="172" y="564" type="line"/>
      <point x="450" y="638" type="line"/>
    </contour>
    <contour>
      <point x="346" y="311" type="curve"/>
      <point x="173" y="311" type="line"/>
      <point x="174" y="385"/>
      <point x="196" y="416"/>
      <point x="260" y="416" type="curve" smooth="yes"/>
      <point x="323" y="416"/>
      <point x="346" y="390"/>
    </contour>
  </outline>
</glyph>
<glyph name="igrave" format="2">
  <advance width="258"/>
  <unicode hex="00EC"/>
  <note>
igrave
</note>
  <anchor x="129" y="0" name="bottom"/>
  <anchor x="196" y="0" name="ogonek"/>
  <anchor x="104" y="753" name="top"/>
  <outline>
    <contour>
      <point x="196" y="510" type="line"/>
      <point x="62" y="510" type="line"/>
      <point x="62" y="0" type="line"/>
      <point x="196" y="0" type="line"/>
    </contour>
    <contour>
      <point x="-11" y="753" type="line"/>
      <point x="-49" y="638" type="line"/>
      <point x="229" y="564" type="line"/>
      <point x="257" y="651" type="line"/>
    </contour>
  </outline>
</glyph>
<glyph name="iacute" format="2">
  <advance width="258"/>
  <unicode hex="00ED"/>
  <note>
iacute
</note>
  <anchor x="129" y="0" name="bottom"/>
  <anchor x="196" y="0" name="ogonek"/>
  <anchor x="154" y="753" name="top"/>
  <outline>
    <contour>
      <point x="196" y="510" type="line"/>
      <point x="62" y="510" type="line"/>
      <point x="62" y="0" type="line"/>
      <point x="196" y="0" type="line"/>
    </contour>
    <contour>
      <point x="269" y="753" type="line"/>
      <point x="1" y="651" type="line"/>
      <point x="29" y="564" type="line"/>
      <point x="307" y="638" type="line"/>
    </contour>
  </outline>
</glyph>
<glyph name="icircumflex" format="2">
  <advance width="258"/>
  <unicode hex="00EE"/>
  <note>
icircumflex
</note>
  <anchor x="129" y="0" name="bottom"/>
  <anchor x="196" y="0" name="ogonek"/>
  <anchor x="129" y="753" name="top"/>
  <outline>
    <contour>
      <point x="196" y="510" type="line"/>
      <point x="62" y="510" type="line"/>
      <point x="62" y="0" type="line"/>
      <point x="196" y="0" type="line"/>
    </contour>
    <contour>
      <point x="71" y="746" type="line"/>
      <point x="-60" y="569" type="line"/>
      <point x="60" y="569" type="line"/>
      <point x="129" y="667" type="line"/>
      <point x="198" y="569" type="line"/>
      <point x="318" y="569" type="line"/>
      <point x="187" y="746" type="line"/>
    </contour>
  </outline>
</glyph>
<glyph name="idieresis" format="2">
  <advance width="258"/>
  <unicode hex="00EF"/>
  <note>
idieresis
</note>
  <anchor x="129" y="0" name="bottom"/>
  <anchor x="196" y="0" name="ogonek"/>
  <anchor x="129" y="728" name="top"/>
  <outline>
    <contour>
      <point x="196" y="510" type="line"/>
      <point x="62" y="510" type="line"/>
      <point x="62" y="0" type="line"/>
      <point x="196" y="0" type="line"/>
    </contour>
    <contour>
      <point x="-43" y="720" type="line"/>
      <point x="-43" y="587" type="line"/>
      <point x="85" y="587" type="line"/>
      <point x="85" y="720" type="line"/>
    </contour>
    <contour>
      <point x="173" y="720" type="line"/>
      <point x="173" y="587" type="line"/>
      <point x="301" y="587" type="line"/>
      <point x="301" y="720" type="line"/>
    </contour>
  </outline>
</glyph>
<glyph name="ntilde" format="2">
  <advance width="553"/>
  <unicode hex="00F1"/>
  <note>
ntilde
</note>
  <anchor x="279" y="0" name="bottom"/>
  <anchor x="287" y="725" name="top"/>
  <outline>
    <contour>
      <point x="62" y="510" type="line"/>
      <point x="62" y="0" type="line"/>
      <point x="196" y="0" type="line"/>
      <point x="196" y="382" type="line"/>
      <point x="196" y="382"/>
      <point x="240" y="406"/>
      <point x="287" y="406" type="curve" smooth="yes"/>
      <point x="352" y="406"/>
      <point x="362" y="357"/>
      <point x="362" y="281" type="curve" smooth="yes"/>
      <point x="362" y="0" type="line"/>
      <point x="496" y="0" type="line"/>
      <point x="496" y="285" type="line" smooth="yes"/>
      <point x="496" y="438"/>
      <point x="460" y="526"/>
      <point x="320" y="526" type="curve" smooth="yes"/>
      <point x="263" y="526"/>
      <point x="195" y="480"/>
      <point x="195" y="480" type="curve"/>
      <point x="195" y="510" type="line"/>
    </contour>
    <contour>
      <point x="97" y="650" type="curve"/>
      <point x="141" y="580" type="line"/>
      <point x="141" y="580"/>
      <point x="190" y="611"/>
      <point x="218" y="611" type="curve" smooth="yes"/>
      <point x="251" y="611"/>
      <point x="315" y="575"/>
      <point x="357" y="575" type="curve" smooth="yes"/>
      <point x="409" y="575"/>
      <point x="477" y="643"/>
      <point x="477" y="643" type="curve"/>
      <point x="433" y="713" type="line"/>
      <point x="433" y="713"/>
      <point x="379" y="679"/>
      <point x="353" y="679" type="curve" smooth="yes"/>
      <point x="325" y="679"/>
      <point x="257" y="715"/>
      <point x="216" y="715" type="curve" smooth="yes"/>
      <point x="164" y="715"/>
      <point x="97" y="650"/>
    </contour>
  </outline>
</glyph>
<glyph name="otilde" format="2">
  <advance width="536"/>
  <unicode hex="00F5"/>
  <note>
otilde
</note>
  <anchor x="266" y="0" name="bottom"/>
  <anchor x="266" y="256" name="center"/>
  <anchor x="353" y="0" name="ogonek"/>
  <anchor x="266" y="725" name="top"/>
  <anchor x="510" y="510" name="topright"/>
  <outline>
    <contour>
      <point x="268" y="526" type="curve" smooth="yes"/>
      <point x="94" y="526"/>
      <point x="38" y="416"/>
      <point x="38" y="256" type="curve" smooth="yes"/>
      <point x="38" y="96"/>
      <point x="94" y="-10"/>
      <point x="268" y="-10" type="curve" smooth="yes"/>
      <point x="442" y="-10"/>
      <point x="498" y="96"/>
      <point x="498" y="256" type="curve" smooth="yes"/>
      <point x="498" y="416"/>
      <point x="442" y="526"/>
    </contour>
    <contour>
      <point x="76" y="650" type="curve"/>
      <point x="120" y="580" type="line"/>
      <point x="120" y="580"/>
      <point x="169" y="611"/>
      <point x="197" y="611" type="curve" smooth="yes"/>
      <point x="230" y="611"/>
      <point x="294" y="575"/>
      <point x="336" y="575" type="curve" smooth="yes"/>
      <point x="388" y="575"/>
      <point x="456" y="643"/>
      <point x="456" y="643" type="curve"/>
      <point x="412" y="713" type="line"/>
      <point x="412" y="713"/>
      <point x="358" y="679"/>
      <point x="332" y="679" type="curve" smooth="yes"/>
      <point x="304" y="679"/>
      <point x="236" y="715"/>
      <point x="195" y="715" type="curve" smooth="yes"/>
      <point x="143" y="715"/>
      <point x="76" y="650"/>
    </contour>
    <contour>
      <point x="174" y="256" type="curve" smooth="yes"/>
      <point x="174" y="359"/>
      <point x="194" y="412"/>
      <point x="268" y="412" type="curve" smooth="yes"/>
      <point x="342" y="412"/>
      <point x="362" y="359"/>
      <point x="362" y="256" type="curve" smooth="yes"/>
      <point x="362" y="153"/>
      <point x="342" y="104"/>
      <point x="268" y="104" type="curve" smooth="yes"/>
      <point x="194" y="104"/>
      <point x="174" y="153"/>
    </contour>
  </outline>
</glyph>
<glyph name="oslash" format="2">
  <advance width="536"/>
  <unicode hex="00F8"/>
  <note>
oslash
</note>
  <anchor x="266" y="0" name="bottom"/>
  <anchor x="266" y="256" name="center"/>
  <anchor x="353" y="0" name="ogonek"/>
  <anchor x="262" y="510" name="top"/>
  <anchor x="510" y="510" name="topright"/>
  <outline>
    <contour>
      <point x="462" y="530" type="line"/>
      <point x="370" y="574" type="line"/>
      <point x="342" y="518" type="line"/>
      <point x="320" y="523"/>
      <point x="296" y="526"/>
      <point x="268" y="526" type="curve" smooth="yes"/>
      <point x="94" y="526"/>
      <point x="38" y="416"/>
      <point x="38" y="256" type="curve" smooth="yes"/>
      <point x="38" y="164"/>
      <point x="57" y="90"/>
      <point x="106" y="43" type="curve"/>
      <point x="69" y="-30" type="line"/>
      <point x="161" y="-74" type="line"/>
      <point x="196" y="-3" type="line"/>
      <point x="218" y="-8"/>
      <point x="241" y="-10"/>
      <point x="268" y="-10" type="curve" smooth="yes"/>
      <point x="442" y="-10"/>
      <point x="498" y="96"/>
      <point x="498" y="256" type="curve" smooth="yes"/>
      <point x="498" y="347"/>
      <point x="480" y="422"/>
      <point x="432" y="470" type="curve"/>
    </contour>
    <contour>
      <point x="174" y="256" type="curve" smooth="yes"/>
      <point x="174" y="359"/>
      <point x="194" y="412"/>
      <point x="268" y="412" type="curve" smooth="yes"/>
      <point x="275" y="412"/>
      <point x="282" y="411"/>
      <point x="288" y="410" type="curve"/>
      <point x="178" y="189" type="line"/>
      <point x="175" y="208"/>
      <point x="174" y="230"/>
    </contour>
    <contour>
      <point x="250" y="105" type="curve"/>
      <point x="358" y="321" type="line"/>
      <point x="361" y="303"/>
      <point x="362" y="281"/>
      <point x="362" y="256" type="curve" smooth="yes"/>
      <point x="362" y="153"/>
      <point x="342" y="104"/>
      <point x="268" y="104" type="curve" smooth="yes"/>
      <point x="262" y="104"/>
      <point x="256" y="104"/>
    </contour>
  </outline>
</glyph>
<glyph name="ugrave" format="2">
  <advance width="553"/>
  <unicode hex="00F9"/>
  <note>
ugrave
</note>
  <anchor x="277" y="0" name="bottom"/>
  <anchor x="470" y="0" name="ogonek"/>
  <anchor x="252" y="753" name="top"/>
  <anchor x="531" y="510" name="topright"/>
  <outline>
    <contour>
      <point x="491" y="0" type="line"/>
      <point x="491" y="510" type="line"/>
      <point x="357" y="510" type="line"/>
      <point x="357" y="128" type="line"/>
      <point x="357" y="128"/>
      <point x="311" y="106"/>
      <point x="261" y="106" type="curve" smooth="yes"/>
      <point x="195" y="106"/>
      <point x="191" y="145"/>
      <point x="191" y="234" type="curve" smooth="yes"/>
      <point x="191" y="510" type="line"/>
      <point x="57" y="510" type="line"/>
      <point x="57" y="236" type="line" smooth="yes"/>
      <point x="57" y="67"/>
      <point x="87" y="-14"/>
      <point x="233" y="-14" type="curve" smooth="yes"/>
      <point x="286" y="-14"/>
      <point x="358" y="30"/>
      <point x="358" y="30" type="curve"/>
      <point x="358" y="0" type="line"/>
    </contour>
    <contour>
      <point x="137" y="753" type="line"/>
      <point x="99" y="638" type="line"/>
      <point x="377" y="564" type="line"/>
      <point x="405" y="651" type="line"/>
    </contour>
  </outline>
</glyph>
<glyph name="yacute" format="2">
  <advance width="505"/>
  <unicode hex="00FD"/>
  <note>
yacute
</note>
  <anchor x="254" y="0" name="bottom"/>
  <anchor x="279" y="753" name="top"/>
  <outline>
    <contour>
      <point x="240" y="114" type="line"/>
      <point x="151" y="510" type="line"/>
      <point x="19" y="510" type="line"/>
      <point x="140" y="0" type="line"/>
      <point x="236" y="0" type="line"/>
      <point x="177" y="-230" type="line"/>
      <point x="308" y="-230" type="line"/>
      <point x="488" y="510" type="line"/>
      <point x="356" y="510" type="line"/>
      <point x="265" y="114" type="line"/>
    </contour>
    <contour>
      <point x="394" y="753" type="line"/>
      <point x="126" y="651" type="line"/>
      <point x="154" y="564" type="line"/>
      <point x="432" y="638" type="line"/>
    </contour>
  </outline>
</glyph>
<glyph name="ydieresis" format="2">
  <advance width="505"/>
  <unicode hex="00FF"/>
  <note>
ydieresis
</note>
  <anchor x="254" y="0" name="bottom"/>
  <anchor x="254" y="728" name="top"/>
  <outline>
    <contour>
      <point x="240" y="114" type="line"/>
      <point x="151" y="510" type="line"/>
      <point x="19" y="510" type="line"/>
      <point x="140" y="0" type="line"/>
      <point x="236" y="0" type="line"/>
      <point x="177" y="-230" type="line"/>
      <point x="308" y="-230" type="line"/>
      <point x="488" y="510" type="line"/>
      <point x="356" y="510" type="line"/>
      <point x="265" y="114" type="line"/>
    </contour>
    <contour>
      <point x="82" y="720" type="line"/>
      <point x="82" y="587" type="line"/>
      <point x="210" y="587" type="line"/>
      <point x="210" y="720" type="line"/>
    </contour>
    <contour>
      <point x="298" y="720" type="line"/>
      <point x="298" y="587" type="line"/>
      <point x="426" y="587" type="line"/>
      <point x="426" y="720" type="line"/>
    </contour>
  </outline>
</glyph>
<glyph name="Amacron" format="2">
  <advance width="613"/>
  <unicode hex="0100"/>
  <note>
Amacron
</note>
  <anchor x="307" y="0" name="bottom"/>
  <anchor x="595" y="0" name="ogonek"/>
  <anchor x="307" y="887" name="top"/>
  <outline>
    <contour>
      <point x="292" y="596" type="line"/>
      <point x="322" y="596" type="line"/>
      <point x="395" y="278" type="line"/>
      <point x="218" y="278" type="line"/>
    </contour>
    <contour>
      <point x="186" y="710" type="line"/>
      <point x="18" y="0" type="line"/>
      <point x="156" y="0" type="line"/>
      <point x="190" y="158" type="line"/>
      <point x="423" y="158" type="line"/>
      <point x="457" y="0" type="line"/>
      <point x="595" y="0" type="line"/>
      <point x="428" y="710" type="line"/>
    </contour>
    <contour>
      <point x="163" y="887" type="line"/>
      <point x="163" y="787" type="line"/>
      <point x="450" y="787" type="line"/>
      <point x="450" y="887" type="line"/>
    </contour>
  </outline>
</glyph>
<glyph name="Abreve" format="2">
  <advance width="613"/>
  <unicode hex="0102"/>
  <note>
Abreve
</note>
  <anchor x="307" y="0" name="bottom"/>
  <anchor x="595" y="0" name="ogonek"/>
  <anchor x="307" y="920" name="top"/>
  <outline>
    <contour>
      <point x="292" y="596" type="line"/>
      <point x="322" y="596" type="line"/>
      <point x="395" y="278" type="line"/>
      <point x="218" y="278" type="line"/>
    </contour>
    <contour>
      <point x="186" y="710" type="line"/>
      <point x="18" y="0" type="line"/>
      <point x="156" y="0" type="line"/>
      <point x="190" y="158" type="line"/>
      <point x="423" y="158" type="line"/>
      <point x="457" y="0" type="line"/>
      <point x="595" y="0" type="line"/>
      <point x="428" y="710" type="line"/>
    </contour>
    <contour>
      <point x="238" y="929" type="curve"/>
      <point x="138" y="929" type="line"/>
      <point x="141" y="839"/>
      <point x="191" y="763"/>
      <point x="307" y="763" type="curve" smooth="yes"/>
      <point x="423" y="763"/>
      <point x="473" y="839"/>
      <point x="476" y="929" type="curve"/>
      <point x="376" y="929" type="line"/>
      <point x="374" y="880"/>
      <point x="352" y="853"/>
      <point x="307" y="853" type="curve" smooth="yes"/>
      <point x="262" y="853"/>
      <point x="240" y="880"/>
    </contour>
  </outline>
</glyph>
<glyph name="Aogonek" format="2">
  <advance width="613"/>
  <unicode hex="0104"/>
  <note>
Aogonek
</note>
  <anchor x="307" y="0" name="bottom"/>
  <anchor x="595" y="0" name="ogonek"/>
  <anchor x="307" y="710" name="top"/>
  <outline>
    <contour>
      <point x="292" y="596" type="line"/>
      <point x="322" y="596" type="line"/>
      <point x="395" y="278" type="line"/>
      <point x="218" y="278" type="line"/>
    </contour>
    <contour>
      <point x="186" y="710" type="line"/>
      <point x="18" y="0" type="line"/>
      <point x="156" y="0" type="line"/>
      <point x="190" y="158" type="line"/>
      <point x="423" y="158" type="line"/>
      <point x="457" y="0" type="line"/>
      <point x="483" y="0" type="line"/>
      <point x="461" y="-23"/>
      <point x="413" y="-76"/>
      <point x="413" y="-120" type="curve" smooth="yes"/>
      <point x="413" y="-180"/>
      <point x="460" y="-216"/>
      <point x="522" y="-216" type="curve" smooth="yes"/>
      <point x="565" y="-216"/>
      <point x="624" y="-205"/>
      <point x="624" y="-205" type="curve"/>
      <point x="612" y="-110" type="line"/>
      <point x="612" y="-110"/>
      <point x="577" y="-114"/>
      <point x="570" y="-114" type="curve" smooth="yes"/>
      <point x="552" y="-114"/>
      <point x="538" y="-103"/>
      <point x="538" y="-86" type="curve" smooth="yes"/>
      <point x="538" y="-60"/>
      <point x="595" y="0"/>
      <point x="595" y="0" type="curve"/>
      <point x="428" y="710" type="line"/>
    </contour>
  </outline>
</glyph>
<glyph name="aogonek" format="2">
  <advance width="515"/>
  <unicode hex="0105"/>
  <note>
aogonek
</note>
  <anchor x="263" y="0" name="bottom"/>
  <anchor x="471" y="0" name="ogonek"/>
  <anchor x="248" y="510" name="top"/>
  <outline>
    <contour>
      <point x="447" y="134" type="curve" smooth="yes"/>
      <point x="447" y="358" type="line" smooth="yes"/>
      <point x="447" y="475"/>
      <point x="395" y="526"/>
      <point x="265" y="526" type="curve" smooth="yes"/>
      <point x="169" y="526"/>
      <point x="62" y="497"/>
      <point x="62" y="497" type="curve"/>
      <point x="66" y="404" type="line"/>
      <point x="66" y="404"/>
      <point x="188" y="412"/>
      <point x="254" y="412" type="curve" smooth="yes"/>
      <point x="294" y="412"/>
      <point x="313" y="401"/>
      <point x="313" y="358" type="curve" smooth="yes"/>
      <point x="313" y="319" type="line"/>
      <point x="206" y="311" type="line" smooth="yes"/>
      <point x="96" y="303"/>
      <point x="31" y="271"/>
      <point x="31" y="152" type="curve" smooth="yes"/>
      <point x="31" y="44"/>
      <point x="81" y="-14"/>
      <point x="186" y="-14" type="curve" smooth="yes"/>
      <point x="261" y="-14"/>
      <point x="333" y="21"/>
      <point x="333" y="21" type="curve"/>
      <point x="343" y="14"/>
      <point x="353" y="9"/>
      <point x="363" y="4" type="curve"/>
      <point x="343" y="-16"/>
      <point x="289" y="-73"/>
      <point x="289" y="-120" type="curve" smooth="yes"/>
      <point x="289" y="-180"/>
      <point x="336" y="-216"/>
      <point x="398" y="-216" type="curve" smooth="yes"/>
      <point x="441" y="-216"/>
      <point x="500" y="-205"/>
      <point x="500" y="-205" type="curve"/>
      <point x="488" y="-110" type="line"/>
      <point x="488" y="-110"/>
      <point x="453" y="-114"/>
      <point x="446" y="-114" type="curve" smooth="yes"/>
      <point x="428" y="-114"/>
      <point x="414" y="-103"/>
      <point x="414" y="-86" type="curve" smooth="yes"/>
      <point x="414" y="-68"/>
      <point x="442" y="-33"/>
      <point x="459" y="-14" type="curve"/>
      <point x="476" y="-14" type="line"/>
      <point x="480" y="87" type="line"/>
      <point x="453" y="92"/>
      <point x="447" y="104"/>
    </contour>
    <contour>
      <point x="166" y="156" type="curve" smooth="yes"/>
      <point x="166" y="198"/>
      <point x="187" y="215"/>
      <point x="222" y="218" type="curve" smooth="yes"/>
      <point x="313" y="226" type="line"/>
      <point x="313" y="111" type="line"/>
      <point x="313" y="111"/>
      <point x="258" y="95"/>
      <point x="215" y="95" type="curve" smooth="yes"/>
      <point x="179" y="95"/>
      <point x="166" y="119"/>
    </contour>
  </outline>
</glyph>
<glyph name="cacute" format="2">
  <advance width="451"/>
  <unicode hex="0107"/>
  <note>
cacute
</note>
  <anchor x="241" y="0" name="bottom"/>
  <anchor x="273" y="753" name="top"/>
  <outline>
    <contour>
      <point x="253" y="526" type="curve" smooth="yes"/>
      <point x="104" y="526"/>
      <point x="40" y="446"/>
      <point x="40" y="255" type="curve" smooth="yes"/>
      <point x="40" y="65"/>
      <point x="101" y="-14"/>
      <point x="250" y="-14" type="curve" smooth="yes"/>
      <point x="306" y="-14"/>
      <point x="413" y="7"/>
      <point x="413" y="7" type="curve"/>
      <point x="409" y="114" type="line"/>
      <point x="409" y="114"/>
      <point x="331" y="106"/>
      <point x="293" y="106" type="curve" smooth="yes"/>
      <point x="197" y="106"/>
      <point x="178" y="141"/>
      <point x="178" y="255" type="curve" smooth="yes"/>
      <point x="178" y="369"/>
      <point x="196" y="406"/>
      <point x="292" y="406" type="curve" smooth="yes"/>
      <point x="330" y="406"/>
      <point x="409" y="398"/>
      <point x="409" y="398" type="curve"/>
      <point x="413" y="504" type="line"/>
      <point x="413" y="504"/>
      <point x="311" y="526"/>
    </contour>
    <contour>
      <point x="388" y="753" type="line"/>
      <point x="120" y="651" type="line"/>
      <point x="148" y="564" type="line"/>
      <point x="426" y="638" type="line"/>
    </contour>
  </outline>
</glyph>
<glyph name="ccircumflex" format="2">
  <advance width="451"/>
  <unicode hex="0109"/>
  <note>
ccircumflex
</note>
  <anchor x="241" y="0" name="bottom"/>
  <anchor x="248" y="753" name="top"/>
  <outline>
    <contour>
      <point x="253" y="526" type="curve" smooth="yes"/>
      <point x="104" y="526"/>
      <point x="40" y="446"/>
      <point x="40" y="255" type="curve" smooth="yes"/>
      <point x="40" y="65"/>
      <point x="101" y="-14"/>
      <point x="250" y="-14" type="curve" smooth="yes"/>
      <point x="306" y="-14"/>
      <point x="413" y="7"/>
      <point x="413" y="7" type="curve"/>
      <point x="409" y="114" type="line"/>
      <point x="409" y="114"/>
      <point x="331" y="106"/>
      <point x="293" y="106" type="curve" smooth="yes"/>
      <point x="197" y="106"/>
      <point x="178" y="141"/>
      <point x="178" y="255" type="curve" smooth="yes"/>
      <point x="178" y="369"/>
      <point x="196" y="406"/>
      <point x="292" y="406" type="curve" smooth="yes"/>
      <point x="330" y="406"/>
      <point x="409" y="398"/>
      <point x="409" y="398" type="curve"/>
      <point x="413" y="504" type="line"/>
      <point x="413" y="504"/>
      <point x="311" y="526"/>
    </contour>
    <contour>
      <point x="190" y="746" type="line"/>
      <point x="59" y="569" type="line"/>
      <point x="179" y="569" type="line"/>
      <point x="248" y="667" type="line"/>
      <point x="317" y="569" type="line"/>
      <point x="437" y="569" type="line"/>
      <point x="306" y="746" type="line"/>
    </contour>
  </outline>
</glyph>
<glyph name="Ccaron" format="2">
  <advance width="545"/>
  <unicode hex="010C"/>
  <note>
Ccaron
</note>
  <anchor x="325" y="0" name="bottom"/>
  <anchor x="325" y="943" name="top"/>
  <outline>
    <contour>
      <point x="513" y="9" type="curve"/>
      <point x="510" y="122" type="line"/>
      <point x="470" y="116"/>
      <point x="385" y="108"/>
      <point x="332" y="108" type="curve" smooth="yes"/>
      <point x="214" y="108"/>
      <point x="190" y="159"/>
      <point x="190" y="344" type="curve" smooth="yes"/>
      <point x="190" y="571"/>
      <point x="224" y="604"/>
      <point x="325" y="604" type="curve" smooth="yes"/>
      <point x="374" y="604"/>
      <point x="457" y="596"/>
      <point x="503" y="589" type="curve"/>
      <point x="507" y="699" type="line"/>
      <point x="465" y="709"/>
      <point x="382" y="726"/>
      <point x="302" y="726" type="curve" smooth="yes"/>
      <point x="109" y="726"/>
      <point x="48" y="626"/>
      <point x="48" y="344" type="curve" smooth="yes"/>
      <point x="48" y="94"/>
      <point x="103" y="-14"/>
      <point x="305" y="-14" type="curve" smooth="yes"/>
      <point x="382" y="-14"/>
      <point x="467" y="-1"/>
    </contour>
    <contour>
      <point x="256" y="946" type="line"/>
      <point x="136" y="946" type="line"/>
      <point x="267" y="769" type="line"/>
      <point x="383" y="769" type="line"/>
      <point x="514" y="946" type="line"/>
      <point x="394" y="946" type="line"/>
      <point x="325" y="848" type="line"/>
    </contour>
  </outline>
</glyph>
<glyph name="Dcaron" format="2">
  <advance width="641"/>
  <unicode hex="010E"/>
  <note>
Dcaron
</note>
  <anchor x="303" y="0" name="bottom"/>
  <anchor x="139" y="354" name="center"/>
  <anchor x="303" y="943" name="top"/>
  <outline>
    <contour>
      <point x="72" y="710" type="line"/>
      <point x="72" y="0" type="line"/>
      <point x="302" y="0" type="line" smooth="yes"/>
      <point x="542" y="0"/>
      <point x="594" y="130"/>
      <point x="594" y="361" type="curve" smooth="yes"/>
      <point x="594" y="618"/>
      <point x="529" y="710"/>
      <point x="296" y="710" type="curve" smooth="yes"/>
    </contour>
    <contour>
      <point x="234" y="946" type="line"/>
      <point x="114" y="946" type="line"/>
      <point x="245" y="769" type="line"/>
      <point x="361" y="769" type="line"/>
      <point x="492" y="946" type="line"/>
      <point x="372" y="946" type="line"/>
      <point x="303" y="848" type="line"/>
    </contour>
    <contour>
      <point x="301" y="120" type="curve" smooth="yes"/>
      <point x="210" y="120" type="line"/>
      <point x="210" y="590" type="line"/>
      <point x="301" y="590" type="line" smooth="yes"/>
      <point x="415" y="590"/>
      <point x="452" y="552"/>
      <point x="452" y="361" type="curve" smooth="yes"/>
      <point x="452" y="182"/>
      <point x="415" y="120"/>
    </contour>
  </outline>
</glyph>
<glyph name="Emacron" format="2">
  <advance width="556"/>
  <unicode hex="0112"/>
  <note>
Emacron
</note>
  <anchor x="294" y="0" name="bottom"/>
  <anchor x="472" y="0" name="ogonek"/>
  <anchor x="294" y="887" name="top"/>
  <outline>
    <contour>
      <point x="512" y="710" type="line"/>
      <point x="72" y="710" type="line"/>
      <point x="72" y="0" type="line"/>
      <point x="512" y="0" type="line"/>
      <point x="512" y="120" type="line"/>
      <point x="210" y="120" type="line"/>
      <point x="210" y="299" type="line"/>
      <point x="452" y="299" type="line"/>
      <point x="452" y="417" type="line"/>
      <point x="210" y="417" type="line"/>
      <point x="210" y="590" type="line"/>
      <point x="512" y="590" type="line"/>
    </contour>
    <contour>
      <point x="150" y="887" type="line"/>
      <point x="150" y="787" type="line"/>
      <point x="437" y="787" type="line"/>
      <point x="437" y="887" type="line"/>
    </contour>
  </outline>
</glyph>
<glyph name="Ebreve" format="2">
  <advance width="556"/>
  <unicode hex="0114"/>
  <note>
Ebreve
</note>
  <anchor x="294" y="0" name="bottom"/>
  <anchor x="472" y="0" name="ogonek"/>
  <anchor x="294" y="920" name="top"/>
  <outline>
    <contour>
      <point x="512" y="710" type="line"/>
      <point x="72" y="710" type="line"/>
      <point x="72" y="0" type="line"/>
      <point x="512" y="0" type="line"/>
      <point x="512" y="120" type="line"/>
      <point x="210" y="120" type="line"/>
      <point x="210" y="299" type="line"/>
      <point x="452" y="299" type="line"/>
      <point x="452" y="417" type="line"/>
      <point x="210" y="417" type="line"/>
      <point x="210" y="590" type="line"/>
      <point x="512" y="590" type="line"/>
    </contour>
    <contour>
      <point x="225" y="929" type="curve"/>
      <point x="125" y="929" type="line"/>
      <point x="128" y="839"/>
      <point x="178" y="763"/>
      <point x="294" y="763" type="curve" smooth="yes"/>
      <point x="410" y="763"/>
      <point x="460" y="839"/>
      <point x="463" y="929" type="curve"/>
      <point x="363" y="929" type="line"/>
      <point x="361" y="880"/>
      <point x="339" y="853"/>
      <point x="294" y="853" type="curve" smooth="yes"/>
      <point x="249" y="853"/>
      <point x="227" y="880"/>
    </contour>
  </outline>
</glyph>
<glyph name="Edotaccent" format="2">
  <advance width="556"/>
  <unicode hex="0116"/>
  <note>
Edotaccent
</note>
  <anchor x="294" y="0" name="bottom"/>
  <anchor x="472" y="0" name="ogonek"/>
  <anchor x="294" y="920" name="top"/>
  <outline>
    <contour>
      <point x="512" y="710" type="line"/>
      <point x="72" y="710" type="line"/>
      <point x="72" y="0" type="line"/>
      <point x="512" y="0" type="line"/>
      <point x="512" y="120" type="line"/>
      <point x="210" y="120" type="line"/>
      <point x="210" y="299" type="line"/>
      <point x="452" y="299" type="line"/>
      <point x="452" y="417" type="line"/>
      <point x="210" y="417" type="line"/>
      <point x="210" y="590" type="line"/>
      <point x="512" y="590" type="line"/>
    </contour>
    <contour>
      <point x="227" y="920" type="line"/>
      <point x="227" y="777" type="line"/>
      <point x="361" y="777" type="line"/>
      <point x="361" y="920" type="line"/>
    </contour>
  </outline>
</glyph>
<glyph name="Eogonek" format="2">
  <advance width="556"/>
  <unicode hex="0118"/>
  <note>
Eogonek
</note>
  <anchor x="294" y="0" name="bottom"/>
  <anchor x="472" y="0" name="ogonek"/>
  <anchor x="294" y="710" name="top"/>
  <outline>
    <contour>
      <point x="512" y="710" type="line"/>
      <point x="72" y="710" type="line"/>
      <point x="72" y="0" type="line"/>
      <point x="360" y="0" type="line"/>
      <point x="338" y="-23"/>
      <point x="290" y="-76"/>
      <point x="290" y="-120" type="curve" smooth="yes"/>
      <point x="290" y="-180"/>
      <point x="337" y="-216"/>
      <point x="399" y="-216" type="curve" smooth="yes"/>
      <point x="442" y="-216"/>
      <point x="501" y="-205"/>
      <point x="501" y="-205" type="curve"/>
      <point x="489" y="-110" type="line"/>
      <point x="489" y="-110"/>
      <point x="454" y="-114"/>
      <point x="447" y="-114" type="curve" smooth="yes"/>
      <point x="429" y="-114"/>
      <point x="415" y="-103"/>
      <point x="415" y="-86" type="curve" smooth="yes"/>
      <point x="415" y="-60"/>
      <point x="472" y="0"/>
      <point x="472" y="0" type="curve"/>
      <point x="512" y="0" type="line"/>
      <point x="512" y="120" type="line"/>
      <point x="210" y="120" type="line"/>
      <point x="210" y="299" type="line"/>
      <point x="452" y="299" type="line"/>
      <point x="452" y="417" type="line"/>
      <point x="210" y="417" type="line"/>
      <point x="210" y="590" type="line"/>
      <point x="512" y="590" type="line"/>
    </contour>
  </outline>
</glyph>
<glyph name="eogonek" format="2">
  <advance width="514"/>
  <unicode hex="0119"/>
  <note>
eogonek
</note>
  <anchor x="257" y="0" name="bottom"/>
  <anchor x="391" y="0" name="ogonek"/>
  <anchor x="272" y="510" name="top"/>
  <outline>
    <contour>
      <point x="460" y="103" type="line"/>
      <point x="285" y="104" type="line" smooth="yes"/>
      <point x="183" y="104"/>
      <point x="175" y="129"/>
      <point x="174" y="209" type="curve"/>
      <point x="468" y="209" type="line"/>
      <point x="478" y="302" type="line"/>
      <point x="478" y="451"/>
      <point x="405" y="526"/>
      <point x="265" y="526" type="curve" smooth="yes"/>
      <point x="112" y="526"/>
      <point x="39" y="439"/>
      <point x="39" y="256" type="curve" smooth="yes"/>
      <point x="39" y="63"/>
      <point x="103" y="-14"/>
      <point x="254" y="-14" type="curve" smooth="yes"/>
      <point x="260" y="-14" type="line"/>
      <point x="236" y="-41"/>
      <point x="203" y="-84"/>
      <point x="203" y="-120" type="curve" smooth="yes"/>
      <point x="203" y="-180"/>
      <point x="250" y="-216"/>
      <point x="312" y="-216" type="curve" smooth="yes"/>
      <point x="355" y="-216"/>
      <point x="414" y="-205"/>
      <point x="414" y="-205" type="curve"/>
      <point x="402" y="-110" type="line"/>
      <point x="402" y="-110"/>
      <point x="367" y="-114"/>
      <point x="360" y="-114" type="curve" smooth="yes"/>
      <point x="342" y="-114"/>
      <point x="328" y="-103"/>
      <point x="328" y="-86" type="curve" smooth="yes"/>
      <point x="328" y="-65"/>
      <point x="364" y="-23"/>
      <point x="379" y="-6" type="curve"/>
      <point x="427" y="-2"/>
      <point x="462" y="4"/>
      <point x="462" y="4" type="curve"/>
    </contour>
    <contour>
      <point x="346" y="311" type="curve"/>
      <point x="173" y="311" type="line"/>
      <point x="174" y="385"/>
      <point x="196" y="416"/>
      <point x="260" y="416" type="curve" smooth="yes"/>
      <point x="323" y="416"/>
      <point x="346" y="390"/>
    </contour>
  </outline>
</glyph>
<glyph name="Ecaron" format="2">
  <advance width="556"/>
  <unicode hex="011A"/>
  <note>
Ecaron
</note>
  <anchor x="294" y="0" name="bottom"/>
  <anchor x="472" y="0" name="ogonek"/>
  <anchor x="294" y="943" name="top"/>
  <outline>
    <contour>
      <point x="512" y="710" type="line"/>
      <point x="72" y="710" type="line"/>
      <point x="72" y="0" type="line"/>
      <point x="512" y="0" type="line"/>
      <point x="512" y="120" type="line"/>
      <point x="210" y="120" type="line"/>
      <point x="210" y="299" type="line"/>
      <point x="452" y="299" type="line"/>
      <point x="452" y="417" type="line"/>
      <point x="210" y="417" type="line"/>
      <point x="210" y="590" type="line"/>
      <point x="512" y="590" type="line"/>
    </contour>
    <contour>
      <point x="225" y="946" type="line"/>
      <point x="105" y="946" type="line"/>
      <point x="236" y="769" type="line"/>
      <point x="352" y="769" type="line"/>
      <point x="483" y="946" type="line"/>
      <point x="363" y="946" type="line"/>
      <point x="294" y="848" type="line"/>
    </contour>
  </outline>
</glyph>
<glyph name="Hcircumflex" format="2">
  <advance width="677"/>
  <unicode hex="0124"/>
  <note>
Hcircumflex
</note>
  <anchor x="338" y="0" name="bottom"/>
  <anchor x="339" y="567" name="center"/>
  <anchor x="338" y="936" name="top"/>
  <outline>
    <contour>
      <point x="210" y="299" type="line"/>
      <point x="467" y="299" type="line"/>
      <point x="467" y="0" type="line"/>
      <point x="605" y="0" type="line"/>
      <point x="605" y="710" type="line"/>
      <point x="467" y="710" type="line"/>
      <point x="467" y="419" type="line"/>
      <point x="210" y="419" type="line"/>
      <point x="210" y="710" type="line"/>
      <point x="72" y="710" type="line"/>
      <point x="72" y="0" type="line"/>
      <point x="210" y="0" type="line"/>
    </contour>
    <contour>
      <point x="280" y="946" type="line"/>
      <point x="149" y="769" type="line"/>
      <point x="269" y="769" type="line"/>
      <point x="338" y="867" type="line"/>
      <point x="407" y="769" type="line"/>
      <point x="527" y="769" type="line"/>
      <point x="396" y="946" type="line"/>
    </contour>
  </outline>
</glyph>
<glyph name="Hbar" format="2">
  <advance width="723"/>
  <unicode hex="0126"/>
  <note>
Hbar
</note>
  <anchor x="361" y="0" name="bottom"/>
  <anchor x="362" y="567" name="center"/>
  <anchor x="361" y="710" name="top"/>
  <outline>
    <contour>
      <point x="233" y="299" type="line"/>
      <point x="490" y="299" type="line"/>
      <point x="490" y="0" type="line"/>
      <point x="628" y="0" type="line"/>
      <point x="628" y="512" type="line"/>
      <point x="690" y="512" type="line"/>
      <point x="690" y="622" type="line"/>
      <point x="628" y="622" type="line"/>
      <point x="628" y="710" type="line"/>
      <point x="490" y="710" type="line"/>
      <point x="490" y="622" type="line"/>
      <point x="233" y="622" type="line"/>
      <point x="233" y="710" type="line"/>
      <point x="95" y="710" type="line"/>
      <point x="95" y="622" type="line"/>
      <point x="33" y="622" type="line"/>
      <point x="33" y="512" type="line"/>
      <point x="95" y="512" type="line"/>
      <point x="95" y="0" type="line"/>
      <point x="233" y="0" type="line"/>
    </contour>
    <contour>
      <point x="490" y="419" type="line"/>
      <point x="233" y="419" type="line"/>
      <point x="233" y="512" type="line"/>
      <point x="490" y="512" type="line"/>
    </contour>
  </outline>
</glyph>
<glyph name="hbar" format="2">
  <advance width="553"/>
  <unicode hex="0127"/>
  <note>
hbar
</note>
  <anchor x="276" y="0" name="bottom"/>
  <anchor x="204" y="633" name="center"/>
  <anchor x="130" y="730" name="top"/>
  <outline>
    <contour>
      <point x="62" y="576" type="line"/>
      <point x="62" y="0" type="line"/>
      <point x="196" y="0" type="line"/>
      <point x="196" y="390" type="line"/>
      <point x="196" y="390"/>
      <point x="243" y="406"/>
      <point x="287" y="406" type="curve" smooth="yes"/>
      <point x="352" y="406"/>
      <point x="362" y="357"/>
      <point x="362" y="282" type="curve" smooth="yes"/>
      <point x="362" y="0" type="line"/>
      <point x="496" y="0" type="line"/>
      <point x="496" y="285" type="line" smooth="yes"/>
      <point x="496" y="438"/>
      <point x="460" y="526"/>
      <point x="320" y="526" type="curve" smooth="yes"/>
      <point x="265" y="526"/>
      <point x="196" y="490"/>
      <point x="196" y="490" type="curve"/>
      <point x="196" y="576" type="line"/>
      <point x="348" y="576" type="line"/>
      <point x="348" y="690" type="line"/>
      <point x="196" y="690" type="line"/>
      <point x="196" y="730" type="line"/>
      <point x="62" y="730" type="line"/>
      <point x="62" y="690" type="line"/>
      <point x="-18" y="690" type="line"/>
      <point x="-18" y="576" type="line"/>
    </contour>
  </outline>
</glyph>
<glyph name="Itilde" format="2">
  <advance width="282"/>
  <unicode hex="0128"/>
  <note>
Itilde
</note>
  <anchor x="140" y="0" name="bottom"/>
  <anchor x="140" y="353" name="center"/>
  <anchor x="210" y="0" name="ogonek"/>
  <anchor x="140" y="920" name="top"/>
  <outline>
    <contour>
      <point x="210" y="710" type="line"/>
      <point x="72" y="710" type="line"/>
      <point x="72" y="0" type="line"/>
      <point x="210" y="0" type="line"/>
    </contour>
    <contour>
      <point x="-50" y="855" type="curve"/>
      <point x="-6" y="785" type="line"/>
      <point x="-6" y="785"/>
      <point x="43" y="816"/>
      <point x="71" y="816" type="curve" smooth="yes"/>
      <point x="104" y="816"/>
      <point x="168" y="780"/>
      <point x="210" y="780" type="curve" smooth="yes"/>
      <point x="262" y="780"/>
      <point x="330" y="848"/>
      <point x="330" y="848" type="curve"/>
      <point x="286" y="918" type="line"/>
      <point x="286" y="918"/>
      <point x="232" y="884"/>
      <point x="206" y="884" type="curve" smooth="yes"/>
      <point x="178" y="884"/>
      <point x="110" y="920"/>
      <point x="69" y="920" type="curve" smooth="yes"/>
      <point x="17" y="920"/>
      <point x="-50" y="855"/>
    </contour>
  </outline>
</glyph>
<glyph name="itilde" format="2">
  <advance width="258"/>
  <unicode hex="0129"/>
  <note>
itilde
</note>
  <anchor x="129" y="0" name="bottom"/>
  <anchor x="196" y="0" name="ogonek"/>
  <anchor x="129" y="725" name="top"/>
  <outline>
    <contour>
      <point x="196" y="510" type="line"/>
      <point x="62" y="510" type="line"/>
      <point x="62" y="0" type="line"/>
      <point x="196" y="0" type="line"/>
    </contour>
    <contour>
      <point x="-61" y="650" type="curve"/>
      <point x="-17" y="580" type="line"/>
      <point x="-17" y="580"/>
      <point x="32" y="611"/>
      <point x="60" y="611" type="curve" smooth="yes"/>
      <point x="93" y="611"/>
      <point x="157" y="575"/>
      <point x="199" y="575" type="curve" smooth="yes"/>
      <point x="251" y="575"/>
      <point x="319" y="643"/>
      <point x="319" y="643" type="curve"/>
      <point x="275" y="713" type="line"/>
      <point x="275" y="713"/>
      <point x="221" y="679"/>
      <point x="195" y="679" type="curve" smooth="yes"/>
      <point x="167" y="679"/>
      <point x="99" y="715"/>
      <point x="58" y="715" type="curve" smooth="yes"/>
      <point x="6" y="715"/>
      <point x="-61" y="650"/>
    </contour>
  </outline>
</glyph>
<glyph name="Imacron" format="2">
  <advance width="282"/>
  <unicode hex="012A"/>
  <note>
Imacron
</note>
  <anchor x="140" y="0" name="bottom"/>
  <anchor x="140" y="353" name="center"/>
  <anchor x="210" y="0" name="ogonek"/>
  <anchor x="140" y="887" name="top"/>
  <outline>
    <contour>
      <point x="210" y="710" type="line"/>
      <point x="72" y="710" type="line"/>
      <point x="72" y="0" type="line"/>
      <point x="210" y="0" type="line"/>
    </contour>
    <contour>
      <point x="-4" y="887" type="line"/>
      <point x="-4" y="787" type="line"/>
      <point x="283" y="787" type="line"/>
      <point x="283" y="887" type="line"/>
    </contour>
  </outline>
</glyph>
<glyph name="imacron" format="2">
  <advance width="258"/>
  <unicode hex="012B"/>
  <note>
imacron
</note>
  <anchor x="129" y="0" name="bottom"/>
  <anchor x="196" y="0" name="ogonek"/>
  <anchor x="129" y="687" name="top"/>
  <outline>
    <contour>
      <point x="196" y="510" type="line"/>
      <point x="62" y="510" type="line"/>
      <point x="62" y="0" type="line"/>
      <point x="196" y="0" type="line"/>
    </contour>
    <contour>
      <point x="-15" y="687" type="line"/>
      <point x="-15" y="587" type="line"/>
      <point x="272" y="587" type="line"/>
      <point x="272" y="687" type="line"/>
    </contour>
  </outline>
</glyph>
<glyph name="Ibreve" format="2">
  <advance width="282"/>
  <unicode hex="012C"/>
  <note>
Ibreve
</note>
  <anchor x="140" y="0" name="bottom"/>
  <anchor x="140" y="353" name="center"/>
  <anchor x="210" y="0" name="ogonek"/>
  <anchor x="140" y="920" name="top"/>
  <outline>
    <contour>
      <point x="210" y="710" type="line"/>
      <point x="72" y="710" type="line"/>
      <point x="72" y="0" type="line"/>
      <point x="210" y="0" type="line"/>
    </contour>
    <contour>
      <point x="71" y="929" type="curve"/>
      <point x="-29" y="929" type="line"/>
      <point x="-26" y="839"/>
      <point x="24" y="763"/>
      <point x="140" y="763" type="curve" smooth="yes"/>
      <point x="256" y="763"/>
      <point x="306" y="839"/>
      <point x="309" y="929" type="curve"/>
      <point x="209" y="929" type="line"/>
      <point x="207" y="880"/>
      <point x="185" y="853"/>
      <point x="140" y="853" type="curve" smooth="yes"/>
      <point x="95" y="853"/>
      <point x="73" y="880"/>
    </contour>
  </outline>
</glyph>
<glyph name="ibreve" format="2">
  <advance width="258"/>
  <unicode hex="012D"/>
  <note>
ibreve
</note>
  <anchor x="129" y="0" name="bottom"/>
  <anchor x="196" y="0" name="ogonek"/>
  <anchor x="129" y="730" name="top"/>
  <outline>
    <contour>
      <point x="196" y="510" type="line"/>
      <point x="62" y="510" type="line"/>
      <point x="62" y="0" type="line"/>
      <point x="196" y="0" type="line"/>
    </contour>
    <contour>
      <point x="60" y="730" type="curve"/>
      <point x="-40" y="730" type="line"/>
      <point x="-37" y="640"/>
      <point x="13" y="564"/>
      <point x="129" y="564" type="curve" smooth="yes"/>
      <point x="245" y="564"/>
      <point x="295" y="640"/>
      <point x="298" y="730" type="curve"/>
      <point x="198" y="730" type="line"/>
      <point x="196" y="681"/>
      <point x="174" y="654"/>
      <point x="129" y="654" type="curve" smooth="yes"/>
      <point x="84" y="654"/>
      <point x="62" y="681"/>
    </contour>
  </outline>
</glyph>
<glyph name="Iogonek" format="2">
  <advance width="282"/>
  <unicode hex="012E"/>
  <note>
Iogonek
</note>
  <anchor x="140" y="0" name="bottom"/>
  <anchor x="140" y="353" name="center"/>
  <anchor x="210" y="0" name="ogonek"/>
  <anchor x="140" y="710" name="top"/>
  <outline>
    <contour>
      <point x="210" y="710" type="line"/>
      <point x="72" y="710" type="line"/>
      <point x="72" y="0" type="line"/>
      <point x="98" y="0" type="line"/>
      <point x="76" y="-23"/>
      <point x="28" y="-76"/>
      <point x="28" y="-120" type="curve" smooth="yes"/>
      <point x="28" y="-180"/>
      <point x="75" y="-216"/>
      <point x="137" y="-216" type="curve" smooth="yes"/>
      <point x="180" y="-216"/>
      <point x="239" y="-205"/>
      <point x="239" y="-205" type="curve"/>
      <point x="227" y="-110" type="line"/>
      <point x="227" y="-110"/>
      <point x="192" y="-114"/>
      <point x="185" y="-114" type="curve" smooth="yes"/>
      <point x="167" y="-114"/>
      <point x="153" y="-103"/>
      <point x="153" y="-86" type="curve" smooth="yes"/>
      <point x="153" y="-60"/>
      <point x="210" y="0"/>
      <point x="210" y="0" type="curve"/>
    </contour>
  </outline>
</glyph>
<glyph name="iogonek" format="2">
  <advance width="258"/>
  <unicode hex="012F"/>
  <note>
iogonek
</note>
  <anchor x="129" y="0" name="bottom"/>
  <anchor x="196" y="0" name="ogonek"/>
  <anchor x="129" y="700" name="top"/>
  <outline>
    <contour>
      <point x="196" y="510" type="line"/>
      <point x="62" y="510" type="line"/>
      <point x="62" y="0" type="line"/>
      <point x="84" y="0" type="line"/>
      <point x="62" y="-23"/>
      <point x="14" y="-76"/>
      <point x="14" y="-120" type="curve" smooth="yes"/>
      <point x="14" y="-180"/>
      <point x="61" y="-216"/>
      <point x="123" y="-216" type="curve" smooth="yes"/>
      <point x="166" y="-216"/>
      <point x="225" y="-205"/>
      <point x="225" y="-205" type="curve"/>
      <point x="213" y="-110" type="line"/>
      <point x="213" y="-110"/>
      <point x="178" y="-114"/>
      <point x="171" y="-114" type="curve" smooth="yes"/>
      <point x="153" y="-114"/>
      <point x="139" y="-103"/>
      <point x="139" y="-86" type="curve" smooth="yes"/>
      <point x="139" y="-60"/>
      <point x="196" y="0"/>
      <point x="196" y="0" type="curve"/>
    </contour>
    <contour>
      <point x="62" y="700" type="line"/>
      <point x="62" y="564" type="line"/>
      <point x="196" y="564" type="line"/>
      <point x="196" y="700" type="line"/>
    </contour>
  </outline>
</glyph>
<glyph name="Idotaccent" format="2">
  <advance width="282"/>
  <unicode hex="0130"/>
  <note>
Idotaccent
</note>
  <anchor x="140" y="0" name="bottom"/>
  <anchor x="140" y="353" name="center"/>
  <anchor x="210" y="0" name="ogonek"/>
  <anchor x="140" y="920" name="top"/>
  <outline>
    <contour>
      <point x="210" y="710" type="line"/>
      <point x="72" y="710" type="line"/>
      <point x="72" y="0" type="line"/>
      <point x="210" y="0" type="line"/>
    </contour>
    <contour>
      <point x="73" y="920" type="line"/>
      <point x="73" y="777" type="line"/>
      <point x="207" y="777" type="line"/>
      <point x="207" y="920" type="line"/>
    </contour>
  </outline>
</glyph>
<glyph name="IJ" format="2">
  <advance width="582"/>
  <unicode hex="0132"/>
  <note>
IJ
</note>
  <anchor x="425" y="0" name="bottom"/>
  <anchor x="140" y="353" name="center"/>
  <anchor x="210" y="0" name="ogonek"/>
  <anchor x="441" y="710" name="top"/>
  <outline>
    <contour>
      <point x="210" y="710" type="line"/>
      <point x="72" y="710" type="line"/>
      <point x="72" y="0" type="line"/>
      <point x="210" y="0" type="line"/>
    </contour>
    <contour>
      <point x="299" y="106" type="curve"/>
      <point x="299" y="-14" type="line"/>
      <point x="449" y="-14"/>
      <point x="513" y="21"/>
      <point x="513" y="171" type="curve" smooth="yes"/>
      <point x="512" y="710" type="line"/>
      <point x="375" y="710" type="line"/>
      <point x="375" y="177" type="line" smooth="yes"/>
      <point x="375" y="120"/>
      <point x="349" y="106"/>
    </contour>
  </outline>
</glyph>
<glyph name="ij" format="2">
  <advance width="521"/>
  <unicode hex="0133"/>
  <note>
ij
</note>
  <anchor x="372" y="-230" name="bottom"/>
  <anchor x="196" y="0" name="ogonek"/>
  <anchor x="392" y="700" name="top"/>
  <outline>
    <contour>
      <point x="196" y="510" type="line"/>
      <point x="62" y="510" type="line"/>
      <point x="62" y="0" type="line"/>
      <point x="196" y="0" type="line"/>
    </contour>
    <contour>
      <point x="62" y="700" type="line"/>
      <point x="62" y="564" type="line"/>
      <point x="196" y="564" type="line"/>
      <point x="196" y="700" type="line"/>
    </contour>
    <contour>
      <point x="228" y="-141" type="curve"/>
      <point x="281" y="-240" type="line"/>
      <point x="420" y="-170"/>
      <point x="459" y="-126"/>
      <point x="459" y="13" type="curve" smooth="yes"/>
      <point x="459" y="510" type="line"/>
      <point x="325" y="510" type="line"/>
      <point x="325" y="14" type="line" smooth="yes"/>
      <point x="325" y="-71"/>
      <point x="310" y="-87"/>
    </contour>
    <contour>
      <point x="325" y="700" type="line"/>
      <point x="325" y="564" type="line"/>
      <point x="459" y="564" type="line"/>
      <point x="459" y="700" type="line"/>
    </contour>
  </outline>
</glyph>
<glyph name="Jcircumflex" format="2">
  <advance width="312"/>
  <unicode hex="0134"/>
  <note>
Jcircumflex
</note>
  <anchor x="155" y="0" name="bottom"/>
  <anchor x="171" y="936" name="top"/>
  <outline>
    <contour>
      <point x="243" y="171" type="curve" smooth="yes"/>
      <point x="242" y="710" type="line"/>
      <point x="105" y="710" type="line"/>
      <point x="105" y="177" type="line" smooth="yes"/>
      <point x="105" y="120"/>
      <point x="79" y="106"/>
      <point x="29" y="106" type="curve"/>
      <point x="29" y="-14" type="line"/>
      <point x="179" y="-14"/>
      <point x="243" y="21"/>
    </contour>
    <contour>
      <point x="113" y="946" type="line"/>
      <point x="-18" y="769" type="line"/>
      <point x="102" y="769" type="line"/>
      <point x="171" y="867" type="line"/>
      <point x="240" y="769" type="line"/>
      <point x="360" y="769" type="line"/>
      <point x="229" y="946" type="line"/>
    </contour>
  </outline>
</glyph>
<glyph name="jcircumflex" format="2">
  <advance width="258"/>
  <unicode hex="0135"/>
  <note>
jcircumflex
</note>
  <anchor x="109" y="-230" name="bottom"/>
  <anchor x="129" y="753" name="top"/>
  <outline>
    <contour>
      <point x="196" y="510" type="line"/>
      <point x="62" y="510" type="line"/>
      <point x="62" y="14" type="line" smooth="yes"/>
      <point x="62" y="-71"/>
      <point x="47" y="-87"/>
      <point x="-35" y="-141" type="curve"/>
      <point x="18" y="-240" type="line"/>
      <point x="157" y="-170"/>
      <point x="196" y="-126"/>
      <point x="196" y="13" type="curve" smooth="yes"/>
    </contour>
    <contour>
      <point x="71" y="746" type="line"/>
      <point x="-60" y="569" type="line"/>
      <point x="60" y="569" type="line"/>
      <point x="129" y="667" type="line"/>
      <point x="198" y="569" type="line"/>
      <point x="318" y="569" type="line"/>
      <point x="187" y="746" type="line"/>
    </contour>
  </outline>
</glyph>
<glyph name="uni0136" format="2">
  <advance width="590"/>
  <unicode hex="0136"/>
  <note>
uni0136
</note>
  <anchor x="264" y="-265" name="bottom"/>
  <anchor x="300" y="710" name="top"/>
  <outline>
    <contour>
      <point x="210" y="277" type="line"/>
      <point x="292" y="287" type="line"/>
      <point x="420" y="0" type="line"/>
      <point x="575" y="0" type="line"/>
      <point x="413" y="355" type="line"/>
      <point x="571" y="710" type="line"/>
      <point x="419" y="710" type="line"/>
      <point x="292" y="407" type="line"/>
      <point x="210" y="397" type="line"/>
      <point x="210" y="710" type="line"/>
      <point x="72" y="710" type="line"/>
      <point x="72" y="0" type="line"/>
      <point x="210" y="0" type="line"/>
    </contour>
    <contour>
      <point x="284" y="-69" type="line"/>
      <point x="193" y="-239" type="line"/>
      <point x="266" y="-282" type="line"/>
      <point x="375" y="-125" type="line"/>
    </contour>
  </outline>
</glyph>
<glyph name="uni0137" format="2">
  <advance width="512"/>
  <unicode hex="0137"/>
  <note>
uni0137
</note>
  <anchor x="235" y="-265" name="bottom"/>
  <anchor x="128" y="730" name="top"/>
  <outline>
    <contour>
      <point x="62" y="730" type="line"/>
      <point x="62" y="0" type="line"/>
      <point x="196" y="0" type="line"/>
      <point x="196" y="213" type="line"/>
      <point x="251" y="222" type="line"/>
      <point x="352" y="0" type="line"/>
      <point x="503" y="0" type="line"/>
      <point x="366" y="290" type="line"/>
      <point x="496" y="510" type="line"/>
      <point x="346" y="510" type="line"/>
      <point x="247" y="338" type="line"/>
      <point x="196" y="329" type="line"/>
      <point x="196" y="730" type="line"/>
    </contour>
    <contour>
      <point x="255" y="-69" type="line"/>
      <point x="164" y="-239" type="line"/>
      <point x="237" y="-282" type="line"/>
      <point x="346" y="-125" type="line"/>
    </contour>
  </outline>
</glyph>
<glyph name="Lacute" format="2">
  <advance width="492"/>
  <unicode hex="0139"/>
  <note>
Lacute
</note>
  <anchor x="272" y="0" name="bottom"/>
  <anchor x="142" y="350" name="center"/>
  <anchor x="144" y="943" name="top"/>
  <anchor x="300" y="710" name="topright"/>
  <outline>
    <contour>
      <point x="72" y="710" type="line"/>
      <point x="72" y="0" type="line"/>
      <point x="479" y="0" type="line"/>
      <point x="479" y="122" type="line"/>
      <point x="210" y="122" type="line"/>
      <point x="210" y="710" type="line"/>
    </contour>
    <contour>
      <point x="259" y="952" type="line"/>
      <point x="-9" y="850" type="line"/>
      <point x="19" y="763" type="line"/>
      <point x="297" y="837" type="line"/>
    </contour>
  </outline>
</glyph>
<glyph name="lacute" format="2">
  <advance width="302"/>
  <unicode hex="013A"/>
  <note>
lacute
</note>
  <anchor x="183" y="0" name="bottom"/>
  <anchor x="154" y="365" name="center"/>
  <anchor x="125" y="963" name="top"/>
  <anchor x="222" y="730" name="topright"/>
  <outline>
    <contour>
      <point x="193" y="177" type="curve" smooth="yes"/>
      <point x="193" y="730" type="line"/>
      <point x="59" y="730" type="line"/>
      <point x="59" y="144" type="line" smooth="yes"/>
      <point x="59" y="32"/>
      <point x="94" y="-14"/>
      <point x="205" y="-14" type="curve" smooth="yes"/>
      <point x="240" y="-14"/>
      <point x="286" y="1"/>
      <point x="286" y="1" type="curve"/>
      <point x="280" y="106" type="line"/>
      <point x="280" y="106"/>
      <point x="254" y="104"/>
      <point x="226" y="104" type="curve" smooth="yes"/>
      <point x="194" y="104"/>
      <point x="193" y="127"/>
    </contour>
    <contour>
      <point x="240" y="972" type="line"/>
      <point x="-28" y="870" type="line"/>
      <point x="0" y="783" type="line"/>
      <point x="278" y="857" type="line"/>
    </contour>
  </outline>
</glyph>
<glyph name="uni013B" format="2">
  <advance width="492"/>
  <unicode hex="013B"/>
  <note>
uni013B
</note>
  <anchor x="232" y="-265" name="bottom"/>
  <anchor x="142" y="350" name="center"/>
  <anchor x="144" y="710" name="top"/>
  <anchor x="300" y="710" name="topright"/>
  <outline>
    <contour>
      <point x="72" y="710" type="line"/>
      <point x="72" y="0" type="line"/>
      <point x="479" y="0" type="line"/>
      <point x="479" y="122" type="line"/>
      <point x="210" y="122" type="line"/>
      <point x="210" y="710" type="line"/>
    </contour>
    <contour>
      <point x="252" y="-69" type="line"/>
      <point x="161" y="-239" type="line"/>
      <point x="234" y="-282" type="line"/>
      <point x="343" y="-125" type="line"/>
    </contour>
  </outline>
</glyph>
<glyph name="Lcaron" format="2">
  <advance width="497"/>
  <unicode hex="013D"/>
  <note>
Lcaron
</note>
  <anchor x="272" y="0" name="bottom"/>
  <anchor x="142" y="350" name="center"/>
  <anchor x="144" y="710" name="top"/>
  <anchor x="300" y="710" name="topright"/>
  <outline>
    <contour>
      <point x="72" y="710" type="line"/>
      <point x="72" y="0" type="line"/>
      <point x="479" y="0" type="line"/>
      <point x="479" y="122" type="line"/>
      <point x="210" y="122" type="line"/>
      <point x="210" y="710" type="line"/>
    </contour>
    <contour>
      <point x="320" y="554" type="curve"/>
      <point x="390" y="526" type="line"/>
      <point x="390" y="526"/>
      <point x="445" y="583"/>
      <point x="445" y="628" type="curve" smooth="yes"/>
      <point x="445" y="659"/>
      <point x="442" y="710"/>
      <point x="442" y="710" type="curve"/>
      <point x="341" y="710" type="line"/>
      <point x="341" y="710"/>
      <point x="344" y="655"/>
      <point x="344" y="639" type="curve" smooth="yes"/>
      <point x="344" y="617"/>
      <point x="320" y="554"/>
    </contour>
  </outline>
</glyph>
<glyph name="lcaron" format="2">
  <advance width="302"/>
  <unicode hex="013E"/>
  <note>
lcaron
</note>
  <anchor x="183" y="0" name="bottom"/>
  <anchor x="154" y="365" name="center"/>
  <anchor x="125" y="730" name="top"/>
  <anchor x="222" y="730" name="topright"/>
  <outline>
    <contour>
      <point x="193" y="177" type="curve" smooth="yes"/>
      <point x="193" y="730" type="line"/>
      <point x="59" y="730" type="line"/>
      <point x="59" y="144" type="line" smooth="yes"/>
      <point x="59" y="32"/>
      <point x="94" y="-14"/>
      <point x="205" y="-14" type="curve" smooth="yes"/>
      <point x="240" y="-14"/>
      <point x="286" y="1"/>
      <point x="286" y="1" type="curve"/>
      <point x="280" y="106" type="line"/>
      <point x="280" y="106"/>
      <point x="254" y="104"/>
      <point x="226" y="104" type="curve" smooth="yes"/>
      <point x="194" y="104"/>
      <point x="193" y="127"/>
    </contour>
    <contour>
      <point x="242" y="574" type="curve"/>
      <point x="312" y="546" type="line"/>
      <point x="312" y="546"/>
      <point x="367" y="603"/>
      <point x="367" y="648" type="curve" smooth="yes"/>
      <point x="367" y="679"/>
      <point x="364" y="730"/>
      <point x="364" y="730" type="curve"/>
      <point x="263" y="730" type="line"/>
      <point x="263" y="730"/>
      <point x="266" y="675"/>
      <point x="266" y="659" type="curve" smooth="yes"/>
      <point x="266" y="637"/>
      <point x="242" y="574"/>
    </contour>
  </outline>
</glyph>
<glyph name="Ldot" format="2">
  <advance width="500"/>
  <unicode hex="013F"/>
  <note>
Ldot
</note>
  <anchor x="272" y="0" name="bottom"/>
  <anchor x="142" y="350" name="center"/>
  <anchor x="144" y="710" name="top"/>
  <anchor x="300" y="710" name="topright"/>
  <outline>
    <contour>
      <point x="72" y="710" type="line"/>
      <point x="72" y="0" type="line"/>
      <point x="479" y="0" type="line"/>
      <point x="479" y="122" type="line"/>
      <point x="210" y="122" type="line"/>
      <point x="210" y="710" type="line"/>
    </contour>
    <contour>
      <point x="319" y="454" type="line"/>
      <point x="319" y="299" type="line"/>
      <point x="453" y="299" type="line"/>
      <point x="453" y="454" type="line"/>
    </contour>
  </outline>
</glyph>
<glyph name="Lslash" format="2">
  <advance width="547"/>
  <unicode hex="0141"/>
  <note>
Lslash
</note>
  <anchor x="327" y="0" name="bottom"/>
  <anchor x="197" y="350" name="center"/>
  <anchor x="199" y="710" name="top"/>
  <anchor x="355" y="710" name="topright"/>
  <outline>
    <contour>
      <point x="127" y="217" type="line"/>
      <point x="127" y="0" type="line"/>
      <point x="534" y="0" type="line"/>
      <point x="534" y="122" type="line"/>
      <point x="265" y="122" type="line"/>
      <point x="265" y="271" type="line"/>
      <point x="437" y="357" type="line"/>
      <point x="391" y="448" type="line"/>
      <point x="265" y="380" type="line"/>
      <point x="265" y="710" type="line"/>
      <point x="127" y="710" type="line"/>
      <point x="127" y="328" type="line"/>
      <point x="6" y="267" type="line"/>
      <point x="52" y="177" type="line"/>
    </contour>
  </outline>
</glyph>
<glyph name="lslash" format="2">
  <advance width="395"/>
  <unicode hex="0142"/>
  <note>
lslash
</note>
  <anchor x="237" y="0" name="bottom"/>
  <anchor x="208" y="365" name="center"/>
  <anchor x="179" y="730" name="top"/>
  <anchor x="276" y="730" name="topright"/>
  <outline>
    <contour>
      <point x="247" y="177" type="curve" smooth="yes"/>
      <point x="247" y="313" type="line"/>
      <point x="385" y="381" type="line"/>
      <point x="339" y="472" type="line"/>
      <point x="247" y="423" type="line"/>
      <point x="247" y="730" type="line"/>
      <point x="113" y="730" type="line"/>
      <point x="113" y="378" type="line"/>
      <point x="4" y="322" type="line"/>
      <point x="50" y="232" type="line"/>
      <point x="113" y="266" type="line"/>
      <point x="113" y="144" type="line" smooth="yes"/>
      <point x="113" y="32"/>
      <point x="148" y="-14"/>
      <point x="259" y="-14" type="curve" smooth="yes"/>
      <point x="294" y="-14"/>
      <point x="340" y="1"/>
      <point x="340" y="1" type="curve"/>
      <point x="334" y="106" type="line"/>
      <point x="334" y="106"/>
      <point x="308" y="104"/>
      <point x="280" y="104" type="curve" smooth="yes"/>
      <point x="248" y="104"/>
      <point x="247" y="127"/>
    </contour>
  </outline>
</glyph>
<glyph name="Nacute" format="2">
  <advance width="729"/>
  <unicode hex="0143"/>
  <note>
Nacute
</note>
  <anchor x="364" y="0" name="bottom"/>
  <anchor x="374" y="943" name="top"/>
  <outline>
    <contour>
      <point x="322" y="710" type="line"/>
      <point x="72" y="710" type="line"/>
      <point x="72" y="0" type="line"/>
      <point x="210" y="0" type="line"/>
      <point x="210" y="590" type="line"/>
      <point x="240" y="590" type="line"/>
      <point x="410" y="0" type="line"/>
      <point x="657" y="0" type="line"/>
      <point x="657" y="710" type="line"/>
      <point x="519" y="710" type="line"/>
      <point x="519" y="120" type="line"/>
      <point x="489" y="120" type="line"/>
    </contour>
    <contour>
      <point x="489" y="952" type="line"/>
      <point x="221" y="850" type="line"/>
      <point x="249" y="763" type="line"/>
      <point x="527" y="837" type="line"/>
    </contour>
  </outline>
</glyph>
<glyph name="uni0145" format="2">
  <advance width="729"/>
  <unicode hex="0145"/>
  <note>
uni0145
</note>
  <anchor x="324" y="-265" name="bottom"/>
  <anchor x="374" y="710" name="top"/>
  <outline>
    <contour>
      <point x="322" y="710" type="line"/>
      <point x="72" y="710" type="line"/>
      <point x="72" y="0" type="line"/>
      <point x="210" y="0" type="line"/>
      <point x="210" y="590" type="line"/>
      <point x="240" y="590" type="line"/>
      <point x="410" y="0" type="line"/>
      <point x="657" y="0" type="line"/>
      <point x="657" y="710" type="line"/>
      <point x="519" y="710" type="line"/>
      <point x="519" y="120" type="line"/>
      <point x="489" y="120" type="line"/>
    </contour>
    <contour>
      <point x="344" y="-69" type="line"/>
      <point x="253" y="-239" type="line"/>
      <point x="326" y="-282" type="line"/>
      <point x="435" y="-125" type="line"/>
    </contour>
  </outline>
</glyph>
<glyph name="Ncaron" format="2">
  <advance width="729"/>
  <unicode hex="0147"/>
  <note>
Ncaron
</note>
  <anchor x="364" y="0" name="bottom"/>
  <anchor x="374" y="943" name="top"/>
  <outline>
    <contour>
      <point x="322" y="710" type="line"/>
      <point x="72" y="710" type="line"/>
      <point x="72" y="0" type="line"/>
      <point x="210" y="0" type="line"/>
      <point x="210" y="590" type="line"/>
      <point x="240" y="590" type="line"/>
      <point x="410" y="0" type="line"/>
      <point x="657" y="0" type="line"/>
      <point x="657" y="710" type="line"/>
      <point x="519" y="710" type="line"/>
      <point x="519" y="120" type="line"/>
      <point x="489" y="120" type="line"/>
    </contour>
    <contour>
      <point x="305" y="946" type="line"/>
      <point x="185" y="946" type="line"/>
      <point x="316" y="769" type="line"/>
      <point x="432" y="769" type="line"/>
      <point x="563" y="946" type="line"/>
      <point x="443" y="946" type="line"/>
      <point x="374" y="848" type="line"/>
    </contour>
  </outline>
</glyph>
<glyph name="napostrophe" format="2">
  <advance width="742"/>
  <unicode hex="0149"/>
  <note>
napostrophe
</note>
  <anchor x="468" y="0" name="bottom"/>
  <anchor x="476" y="510" name="top"/>
  <outline>
    <contour>
      <point x="211" y="730" type="line"/>
      <point x="63" y="730" type="line"/>
      <point x="13" y="442" type="line"/>
      <point x="121" y="442" type="line"/>
    </contour>
    <contour>
      <point x="251" y="510" type="line"/>
      <point x="251" y="0" type="line"/>
      <point x="385" y="0" type="line"/>
      <point x="385" y="382" type="line"/>
      <point x="385" y="382"/>
      <point x="429" y="406"/>
      <point x="476" y="406" type="curve" smooth="yes"/>
      <point x="541" y="406"/>
      <point x="551" y="357"/>
      <point x="551" y="281" type="curve" smooth="yes"/>
      <point x="551" y="0" type="line"/>
      <point x="685" y="0" type="line"/>
      <point x="685" y="285" type="line" smooth="yes"/>
      <point x="685" y="438"/>
      <point x="649" y="526"/>
      <point x="509" y="526" type="curve" smooth="yes"/>
      <point x="452" y="526"/>
      <point x="384" y="480"/>
      <point x="384" y="480" type="curve"/>
      <point x="384" y="510" type="line"/>
    </contour>
  </outline>
</glyph>
<glyph name="eng" format="2">
  <advance width="553"/>
  <unicode hex="014B"/>
  <note>
eng
</note>
  <anchor x="279" y="0" name="bottom"/>
  <anchor x="287" y="510" name="top"/>
  <outline>
    <contour>
      <point x="496" y="-27" type="curve" smooth="yes"/>
      <point x="496" y="285" type="line" smooth="yes"/>
      <point x="496" y="438"/>
      <point x="460" y="526"/>
      <point x="320" y="526" type="curve" smooth="yes"/>
      <point x="263" y="526"/>
      <point x="195" y="480"/>
      <point x="195" y="480" type="curve"/>
      <point x="195" y="510" type="line"/>
      <point x="62" y="510" type="line"/>
      <point x="62" y="0" type="line"/>
      <point x="196" y="0" type="line"/>
      <point x="196" y="382" type="line"/>
      <point x="196" y="382"/>
      <point x="240" y="406"/>
      <point x="287" y="406" type="curve" smooth="yes"/>
      <point x="352" y="406"/>
      <point x="362" y="357"/>
      <point x="362" y="281" type="curve" smooth="yes"/>
      <point x="362" y="-21" type="line" smooth="yes"/>
      <point x="362" y="-78"/>
      <point x="337" y="-92"/>
      <point x="286" y="-92" type="curve"/>
      <point x="286" y="-212" type="line"/>
      <point x="437" y="-212"/>
      <point x="496" y="-177"/>
    </contour>
  </outline>
</glyph>
<glyph name="obreve" format="2">
  <advance width="536"/>
  <unicode hex="014F"/>
  <note>
obreve
</note>
  <anchor x="266" y="0" name="bottom"/>
  <anchor x="266" y="256" name="center"/>
  <anchor x="353" y="0" name="ogonek"/>
  <anchor x="266" y="730" name="top"/>
  <anchor x="510" y="510" name="topright"/>
  <outline>
    <contour>
      <point x="268" y="526" type="curve" smooth="yes"/>
      <point x="94" y="526"/>
      <point x="38" y="416"/>
      <point x="38" y="256" type="curve" smooth="yes"/>
      <point x="38" y="96"/>
      <point x="94" y="-10"/>
      <point x="268" y="-10" type="curve" smooth="yes"/>
      <point x="442" y="-10"/>
      <point x="498" y="96"/>
      <point x="498" y="256" type="curve" smooth="yes"/>
      <point x="498" y="416"/>
      <point x="442" y="526"/>
    </contour>
    <contour>
      <point x="197" y="730" type="curve"/>
      <point x="97" y="730" type="line"/>
      <point x="100" y="640"/>
      <point x="150" y="564"/>
      <point x="266" y="564" type="curve" smooth="yes"/>
      <point x="382" y="564"/>
      <point x="432" y="640"/>
      <point x="435" y="730" type="curve"/>
      <point x="335" y="730" type="line"/>
      <point x="333" y="681"/>
      <point x="311" y="654"/>
      <point x="266" y="654" type="curve" smooth="yes"/>
      <point x="221" y="654"/>
      <point x="199" y="681"/>
    </contour>
    <contour>
      <point x="174" y="256" type="curve" smooth="yes"/>
      <point x="174" y="359"/>
      <point x="194" y="412"/>
      <point x="268" y="412" type="curve" smooth="yes"/>
      <point x="342" y="412"/>
      <point x="362" y="359"/>
      <point x="362" y="256" type="curve" smooth="yes"/>
      <point x="362" y="153"/>
      <point x="342" y="104"/>
      <point x="268" y="104" type="curve" smooth="yes"/>
      <point x="194" y="104"/>
      <point x="174" y="153"/>
    </contour>
  </outline>
</glyph>
<glyph name="racute" format="2">
  <advance width="372"/>
  <unicode hex="0155"/>
  <note>
racute
</note>
  <anchor x="128" y="0" name="bottom"/>
  <anchor x="231" y="753" name="top"/>
  <outline>
    <contour>
      <point x="195" y="510" type="line"/>
      <point x="62" y="510" type="line"/>
      <point x="62" y="0" type="line"/>
      <point x="196" y="0" type="line"/>
      <point x="196" y="345" type="line"/>
      <point x="196" y="345"/>
      <point x="267" y="374"/>
      <point x="355" y="391" type="curve"/>
      <point x="355" y="526" type="line"/>
      <point x="279" y="511"/>
      <point x="195" y="457"/>
      <point x="195" y="457" type="curve"/>
    </contour>
    <contour>
      <point x="346" y="753" type="line"/>
      <point x="78" y="651" type="line"/>
      <point x="106" y="564" type="line"/>
      <point x="384" y="638" type="line"/>
    </contour>
  </outline>
</glyph>
<glyph name="uni0157" format="2">
  <advance width="372"/>
  <unicode hex="0157"/>
  <note>
uni0157
</note>
  <anchor x="88" y="-265" name="bottom"/>
  <anchor x="206" y="510" name="top"/>
  <outline>
    <contour>
      <point x="195" y="510" type="line"/>
      <point x="62" y="510" type="line"/>
      <point x="62" y="0" type="line"/>
      <point x="196" y="0" type="line"/>
      <point x="196" y="345" type="line"/>
      <point x="196" y="345"/>
      <point x="267" y="374"/>
      <point x="355" y="391" type="curve"/>
      <point x="355" y="526" type="line"/>
      <point x="279" y="511"/>
      <point x="195" y="457"/>
      <point x="195" y="457" type="curve"/>
    </contour>
    <contour>
      <point x="108" y="-69" type="line"/>
      <point x="17" y="-239" type="line"/>
      <point x="90" y="-282" type="line"/>
      <point x="199" y="-125" type="line"/>
    </contour>
  </outline>
</glyph>
<glyph name="Rcaron" format="2">
  <advance width="618"/>
  <unicode hex="0158"/>
  <note>
Rcaron
</note>
  <anchor x="314" y="0" name="bottom"/>
  <anchor x="306" y="943" name="top"/>
  <outline>
    <contour>
      <point x="435" y="475" type="curve" smooth="yes"/>
      <point x="435" y="410"/>
      <point x="407" y="366"/>
      <point x="338" y="366" type="curve" smooth="yes"/>
      <point x="210" y="366" type="line"/>
      <point x="210" y="592" type="line"/>
      <point x="336" y="592" type="line" smooth="yes"/>
      <point x="402" y="592"/>
      <point x="435" y="545"/>
    </contour>
    <contour>
      <point x="72" y="710" type="line"/>
      <point x="72" y="0" type="line"/>
      <point x="210" y="0" type="line"/>
      <point x="210" y="248" type="line"/>
      <point x="343" y="248" type="line"/>
      <point x="426" y="0" type="line"/>
      <point x="573" y="0" type="line"/>
      <point x="472" y="280" type="line"/>
      <point x="538" y="319"/>
      <point x="576" y="378"/>
      <point x="576" y="477" type="curve" smooth="yes"/>
      <point x="576" y="637"/>
      <point x="491" y="710"/>
      <point x="336" y="710" type="curve" smooth="yes"/>
    </contour>
    <contour>
      <point x="237" y="946" type="line"/>
      <point x="117" y="946" type="line"/>
      <point x="248" y="769" type="line"/>
      <point x="364" y="769" type="line"/>
      <point x="495" y="946" type="line"/>
      <point x="375" y="946" type="line"/>
      <point x="306" y="848" type="line"/>
    </contour>
  </outline>
</glyph>
<glyph name="rcaron" format="2">
  <advance width="372"/>
  <unicode hex="0159"/>
  <note>
rcaron
</note>
  <anchor x="128" y="0" name="bottom"/>
  <anchor x="206" y="753" name="top"/>
  <outline>
    <contour>
      <point x="195" y="510" type="line"/>
      <point x="62" y="510" type="line"/>
      <point x="62" y="0" type="line"/>
      <point x="196" y="0" type="line"/>
      <point x="196" y="345" type="line"/>
      <point x="196" y="345"/>
      <point x="267" y="374"/>
      <point x="355" y="391" type="curve"/>
      <point x="355" y="526" type="line"/>
      <point x="279" y="511"/>
      <point x="195" y="457"/>
      <point x="195" y="457" type="curve"/>
    </contour>
    <contour>
      <point x="137" y="748" type="line"/>
      <point x="17" y="748" type="line"/>
      <point x="148" y="571" type="line"/>
      <point x="264" y="571" type="line"/>
      <point x="395" y="748" type="line"/>
      <point x="275" y="748" type="line"/>
      <point x="206" y="650" type="line"/>
    </contour>
  </outline>
</glyph>
<glyph name="Scedilla" format="2">
  <advance width="552"/>
  <unicode hex="015E"/>
  <note>
Scedilla
</note>
  <anchor x="269" y="-240" name="bottom"/>
  <anchor x="288" y="710" name="top"/>
  <outline>
    <contour>
      <point x="485" y="590" type="curve"/>
      <point x="496" y="699" type="line"/>
      <point x="496" y="699"/>
      <point x="373" y="726"/>
      <point x="282" y="726" type="curve" smooth="yes"/>
      <point x="144" y="726"/>
      <point x="40" y="660"/>
      <point x="40" y="514" type="curve" smooth="yes"/>
      <point x="40" y="441"/>
      <point x="68" y="382"/>
      <point x="162" y="344" type="curve" smooth="yes"/>
      <point x="300" y="288" type="line" smooth="yes"/>
      <point x="359" y="264"/>
      <point x="379" y="246"/>
      <point x="379" y="202" type="curve" smooth="yes"/>
      <point x="379" y="144"/>
      <point x="351" y="106"/>
      <point x="263" y="106" type="curve" smooth="yes"/>
      <point x="198" y="106"/>
      <point x="58" y="122"/>
      <point x="58" y="122" type="curve"/>
      <point x="44" y="15" type="line"/>
      <point x="44" y="15"/>
      <point x="135" y="-6"/>
      <point x="221" y="-12" type="curve"/>
      <point x="204" y="-105" type="line"/>
      <point x="228" y="-105" type="line" smooth="yes"/>
      <point x="255" y="-105"/>
      <point x="266" y="-110"/>
      <point x="266" y="-127" type="curve" smooth="yes"/>
      <point x="266" y="-143"/>
      <point x="255" y="-152"/>
      <point x="228" y="-152" type="curve" smooth="yes"/>
      <point x="170" y="-151" type="line"/>
      <point x="166" y="-229" type="line"/>
      <point x="176" y="-229"/>
      <point x="226" y="-240"/>
      <point x="269" y="-240" type="curve" smooth="yes"/>
      <point x="337" y="-240"/>
      <point x="380" y="-204"/>
      <point x="380" y="-128" type="curve" smooth="yes"/>
      <point x="380" y="-52"/>
      <point x="337" y="-38"/>
      <point x="270" y="-37" type="curve"/>
      <point x="274" y="-14" type="line"/>
      <point x="409" y="-10"/>
      <point x="516" y="57"/>
      <point x="516" y="219" type="curve" smooth="yes"/>
      <point x="516" y="293"/>
      <point x="490" y="356"/>
      <point x="400" y="393" type="curve" smooth="yes"/>
      <point x="255" y="453" type="line" smooth="yes"/>
      <point x="195" y="478"/>
      <point x="177" y="496"/>
      <point x="177" y="528" type="curve" smooth="yes"/>
      <point x="177" y="575"/>
      <point x="212" y="606"/>
      <point x="286" y="606" type="curve" smooth="yes"/>
      <point x="344" y="606"/>
      <point x="485" y="590"/>
    </contour>
  </outline>
</glyph>
<glyph name="scedilla" format="2">
  <advance width="470"/>
  <unicode hex="015F"/>
  <note>
scedilla
</note>
  <anchor x="232" y="-240" name="bottom"/>
  <anchor x="243" y="510" name="top"/>
  <outline>
    <contour>
      <point x="418" y="390" type="curve"/>
      <point x="420" y="501" type="line"/>
      <point x="420" y="501"/>
      <point x="300" y="526"/>
      <point x="227" y="526" type="curve" smooth="yes"/>
      <point x="123" y="526"/>
      <point x="35" y="477"/>
      <point x="35" y="362" type="curve" smooth="yes"/>
      <point x="35" y="291"/>
      <point x="68" y="254"/>
      <point x="147" y="225" type="curve" smooth="yes"/>
      <point x="262" y="183" type="line" smooth="yes"/>
      <point x="294" y="171"/>
      <point x="305" y="166"/>
      <point x="305" y="147" type="curve" smooth="yes"/>
      <point x="305" y="123"/>
      <point x="287" y="106"/>
      <point x="233" y="106" type="curve" smooth="yes"/>
      <point x="170" y="106"/>
      <point x="45" y="126"/>
      <point x="45" y="126" type="curve"/>
      <point x="41" y="14" type="line"/>
      <point x="41" y="14"/>
      <point x="113" y="-3"/>
      <point x="185" y="-10" type="curve"/>
      <point x="167" y="-105" type="line"/>
      <point x="191" y="-105" type="line" smooth="yes"/>
      <point x="218" y="-105"/>
      <point x="229" y="-110"/>
      <point x="229" y="-127" type="curve" smooth="yes"/>
      <point x="229" y="-143"/>
      <point x="218" y="-152"/>
      <point x="191" y="-152" type="curve" smooth="yes"/>
      <point x="133" y="-151" type="line"/>
      <point x="129" y="-229" type="line"/>
      <point x="139" y="-229"/>
      <point x="189" y="-240"/>
      <point x="232" y="-240" type="curve" smooth="yes"/>
      <point x="300" y="-240"/>
      <point x="343" y="-204"/>
      <point x="343" y="-128" type="curve" smooth="yes"/>
      <point x="343" y="-52"/>
      <point x="300" y="-38"/>
      <point x="233" y="-37" type="curve"/>
      <point x="237" y="-14" type="line"/>
      <point x="247" y="-14" type="line" smooth="yes"/>
      <point x="362" y="-14"/>
      <point x="438" y="32"/>
      <point x="438" y="155" type="curve" smooth="yes"/>
      <point x="438" y="222"/>
      <point x="416" y="256"/>
      <point x="329" y="288" type="curve" smooth="yes"/>
      <point x="225" y="326" type="line" smooth="yes"/>
      <point x="179" y="343"/>
      <point x="168" y="349"/>
      <point x="168" y="367" type="curve" smooth="yes"/>
      <point x="168" y="393"/>
      <point x="180" y="406"/>
      <point x="235" y="406" type="curve" smooth="yes"/>
      <point x="296" y="406"/>
      <point x="418" y="390"/>
    </contour>
  </outline>
</glyph>
<glyph name="uni0162" format="2">
  <advance width="546"/>
  <unicode hex="0162"/>
  <note>
uni0162
</note>
  <anchor x="280" y="-240" name="bottom"/>
  <anchor x="272" y="330" name="center"/>
  <anchor x="272" y="710" name="top"/>
  <outline>
    <contour>
      <point x="532" y="710" type="line"/>
      <point x="14" y="710" type="line"/>
      <point x="14" y="588" type="line"/>
      <point x="204" y="588" type="line"/>
      <point x="204" y="0" type="line"/>
      <point x="235" y="0" type="line"/>
      <point x="215" y="-105" type="line"/>
      <point x="239" y="-105" type="line" smooth="yes"/>
      <point x="266" y="-105"/>
      <point x="277" y="-110"/>
      <point x="277" y="-127" type="curve" smooth="yes"/>
      <point x="277" y="-143"/>
      <point x="266" y="-152"/>
      <point x="239" y="-152" type="curve" smooth="yes"/>
      <point x="181" y="-151" type="line"/>
      <point x="177" y="-229" type="line"/>
      <point x="187" y="-229"/>
      <point x="237" y="-240"/>
      <point x="280" y="-240" type="curve" smooth="yes"/>
      <point x="348" y="-240"/>
      <point x="391" y="-204"/>
      <point x="391" y="-128" type="curve" smooth="yes"/>
      <point x="391" y="-52"/>
      <point x="348" y="-38"/>
      <point x="281" y="-37" type="curve"/>
      <point x="288" y="0" type="line"/>
      <point x="342" y="0" type="line"/>
      <point x="342" y="588" type="line"/>
      <point x="532" y="588" type="line"/>
    </contour>
  </outline>
</glyph>
<glyph name="uni0163" format="2">
  <advance width="376"/>
  <unicode hex="0163"/>
  <note>
uni0163
</note>
  <anchor x="245" y="-240" name="bottom"/>
  <anchor x="154" y="257" name="center"/>
  <anchor x="154" y="653" name="top"/>
  <anchor x="244" y="730" name="topright"/>
  <outline>
    <contour>
      <point x="220" y="179" type="curve" smooth="yes"/>
      <point x="220" y="396" type="line"/>
      <point x="343" y="396" type="line"/>
      <point x="343" y="510" type="line"/>
      <point x="220" y="510" type="line"/>
      <point x="220" y="653" type="line"/>
      <point x="86" y="653" type="line"/>
      <point x="86" y="510" type="line"/>
      <point x="27" y="510" type="line"/>
      <point x="27" y="396" type="line"/>
      <point x="86" y="396" type="line"/>
      <point x="86" y="176" type="line" smooth="yes"/>
      <point x="86" y="51"/>
      <point x="112" y="0"/>
      <point x="198" y="-11" type="curve"/>
      <point x="180" y="-105" type="line"/>
      <point x="204" y="-105" type="line" smooth="yes"/>
      <point x="231" y="-105"/>
      <point x="242" y="-110"/>
      <point x="242" y="-127" type="curve" smooth="yes"/>
      <point x="242" y="-143"/>
      <point x="231" y="-152"/>
      <point x="204" y="-152" type="curve" smooth="yes"/>
      <point x="146" y="-151" type="line"/>
      <point x="142" y="-229" type="line"/>
      <point x="152" y="-229"/>
      <point x="202" y="-240"/>
      <point x="245" y="-240" type="curve" smooth="yes"/>
      <point x="313" y="-240"/>
      <point x="356" y="-204"/>
      <point x="356" y="-128" type="curve" smooth="yes"/>
      <point x="356" y="-52"/>
      <point x="313" y="-38"/>
      <point x="246" y="-37" type="curve"/>
      <point x="250" y="-14" type="line"/>
      <point x="287" y="-12"/>
      <point x="349" y="1"/>
      <point x="349" y="1" type="curve"/>
      <point x="343" y="108" type="line"/>
      <point x="343" y="108"/>
      <point x="290" y="106"/>
      <point x="262" y="106" type="curve" smooth="yes"/>
      <point x="220" y="106"/>
      <point x="220" y="129"/>
    </contour>
  </outline>
</glyph>
<glyph name="Tcaron" format="2">
  <advance width="546"/>
  <unicode hex="0164"/>
  <note>
Tcaron
</note>
  <anchor x="272" y="0" name="bottom"/>
  <anchor x="272" y="330" name="center"/>
  <anchor x="272" y="943" name="top"/>
  <outline>
    <contour>
      <point x="532" y="710" type="line"/>
      <point x="14" y="710" type="line"/>
      <point x="14" y="588" type="line"/>
      <point x="204" y="588" type="line"/>
      <point x="204" y="0" type="line"/>
      <point x="342" y="0" type="line"/>
      <point x="342" y="588" type="line"/>
      <point x="532" y="588" type="line"/>
    </contour>
    <contour>
      <point x="203" y="946" type="line"/>
      <point x="83" y="946" type="line"/>
      <point x="214" y="769" type="line"/>
      <point x="330" y="769" type="line"/>
      <point x="461" y="946" type="line"/>
      <point x="341" y="946" type="line"/>
      <point x="272" y="848" type="line"/>
    </contour>
  </outline>
</glyph>
<glyph name="tcaron" format="2">
  <advance width="376"/>
  <unicode hex="0165"/>
  <note>
tcaron
</note>
  <anchor x="237" y="0" name="bottom"/>
  <anchor x="154" y="257" name="center"/>
  <anchor x="154" y="653" name="top"/>
  <anchor x="244" y="730" name="topright"/>
  <outline>
    <contour>
      <point x="220" y="179" type="curve" smooth="yes"/>
      <point x="220" y="396" type="line"/>
      <point x="343" y="396" type="line"/>
      <point x="343" y="510" type="line"/>
      <point x="220" y="510" type="line"/>
      <point x="220" y="653" type="line"/>
      <point x="86" y="653" type="line"/>
      <point x="86" y="510" type="line"/>
      <point x="27" y="510" type="line"/>
      <point x="27" y="396" type="line"/>
      <point x="86" y="396" type="line"/>
      <point x="86" y="176" type="line" smooth="yes"/>
      <point x="86" y="32"/>
      <point x="121" y="-14"/>
      <point x="242" y="-14" type="curve" smooth="yes"/>
      <point x="277" y="-14"/>
      <point x="349" y="1"/>
      <point x="349" y="1" type="curve"/>
      <point x="343" y="108" type="line"/>
      <point x="343" y="108"/>
      <point x="290" y="106"/>
      <point x="262" y="106" type="curve" smooth="yes"/>
      <point x="220" y="106"/>
      <point x="220" y="129"/>
    </contour>
    <contour>
      <point x="264" y="574" type="curve"/>
      <point x="334" y="546" type="line"/>
      <point x="334" y="546"/>
      <point x="389" y="603"/>
      <point x="389" y="648" type="curve" smooth="yes"/>
      <point x="389" y="679"/>
      <point x="386" y="730"/>
      <point x="386" y="730" type="curve"/>
      <point x="285" y="730" type="line"/>
      <point x="285" y="730"/>
      <point x="288" y="675"/>
      <point x="288" y="659" type="curve" smooth="yes"/>
      <point x="288" y="637"/>
      <point x="264" y="574"/>
    </contour>
  </outline>
</glyph>
<glyph name="Tbar" format="2">
  <advance width="558"/>
  <unicode hex="0166"/>
  <note>
Tbar
</note>
  <anchor x="278" y="0" name="bottom"/>
  <anchor x="278" y="330" name="center"/>
  <anchor x="278" y="710" name="top"/>
  <outline>
    <contour>
      <point x="538" y="710" type="line"/>
      <point x="20" y="710" type="line"/>
      <point x="20" y="588" type="line"/>
      <point x="210" y="588" type="line"/>
      <point x="210" y="387" type="line"/>
      <point x="91" y="387" type="line"/>
      <point x="91" y="273" type="line"/>
      <point x="210" y="273" type="line"/>
      <point x="210" y="0" type="line"/>
      <point x="348" y="0" type="line"/>
      <point x="348" y="273" type="line"/>
      <point x="467" y="273" type="line"/>
      <point x="467" y="387" type="line"/>
      <point x="348" y="387" type="line"/>
      <point x="348" y="588" type="line"/>
      <point x="538" y="588" type="line"/>
    </contour>
  </outline>
</glyph>
<glyph name="tbar" format="2">
  <advance width="385"/>
  <unicode hex="0167"/>
  <note>
tbar
</note>
  <anchor x="241" y="0" name="bottom"/>
  <anchor x="158" y="257" name="center"/>
  <anchor x="158" y="653" name="top"/>
  <anchor x="248" y="730" name="topright"/>
  <outline>
    <contour>
      <point x="224" y="179" type="curve" smooth="yes"/>
      <point x="224" y="203" type="line"/>
      <point x="347" y="203" type="line"/>
      <point x="347" y="313" type="line"/>
      <point x="224" y="313" type="line"/>
      <point x="224" y="396" type="line"/>
      <point x="347" y="396" type="line"/>
      <point x="347" y="510" type="line"/>
      <point x="224" y="510" type="line"/>
      <point x="224" y="653" type="line"/>
      <point x="90" y="653" type="line"/>
      <point x="90" y="510" type="line"/>
      <point x="31" y="510" type="line"/>
      <point x="31" y="396" type="line"/>
      <point x="90" y="396" type="line"/>
      <point x="90" y="313" type="line"/>
      <point x="31" y="313" type="line"/>
      <point x="31" y="203" type="line"/>
      <point x="90" y="203" type="line"/>
      <point x="90" y="176" type="line" smooth="yes"/>
      <point x="90" y="32"/>
      <point x="125" y="-14"/>
      <point x="246" y="-14" type="curve" smooth="yes"/>
      <point x="281" y="-14"/>
      <point x="353" y="1"/>
      <point x="353" y="1" type="curve"/>
      <point x="347" y="108" type="line"/>
      <point x="347" y="108"/>
      <point x="294" y="106"/>
      <point x="266" y="106" type="curve" smooth="yes"/>
      <point x="224" y="106"/>
      <point x="224" y="129"/>
    </contour>
  </outline>
</glyph>
<glyph name="Utilde" format="2">
  <advance width="654"/>
  <unicode hex="0168"/>
  <note>
Utilde
</note>
  <anchor x="326" y="0" name="bottom"/>
  <anchor x="419" y="0" name="ogonek"/>
  <anchor x="326" y="920" name="top"/>
  <anchor x="626" y="710" name="topright"/>
  <outline>
    <contour>
      <point x="206" y="225" type="curve" smooth="yes"/>
      <point x="206" y="710" type="line"/>
      <point x="68" y="710" type="line"/>
      <point x="68" y="228" type="line" smooth="yes"/>
      <point x="68" y="58"/>
      <point x="157" y="-14"/>
      <point x="327" y="-14" type="curve" smooth="yes"/>
      <point x="497" y="-14"/>
      <point x="586" y="58"/>
      <point x="586" y="228" type="curve" smooth="yes"/>
      <point x="586" y="710" type="line"/>
      <point x="448" y="710" type="line"/>
      <point x="448" y="225" type="line" smooth="yes"/>
      <point x="448" y="145"/>
      <point x="408" y="106"/>
      <point x="327" y="106" type="curve" smooth="yes"/>
      <point x="246" y="106"/>
      <point x="206" y="144"/>
    </contour>
    <contour>
      <point x="136" y="855" type="curve"/>
      <point x="180" y="785" type="line"/>
      <point x="180" y="785"/>
      <point x="229" y="816"/>
      <point x="257" y="816" type="curve" smooth="yes"/>
      <point x="290" y="816"/>
      <point x="354" y="780"/>
      <point x="396" y="780" type="curve" smooth="yes"/>
      <point x="448" y="780"/>
      <point x="516" y="848"/>
      <point x="516" y="848" type="curve"/>
      <point x="472" y="918" type="line"/>
      <point x="472" y="918"/>
      <point x="418" y="884"/>
      <point x="392" y="884" type="curve" smooth="yes"/>
      <point x="364" y="884"/>
      <point x="296" y="920"/>
      <point x="255" y="920" type="curve" smooth="yes"/>
      <point x="203" y="920"/>
      <point x="136" y="855"/>
    </contour>
  </outline>
</glyph>
<glyph name="utilde" format="2">
  <advance width="553"/>
  <unicode hex="0169"/>
  <note>
utilde
</note>
  <anchor x="277" y="0" name="bottom"/>
  <anchor x="470" y="0" name="ogonek"/>
  <anchor x="277" y="725" name="top"/>
  <anchor x="531" y="510" name="topright"/>
  <outline>
    <contour>
      <point x="491" y="0" type="line"/>
      <point x="491" y="510" type="line"/>
      <point x="357" y="510" type="line"/>
      <point x="357" y="128" type="line"/>
      <point x="357" y="128"/>
      <point x="311" y="106"/>
      <point x="261" y="106" type="curve" smooth="yes"/>
      <point x="195" y="106"/>
      <point x="191" y="145"/>
      <point x="191" y="234" type="curve" smooth="yes"/>
      <point x="191" y="510" type="line"/>
      <point x="57" y="510" type="line"/>
      <point x="57" y="236" type="line" smooth="yes"/>
      <point x="57" y="67"/>
      <point x="87" y="-14"/>
      <point x="233" y="-14" type="curve" smooth="yes"/>
      <point x="286" y="-14"/>
      <point x="358" y="30"/>
      <point x="358" y="30" type="curve"/>
      <point x="358" y="0" type="line"/>
    </contour>
    <contour>
      <point x="87" y="650" type="curve"/>
      <point x="131" y="580" type="line"/>
      <point x="131" y="580"/>
      <point x="180" y="611"/>
      <point x="208" y="611" type="curve" smooth="yes"/>
      <point x="241" y="611"/>
      <point x="305" y="575"/>
      <point x="347" y="575" type="curve" smooth="yes"/>
      <point x="399" y="575"/>
      <point x="467" y="643"/>
      <point x="467" y="643" type="curve"/>
      <point x="423" y="713" type="line"/>
      <point x="423" y="713"/>
      <point x="369" y="679"/>
      <point x="343" y="679" type="curve" smooth="yes"/>
      <point x="315" y="679"/>
      <point x="247" y="715"/>
      <point x="206" y="715" type="curve" smooth="yes"/>
      <point x="154" y="715"/>
      <point x="87" y="650"/>
    </contour>
  </outline>
</glyph>
<glyph name="Ubreve" format="2">
  <advance width="654"/>
  <unicode hex="016C"/>
  <note>
Ubreve
</note>
  <anchor x="326" y="0" name="bottom"/>
  <anchor x="419" y="0" name="ogonek"/>
  <anchor x="326" y="920" name="top"/>
  <anchor x="626" y="710" name="topright"/>
  <outline>
    <contour>
      <point x="206" y="225" type="curve" smooth="yes"/>
      <point x="206" y="710" type="line"/>
      <point x="68" y="710" type="line"/>
      <point x="68" y="228" type="line" smooth="yes"/>
      <point x="68" y="58"/>
      <point x="157" y="-14"/>
      <point x="327" y="-14" type="curve" smooth="yes"/>
      <point x="497" y="-14"/>
      <point x="586" y="58"/>
      <point x="586" y="228" type="curve" smooth="yes"/>
      <point x="586" y="710" type="line"/>
      <point x="448" y="710" type="line"/>
      <point x="448" y="225" type="line" smooth="yes"/>
      <point x="448" y="145"/>
      <point x="408" y="106"/>
      <point x="327" y="106" type="curve" smooth="yes"/>
      <point x="246" y="106"/>
      <point x="206" y="144"/>
    </contour>
    <contour>
      <point x="257" y="929" type="curve"/>
      <point x="157" y="929" type="line"/>
      <point x="160" y="839"/>
      <point x="210" y="763"/>
      <point x="326" y="763" type="curve" smooth="yes"/>
      <point x="442" y="763"/>
      <point x="492" y="839"/>
      <point x="495" y="929" type="curve"/>
      <point x="395" y="929" type="line"/>
      <point x="393" y="880"/>
      <point x="371" y="853"/>
      <point x="326" y="853" type="curve" smooth="yes"/>
      <point x="281" y="853"/>
      <point x="259" y="880"/>
    </contour>
  </outline>
</glyph>
<glyph name="ubreve" format="2">
  <advance width="553"/>
  <unicode hex="016D"/>
  <note>
ubreve
</note>
  <anchor x="277" y="0" name="bottom"/>
  <anchor x="470" y="0" name="ogonek"/>
  <anchor x="277" y="730" name="top"/>
  <anchor x="531" y="510" name="topright"/>
  <outline>
    <contour>
      <point x="491" y="0" type="line"/>
      <point x="491" y="510" type="line"/>
      <point x="357" y="510" type="line"/>
      <point x="357" y="128" type="line"/>
      <point x="357" y="128"/>
      <point x="311" y="106"/>
      <point x="261" y="106" type="curve" smooth="yes"/>
      <point x="195" y="106"/>
      <point x="191" y="145"/>
      <point x="191" y="234" type="curve" smooth="yes"/>
      <point x="191" y="510" type="line"/>
      <point x="57" y="510" type="line"/>
      <point x="57" y="236" type="line" smooth="yes"/>
      <point x="57" y="67"/>
      <point x="87" y="-14"/>
      <point x="233" y="-14" type="curve" smooth="yes"/>
      <point x="286" y="-14"/>
      <point x="358" y="30"/>
      <point x="358" y="30" type="curve"/>
      <point x="358" y="0" type="line"/>
    </contour>
    <contour>
      <point x="208" y="730" type="curve"/>
      <point x="108" y="730" type="line"/>
      <point x="111" y="640"/>
      <point x="161" y="564"/>
      <point x="277" y="564" type="curve" smooth="yes"/>
      <point x="393" y="564"/>
      <point x="443" y="640"/>
      <point x="446" y="730" type="curve"/>
      <point x="346" y="730" type="line"/>
      <point x="344" y="681"/>
      <point x="322" y="654"/>
      <point x="277" y="654" type="curve" smooth="yes"/>
      <point x="232" y="654"/>
      <point x="210" y="681"/>
    </contour>
  </outline>
</glyph>
<glyph name="Uring" format="2">
  <advance width="654"/>
  <unicode hex="016E"/>
  <note>
Uring
</note>
  <anchor x="326" y="0" name="bottom"/>
  <anchor x="419" y="0" name="ogonek"/>
  <anchor x="326" y="975" name="top"/>
  <anchor x="626" y="710" name="topright"/>
  <outline>
    <contour>
      <point x="206" y="225" type="curve" smooth="yes"/>
      <point x="206" y="710" type="line"/>
      <point x="68" y="710" type="line"/>
      <point x="68" y="228" type="line" smooth="yes"/>
      <point x="68" y="58"/>
      <point x="157" y="-14"/>
      <point x="327" y="-14" type="curve" smooth="yes"/>
      <point x="497" y="-14"/>
      <point x="586" y="58"/>
      <point x="586" y="228" type="curve" smooth="yes"/>
      <point x="586" y="710" type="line"/>
      <point x="448" y="710" type="line"/>
      <point x="448" y="225" type="line" smooth="yes"/>
      <point x="448" y="145"/>
      <point x="408" y="106"/>
      <point x="327" y="106" type="curve" smooth="yes"/>
      <point x="246" y="106"/>
      <point x="206" y="144"/>
    </contour>
    <contour>
      <point x="209" y="860" type="curve" smooth="yes"/>
      <point x="209" y="793"/>
      <point x="259" y="747"/>
      <point x="326" y="747" type="curve" smooth="yes"/>
      <point x="391" y="747"/>
      <point x="443" y="793"/>
      <point x="443" y="860" type="curve" smooth="yes"/>
      <point x="443" y="925"/>
      <point x="391" y="973"/>
      <point x="326" y="973" type="curve" smooth="yes"/>
      <point x="259" y="973"/>
      <point x="209" y="925"/>
    </contour>
    <contour>
      <point x="284" y="860" type="curve" smooth="yes"/>
      <point x="284" y="884"/>
      <point x="302" y="902"/>
      <point x="327" y="902" type="curve" smooth="yes"/>
      <point x="351" y="902"/>
      <point x="369" y="884"/>
      <point x="369" y="860" type="curve" smooth="yes"/>
      <point x="369" y="835"/>
      <point x="351" y="817"/>
      <point x="327" y="817" type="curve" smooth="yes"/>
      <point x="302" y="817"/>
      <point x="284" y="835"/>
    </contour>
  </outline>
</glyph>
<glyph name="uring" format="2">
  <advance width="553"/>
  <unicode hex="016F"/>
  <note>
uring
</note>
  <anchor x="277" y="0" name="bottom"/>
  <anchor x="470" y="0" name="ogonek"/>
  <anchor x="277" y="784" name="top"/>
  <anchor x="531" y="510" name="topright"/>
  <outline>
    <contour>
      <point x="491" y="0" type="line"/>
      <point x="491" y="510" type="line"/>
      <point x="357" y="510" type="line"/>
      <point x="357" y="128" type="line"/>
      <point x="357" y="128"/>
      <point x="311" y="106"/>
      <point x="261" y="106" type="curve" smooth="yes"/>
      <point x="195" y="106"/>
      <point x="191" y="145"/>
      <point x="191" y="234" type="curve" smooth="yes"/>
      <point x="191" y="510" type="line"/>
      <point x="57" y="510" type="line"/>
      <point x="57" y="236" type="line" smooth="yes"/>
      <point x="57" y="67"/>
      <point x="87" y="-14"/>
      <point x="233" y="-14" type="curve" smooth="yes"/>
      <point x="286" y="-14"/>
      <point x="358" y="30"/>
      <point x="358" y="30" type="curve"/>
      <point x="358" y="0" type="line"/>
    </contour>
    <contour>
      <point x="160" y="669" type="curve" smooth="yes"/>
      <point x="160" y="602"/>
      <point x="210" y="556"/>
      <point x="277" y="556" type="curve" smooth="yes"/>
      <point x="342" y="556"/>
      <point x="394" y="602"/>
      <point x="394" y="669" type="curve" smooth="yes"/>
      <point x="394" y="734"/>
      <point x="342" y="782"/>
      <point x="277" y="782" type="curve" smooth="yes"/>
      <point x="210" y="782"/>
      <point x="160" y="734"/>
    </contour>
    <contour>
      <point x="232" y="669" type="curve" smooth="yes"/>
      <point x="232" y="695"/>
      <point x="251" y="714"/>
      <point x="278" y="714" type="curve" smooth="yes"/>
      <point x="304" y="714"/>
      <point x="323" y="695"/>
      <point x="323" y="669" type="curve" smooth="yes"/>
      <point x="323" y="642"/>
      <point x="304" y="623"/>
      <point x="278" y="623" type="curve" smooth="yes"/>
      <point x="251" y="623"/>
      <point x="232" y="642"/>
    </contour>
  </outline>
</glyph>
<glyph name="uhungarumlaut" format="2">
  <advance width="553"/>
  <unicode hex="0171"/>
  <note>
uhungarumlaut
</note>
  <anchor x="277" y="0" name="bottom"/>
  <anchor x="470" y="0" name="ogonek"/>
  <anchor x="277" y="784" name="top"/>
  <anchor x="531" y="510" name="topright"/>
  <outline>
    <contour>
      <point x="491" y="0" type="line"/>
      <point x="491" y="510" type="line"/>
      <point x="357" y="510" type="line"/>
      <point x="357" y="128" type="line"/>
      <point x="357" y="128"/>
      <point x="311" y="106"/>
      <point x="261" y="106" type="curve" smooth="yes"/>
      <point x="195" y="106"/>
      <point x="191" y="145"/>
      <point x="191" y="234" type="curve" smooth="yes"/>
      <point x="191" y="510" type="line"/>
      <point x="57" y="510" type="line"/>
      <point x="57" y="236" type="line" smooth="yes"/>
      <point x="57" y="67"/>
      <point x="87" y="-14"/>
      <point x="233" y="-14" type="curve" smooth="yes"/>
      <point x="286" y="-14"/>
      <point x="358" y="30"/>
      <point x="358" y="30" type="curve"/>
      <point x="358" y="0" type="line"/>
    </contour>
    <contour>
      <point x="210" y="784" type="line"/>
      <point x="29" y="639" type="line"/>
      <point x="76" y="564" type="line"/>
      <point x="274" y="678" type="line"/>
    </contour>
    <contour>
      <point x="460" y="784" type="line"/>
      <point x="279" y="639" type="line"/>
      <point x="326" y="564" type="line"/>
      <point x="524" y="678" type="line"/>
    </contour>
  </outline>
</glyph>
<glyph name="Uogonek" format="2">
  <advance width="654"/>
  <unicode hex="0172"/>
  <note>
Uogonek
</note>
  <anchor x="326" y="0" name="bottom"/>
  <anchor x="419" y="0" name="ogonek"/>
  <anchor x="326" y="710" name="top"/>
  <anchor x="626" y="710" name="topright"/>
  <outline>
    <contour>
      <point x="206" y="225" type="curve" smooth="yes"/>
      <point x="206" y="710" type="line"/>
      <point x="68" y="710" type="line"/>
      <point x="68" y="228" type="line" smooth="yes"/>
      <point x="68" y="69"/>
      <point x="146" y="-4"/>
      <point x="294" y="-13" type="curve"/>
      <point x="271" y="-40"/>
      <point x="237" y="-83"/>
      <point x="237" y="-120" type="curve" smooth="yes"/>
      <point x="237" y="-180"/>
      <point x="284" y="-216"/>
      <point x="346" y="-216" type="curve" smooth="yes"/>
      <point x="389" y="-216"/>
      <point x="448" y="-205"/>
      <point x="448" y="-205" type="curve"/>
      <point x="436" y="-110" type="line"/>
      <point x="436" y="-110"/>
      <point x="401" y="-114"/>
      <point x="394" y="-114" type="curve" smooth="yes"/>
      <point x="376" y="-114"/>
      <point x="362" y="-103"/>
      <point x="362" y="-86" type="curve" smooth="yes"/>
      <point x="362" y="-65"/>
      <point x="399" y="-23"/>
      <point x="413" y="-6" type="curve"/>
      <point x="527" y="16"/>
      <point x="586" y="89"/>
      <point x="586" y="228" type="curve" smooth="yes"/>
      <point x="586" y="710" type="line"/>
      <point x="448" y="710" type="line"/>
      <point x="448" y="225" type="line" smooth="yes"/>
      <point x="448" y="145"/>
      <point x="408" y="106"/>
      <point x="327" y="106" type="curve" smooth="yes"/>
      <point x="246" y="106"/>
      <point x="206" y="144"/>
    </contour>
  </outline>
</glyph>
<glyph name="uogonek" format="2">
  <advance width="553"/>
  <unicode hex="0173"/>
  <note>
uogonek
</note>
  <anchor x="277" y="0" name="bottom"/>
  <anchor x="470" y="0" name="ogonek"/>
  <anchor x="277" y="510" name="top"/>
  <anchor x="531" y="510" name="topright"/>
  <outline>
    <contour>
      <point x="491" y="0" type="line"/>
      <point x="491" y="510" type="line"/>
      <point x="357" y="510" type="line"/>
      <point x="357" y="128" type="line"/>
      <point x="357" y="128"/>
      <point x="311" y="106"/>
      <point x="261" y="106" type="curve" smooth="yes"/>
      <point x="195" y="106"/>
      <point x="191" y="145"/>
      <point x="191" y="234" type="curve" smooth="yes"/>
      <point x="191" y="510" type="line"/>
      <point x="57" y="510" type="line"/>
      <point x="57" y="236" type="line" smooth="yes"/>
      <point x="57" y="67"/>
      <point x="87" y="-14"/>
      <point x="233" y="-14" type="curve" smooth="yes"/>
      <point x="286" y="-14"/>
      <point x="358" y="30"/>
      <point x="358" y="30" type="curve"/>
      <point x="358" y="0" type="line"/>
      <point x="336" y="-22"/>
      <point x="288" y="-76"/>
      <point x="288" y="-120" type="curve" smooth="yes"/>
      <point x="288" y="-180"/>
      <point x="335" y="-216"/>
      <point x="397" y="-216" type="curve" smooth="yes"/>
      <point x="440" y="-216"/>
      <point x="499" y="-205"/>
      <point x="499" y="-205" type="curve"/>
      <point x="487" y="-110" type="line"/>
      <point x="487" y="-110"/>
      <point x="452" y="-114"/>
      <point x="445" y="-114" type="curve" smooth="yes"/>
      <point x="427" y="-114"/>
      <point x="413" y="-103"/>
      <point x="413" y="-86" type="curve" smooth="yes"/>
      <point x="413" y="-60"/>
      <point x="470" y="0"/>
      <point x="470" y="0" type="curve"/>
    </contour>
  </outline>
</glyph>
<glyph name="Wcircumflex" format="2">
  <advance width="938"/>
  <unicode hex="0174"/>
  <note>
Wcircumflex
</note>
  <anchor x="469" y="0" name="bottom"/>
  <anchor x="469" y="936" name="top"/>
  <outline>
    <contour>
      <point x="252" y="118" type="line"/>
      <point x="168" y="710" type="line"/>
      <point x="23" y="710" type="line"/>
      <point x="153" y="0" type="line"/>
      <point x="377" y="0" type="line"/>
      <point x="469" y="539" type="line"/>
      <point x="561" y="0" type="line"/>
      <point x="785" y="0" type="line"/>
      <point x="915" y="710" type="line"/>
      <point x="770" y="710" type="line"/>
      <point x="686" y="118" type="line"/>
      <point x="656" y="118" type="line"/>
      <point x="549" y="696" type="line"/>
      <point x="389" y="696" type="line"/>
      <point x="282" y="118" type="line"/>
    </contour>
    <contour>
      <point x="411" y="946" type="line"/>
      <point x="280" y="769" type="line"/>
      <point x="400" y="769" type="line"/>
      <point x="469" y="867" type="line"/>
      <point x="538" y="769" type="line"/>
      <point x="658" y="769" type="line"/>
      <point x="527" y="946" type="line"/>
    </contour>
  </outline>
</glyph>
<glyph name="wcircumflex" format="2">
  <advance width="768"/>
  <unicode hex="0175"/>
  <note>
wcircumflex
</note>
  <anchor x="384" y="0" name="bottom"/>
  <anchor x="384" y="753" name="top"/>
  <outline>
    <contour>
      <point x="214" y="114" type="line"/>
      <point x="154" y="510" type="line"/>
      <point x="22" y="510" type="line"/>
      <point x="116" y="0" type="line"/>
      <point x="324" y="0" type="line"/>
      <point x="384" y="326" type="line"/>
      <point x="444" y="0" type="line"/>
      <point x="652" y="0" type="line"/>
      <point x="746" y="510" type="line"/>
      <point x="614" y="510" type="line"/>
      <point x="554" y="114" type="line"/>
      <point x="529" y="114" type="line"/>
      <point x="450" y="500" type="line"/>
      <point x="318" y="500" type="line"/>
      <point x="239" y="114" type="line"/>
    </contour>
    <contour>
      <point x="326" y="746" type="line"/>
      <point x="195" y="569" type="line"/>
      <point x="315" y="569" type="line"/>
      <point x="384" y="667" type="line"/>
      <point x="453" y="569" type="line"/>
      <point x="573" y="569" type="line"/>
      <point x="442" y="746" type="line"/>
    </contour>
  </outline>
</glyph>
<glyph name="Ycircumflex" format="2">
  <advance width="556"/>
  <unicode hex="0176"/>
  <note>
Ycircumflex
</note>
  <anchor x="277" y="0" name="bottom"/>
  <anchor x="277" y="936" name="top"/>
  <outline>
    <contour>
      <point x="209" y="298" type="line"/>
      <point x="209" y="0" type="line"/>
      <point x="347" y="0" type="line"/>
      <point x="347" y="298" type="line"/>
      <point x="555" y="710" type="line"/>
      <point x="402" y="710" type="line"/>
      <point x="277" y="432" type="line"/>
      <point x="152" y="710" type="line"/>
      <point x="-1" y="710" type="line"/>
    </contour>
    <contour>
      <point x="219" y="946" type="line"/>
      <point x="88" y="769" type="line"/>
      <point x="208" y="769" type="line"/>
      <point x="277" y="867" type="line"/>
      <point x="346" y="769" type="line"/>
      <point x="466" y="769" type="line"/>
      <point x="335" y="946" type="line"/>
    </contour>
  </outline>
</glyph>
<glyph name="ycircumflex" format="2">
  <advance width="505"/>
  <unicode hex="0177"/>
  <note>
ycircumflex
</note>
  <anchor x="254" y="0" name="bottom"/>
  <anchor x="254" y="753" name="top"/>
  <outline>
    <contour>
      <point x="240" y="114" type="line"/>
      <point x="151" y="510" type="line"/>
      <point x="19" y="510" type="line"/>
      <point x="140" y="0" type="line"/>
      <point x="236" y="0" type="line"/>
      <point x="177" y="-230" type="line"/>
      <point x="308" y="-230" type="line"/>
      <point x="488" y="510" type="line"/>
      <point x="356" y="510" type="line"/>
      <point x="265" y="114" type="line"/>
    </contour>
    <contour>
      <point x="196" y="746" type="line"/>
      <point x="65" y="569" type="line"/>
      <point x="185" y="569" type="line"/>
      <point x="254" y="667" type="line"/>
      <point x="323" y="569" type="line"/>
      <point x="443" y="569" type="line"/>
      <point x="312" y="746" type="line"/>
    </contour>
  </outline>
</glyph>
<glyph name="Ydieresis" format="2">
  <advance width="556"/>
  <unicode hex="0178"/>
  <note>
Ydieresis
</note>
  <anchor x="277" y="0" name="bottom"/>
  <anchor x="277" y="908" name="top"/>
  <outline>
    <contour>
      <point x="209" y="298" type="line"/>
      <point x="209" y="0" type="line"/>
      <point x="347" y="0" type="line"/>
      <point x="347" y="298" type="line"/>
      <point x="555" y="710" type="line"/>
      <point x="402" y="710" type="line"/>
      <point x="277" y="432" type="line"/>
      <point x="152" y="710" type="line"/>
      <point x="-1" y="710" type="line"/>
    </contour>
    <contour>
      <point x="105" y="910" type="line"/>
      <point x="105" y="777" type="line"/>
      <point x="233" y="777" type="line"/>
      <point x="233" y="910" type="line"/>
    </contour>
    <contour>
      <point x="321" y="910" type="line"/>
      <point x="321" y="777" type="line"/>
      <point x="449" y="777" type="line"/>
      <point x="449" y="910" type="line"/>
    </contour>
  </outline>
</glyph>
<glyph name="Zacute" format="2">
  <advance width="534"/>
  <unicode hex="0179"/>
  <note>
Zacute
</note>
  <anchor x="274" y="0" name="bottom"/>
  <anchor x="239" y="350" name="center"/>
  <anchor x="263" y="943" name="top"/>
  <outline>
    <contour>
      <point x="487" y="710" type="line"/>
      <point x="42" y="710" type="line"/>
      <point x="42" y="590" type="line"/>
      <point x="321" y="590" type="line"/>
      <point x="321" y="565" type="line"/>
      <point x="42" y="119" type="line"/>
      <point x="42" y="0" type="line"/>
      <point x="497" y="0" type="line"/>
      <point x="497" y="120" type="line"/>
      <point x="208" y="120" type="line"/>
      <point x="208" y="145" type="line"/>
      <point x="487" y="590" type="line"/>
    </contour>
    <contour>
      <point x="378" y="952" type="line"/>
      <point x="110" y="850" type="line"/>
      <point x="138" y="763" type="line"/>
      <point x="416" y="837" type="line"/>
    </contour>
  </outline>
</glyph>
<glyph name="zacute" format="2">
  <advance width="457"/>
  <unicode hex="017A"/>
  <note>
zacute
</note>
  <anchor x="229" y="0" name="bottom"/>
  <anchor x="229" y="250" name="center"/>
  <anchor x="254" y="753" name="top"/>
  <outline>
    <contour>
      <point x="414" y="510" type="line"/>
      <point x="43" y="510" type="line"/>
      <point x="43" y="390" type="line"/>
      <point x="253" y="390" type="line"/>
      <point x="253" y="370" type="line"/>
      <point x="43" y="135" type="line"/>
      <point x="43" y="0" type="line"/>
      <point x="414" y="0" type="line"/>
      <point x="414" y="120" type="line"/>
      <point x="204" y="120" type="line"/>
      <point x="204" y="140" type="line"/>
      <point x="414" y="375" type="line"/>
    </contour>
    <contour>
      <point x="369" y="753" type="line"/>
      <point x="101" y="651" type="line"/>
      <point x="129" y="564" type="line"/>
      <point x="407" y="638" type="line"/>
    </contour>
  </outline>
</glyph>
<glyph name="Zdotaccent" format="2">
  <advance width="534"/>
  <unicode hex="017B"/>
  <note>
Zdotaccent
</note>
  <anchor x="274" y="0" name="bottom"/>
  <anchor x="239" y="350" name="center"/>
  <anchor x="263" y="920" name="top"/>
  <outline>
    <contour>
      <point x="487" y="710" type="line"/>
      <point x="42" y="710" type="line"/>
      <point x="42" y="590" type="line"/>
      <point x="321" y="590" type="line"/>
      <point x="321" y="565" type="line"/>
      <point x="42" y="119" type="line"/>
      <point x="42" y="0" type="line"/>
      <point x="497" y="0" type="line"/>
      <point x="497" y="120" type="line"/>
      <point x="208" y="120" type="line"/>
      <point x="208" y="145" type="line"/>
      <point x="487" y="590" type="line"/>
    </contour>
    <contour>
      <point x="196" y="920" type="line"/>
      <point x="196" y="777" type="line"/>
      <point x="330" y="777" type="line"/>
      <point x="330" y="920" type="line"/>
    </contour>
  </outline>
</glyph>
<glyph name="zdotaccent" format="2">
  <advance width="457"/>
  <unicode hex="017C"/>
  <note>
zdotaccent
</note>
  <anchor x="229" y="0" name="bottom"/>
  <anchor x="229" y="250" name="center"/>
  <anchor x="229" y="730" name="top"/>
  <outline>
    <contour>
      <point x="414" y="510" type="line"/>
      <point x="43" y="510" type="line"/>
      <point x="43" y="390" type="line"/>
      <point x="253" y="390" type="line"/>
      <point x="253" y="370" type="line"/>
      <point x="43" y="135" type="line"/>
      <point x="43" y="0" type="line"/>
      <point x="414" y="0" type="line"/>
      <point x="414" y="120" type="line"/>
      <point x="204" y="120" type="line"/>
      <point x="204" y="140" type="line"/>
      <point x="414" y="375" type="line"/>
    </contour>
    <contour>
      <point x="162" y="730" type="line"/>
      <point x="162" y="587" type="line"/>
      <point x="296" y="587" type="line"/>
      <point x="296" y="730" type="line"/>
    </contour>
  </outline>
</glyph>
<glyph name="Zcaron" format="2">
  <advance width="534"/>
  <unicode hex="017D"/>
  <note>
Zcaron
</note>
  <anchor x="274" y="0" name="bottom"/>
  <anchor x="239" y="350" name="center"/>
  <anchor x="263" y="943" name="top"/>
  <outline>
    <contour>
      <point x="487" y="710" type="line"/>
      <point x="42" y="710" type="line"/>
      <point x="42" y="590" type="line"/>
      <point x="321" y="590" type="line"/>
      <point x="321" y="565" type="line"/>
      <point x="42" y="119" type="line"/>
      <point x="42" y="0" type="line"/>
      <point x="497" y="0" type="line"/>
      <point x="497" y="120" type="line"/>
      <point x="208" y="120" type="line"/>
      <point x="208" y="145" type="line"/>
      <point x="487" y="590" type="line"/>
    </contour>
    <contour>
      <point x="194" y="946" type="line"/>
      <point x="74" y="946" type="line"/>
      <point x="205" y="769" type="line"/>
      <point x="321" y="769" type="line"/>
      <point x="452" y="946" type="line"/>
      <point x="332" y="946" type="line"/>
      <point x="263" y="848" type="line"/>
    </contour>
  </outline>
</glyph>
<glyph name="zcaron" format="2">
  <advance width="457"/>
  <unicode hex="017E"/>
  <note>
zcaron
</note>
  <anchor x="229" y="0" name="bottom"/>
  <anchor x="229" y="250" name="center"/>
  <anchor x="229" y="753" name="top"/>
  <outline>
    <contour>
      <point x="414" y="510" type="line"/>
      <point x="43" y="510" type="line"/>
      <point x="43" y="390" type="line"/>
      <point x="253" y="390" type="line"/>
      <point x="253" y="370" type="line"/>
      <point x="43" y="135" type="line"/>
      <point x="43" y="0" type="line"/>
      <point x="414" y="0" type="line"/>
      <point x="414" y="120" type="line"/>
      <point x="204" y="120" type="line"/>
      <point x="204" y="140" type="line"/>
      <point x="414" y="375" type="line"/>
    </contour>
    <contour>
      <point x="160" y="748" type="line"/>
      <point x="40" y="748" type="line"/>
      <point x="171" y="571" type="line"/>
      <point x="287" y="571" type="line"/>
      <point x="418" y="748" type="line"/>
      <point x="298" y="748" type="line"/>
      <point x="229" y="650" type="line"/>
    </contour>
  </outline>
</glyph>
<glyph name="uni0197" format="2">
  <advance width="309"/>
  <unicode hex="0197"/>
  <note>
uni0197
</note>
  <anchor x="154" y="0" name="bottom"/>
  <anchor x="154" y="353" name="center"/>
  <anchor x="224" y="0" name="ogonek"/>
  <anchor x="154" y="710" name="top"/>
  <outline>
    <contour>
      <point x="224" y="710" type="line"/>
      <point x="86" y="710" type="line"/>
      <point x="86" y="404" type="line"/>
      <point x="16" y="404" type="line"/>
      <point x="16" y="302" type="line"/>
      <point x="86" y="302" type="line"/>
      <point x="86" y="0" type="line"/>
      <point x="224" y="0" type="line"/>
      <point x="224" y="302" type="line"/>
      <point x="292" y="302" type="line"/>
      <point x="292" y="404" type="line"/>
      <point x="224" y="404" type="line"/>
    </contour>
  </outline>
</glyph>
<glyph name="uni019D" format="2">
  <advance width="729"/>
  <unicode hex="019D"/>
  <note>
uni019D
</note>
  <anchor x="364" y="0" name="bottom"/>
  <anchor x="374" y="710" name="top"/>
  <outline>
    <contour>
      <point x="212" y="-27" type="curve" smooth="yes"/>
      <point x="212" y="30" type="line"/>
      <point x="210" y="30" type="line"/>
      <point x="210" y="590" type="line"/>
      <point x="240" y="590" type="line"/>
      <point x="410" y="0" type="line"/>
      <point x="657" y="0" type="line"/>
      <point x="657" y="710" type="line"/>
      <point x="519" y="710" type="line"/>
      <point x="519" y="120" type="line"/>
      <point x="489" y="120" type="line"/>
      <point x="322" y="710" type="line"/>
      <point x="72" y="710" type="line"/>
      <point x="72" y="0" type="line"/>
      <point x="74" y="0" type="line"/>
      <point x="74" y="-21" type="line" smooth="yes"/>
      <point x="74" y="-78"/>
      <point x="49" y="-92"/>
      <point x="-2" y="-92" type="curve"/>
      <point x="-2" y="-212" type="line"/>
      <point x="149" y="-212"/>
      <point x="212" y="-177"/>
    </contour>
  </outline>
</glyph>
<glyph name="uni01CF" format="2">
  <advance width="282"/>
  <unicode hex="01CF"/>
  <note>
uni01CF
</note>
  <anchor x="140" y="0" name="bottom"/>
  <anchor x="140" y="353" name="center"/>
  <anchor x="210" y="0" name="ogonek"/>
  <anchor x="140" y="943" name="top"/>
  <outline>
    <contour>
      <point x="210" y="710" type="line"/>
      <point x="72" y="710" type="line"/>
      <point x="72" y="0" type="line"/>
      <point x="210" y="0" type="line"/>
    </contour>
    <contour>
      <point x="71" y="946" type="line"/>
      <point x="-49" y="946" type="line"/>
      <point x="82" y="769" type="line"/>
      <point x="198" y="769" type="line"/>
      <point x="329" y="946" type="line"/>
      <point x="209" y="946" type="line"/>
      <point x="140" y="848" type="line"/>
    </contour>
  </outline>
</glyph>
<glyph name="uni01D0" format="2">
  <advance width="258"/>
  <unicode hex="01D0"/>
  <note>
uni01D0
</note>
  <anchor x="129" y="0" name="bottom"/>
  <anchor x="196" y="0" name="ogonek"/>
  <anchor x="129" y="753" name="top"/>
  <outline>
    <contour>
      <point x="196" y="510" type="line"/>
      <point x="62" y="510" type="line"/>
      <point x="62" y="0" type="line"/>
      <point x="196" y="0" type="line"/>
    </contour>
    <contour>
      <point x="60" y="748" type="line"/>
      <point x="-60" y="748" type="line"/>
      <point x="71" y="571" type="line"/>
      <point x="187" y="571" type="line"/>
      <point x="318" y="748" type="line"/>
      <point x="198" y="748" type="line"/>
      <point x="129" y="650" type="line"/>
    </contour>
  </outline>
</glyph>
<glyph name="uni01D2" format="2">
  <advance width="536"/>
  <unicode hex="01D2"/>
  <note>
uni01D2
</note>
  <anchor x="266" y="0" name="bottom"/>
  <anchor x="266" y="256" name="center"/>
  <anchor x="353" y="0" name="ogonek"/>
  <anchor x="266" y="753" name="top"/>
  <anchor x="510" y="510" name="topright"/>
  <outline>
    <contour>
      <point x="268" y="526" type="curve" smooth="yes"/>
      <point x="94" y="526"/>
      <point x="38" y="416"/>
      <point x="38" y="256" type="curve" smooth="yes"/>
      <point x="38" y="96"/>
      <point x="94" y="-10"/>
      <point x="268" y="-10" type="curve" smooth="yes"/>
      <point x="442" y="-10"/>
      <point x="498" y="96"/>
      <point x="498" y="256" type="curve" smooth="yes"/>
      <point x="498" y="416"/>
      <point x="442" y="526"/>
    </contour>
    <contour>
      <point x="197" y="748" type="line"/>
      <point x="77" y="748" type="line"/>
      <point x="208" y="571" type="line"/>
      <point x="324" y="571" type="line"/>
      <point x="455" y="748" type="line"/>
      <point x="335" y="748" type="line"/>
      <point x="266" y="650" type="line"/>
    </contour>
    <contour>
      <point x="174" y="256" type="curve" smooth="yes"/>
      <point x="174" y="359"/>
      <point x="194" y="412"/>
      <point x="268" y="412" type="curve" smooth="yes"/>
      <point x="342" y="412"/>
      <point x="362" y="359"/>
      <point x="362" y="256" type="curve" smooth="yes"/>
      <point x="362" y="153"/>
      <point x="342" y="104"/>
      <point x="268" y="104" type="curve" smooth="yes"/>
      <point x="194" y="104"/>
      <point x="174" y="153"/>
    </contour>
  </outline>
</glyph>
<glyph name="uni01D3" format="2">
  <advance width="654"/>
  <unicode hex="01D3"/>
  <note>
uni01D3
</note>
  <anchor x="326" y="0" name="bottom"/>
  <anchor x="419" y="0" name="ogonek"/>
  <anchor x="326" y="943" name="top"/>
  <anchor x="626" y="710" name="topright"/>
  <outline>
    <contour>
      <point x="206" y="225" type="curve" smooth="yes"/>
      <point x="206" y="710" type="line"/>
      <point x="68" y="710" type="line"/>
      <point x="68" y="228" type="line" smooth="yes"/>
      <point x="68" y="58"/>
      <point x="157" y="-14"/>
      <point x="327" y="-14" type="curve" smooth="yes"/>
      <point x="497" y="-14"/>
      <point x="586" y="58"/>
      <point x="586" y="228" type="curve" smooth="yes"/>
      <point x="586" y="710" type="line"/>
      <point x="448" y="710" type="line"/>
      <point x="448" y="225" type="line" smooth="yes"/>
      <point x="448" y="145"/>
      <point x="408" y="106"/>
      <point x="327" y="106" type="curve" smooth="yes"/>
      <point x="246" y="106"/>
      <point x="206" y="144"/>
    </contour>
    <contour>
      <point x="257" y="946" type="line"/>
      <point x="137" y="946" type="line"/>
      <point x="268" y="769" type="line"/>
      <point x="384" y="769" type="line"/>
      <point x="515" y="946" type="line"/>
      <point x="395" y="946" type="line"/>
      <point x="326" y="848" type="line"/>
    </contour>
  </outline>
</glyph>
<glyph name="uni01D4" format="2">
  <advance width="553"/>
  <unicode hex="01D4"/>
  <note>
uni01D4
</note>
  <anchor x="277" y="0" name="bottom"/>
  <anchor x="470" y="0" name="ogonek"/>
  <anchor x="277" y="753" name="top"/>
  <anchor x="531" y="510" name="topright"/>
  <outline>
    <contour>
      <point x="491" y="0" type="line"/>
      <point x="491" y="510" type="line"/>
      <point x="357" y="510" type="line"/>
      <point x="357" y="128" type="line"/>
      <point x="357" y="128"/>
      <point x="311" y="106"/>
      <point x="261" y="106" type="curve" smooth="yes"/>
      <point x="195" y="106"/>
      <point x="191" y="145"/>
      <point x="191" y="234" type="curve" smooth="yes"/>
      <point x="191" y="510" type="line"/>
      <point x="57" y="510" type="line"/>
      <point x="57" y="236" type="line" smooth="yes"/>
      <point x="57" y="67"/>
      <point x="87" y="-14"/>
      <point x="233" y="-14" type="curve" smooth="yes"/>
      <point x="286" y="-14"/>
      <point x="358" y="30"/>
      <point x="358" y="30" type="curve"/>
      <point x="358" y="0" type="line"/>
    </contour>
    <contour>
      <point x="208" y="748" type="line"/>
      <point x="88" y="748" type="line"/>
      <point x="219" y="571" type="line"/>
      <point x="335" y="571" type="line"/>
      <point x="466" y="748" type="line"/>
      <point x="346" y="748" type="line"/>
      <point x="277" y="650" type="line"/>
    </contour>
  </outline>
</glyph>
<glyph name="Gcaron" format="2">
  <advance width="619"/>
  <unicode hex="01E6"/>
  <note>
Gcaron
</note>
  <anchor x="348" y="0" name="bottom"/>
  <anchor x="348" y="943" name="top"/>
  <outline>
    <contour>
      <point x="564" y="364" type="line"/>
      <point x="359" y="364" type="line"/>
      <point x="359" y="244" type="line"/>
      <point x="428" y="244" type="line"/>
      <point x="428" y="110" type="line"/>
      <point x="428" y="110"/>
      <point x="383" y="104"/>
      <point x="343" y="104" type="curve" smooth="yes"/>
      <point x="218" y="104"/>
      <point x="189" y="158"/>
      <point x="189" y="346" type="curve" smooth="yes"/>
      <point x="189" y="566"/>
      <point x="216" y="604"/>
      <point x="347" y="604" type="curve" smooth="yes"/>
      <point x="425" y="604"/>
      <point x="555" y="591"/>
      <point x="555" y="591" type="curve"/>
      <point x="559" y="698" type="line"/>
      <point x="559" y="698"/>
      <point x="424" y="726"/>
      <point x="321" y="726" type="curve" smooth="yes"/>
      <point x="118" y="726"/>
      <point x="47" y="620"/>
      <point x="47" y="346" type="curve" smooth="yes"/>
      <point x="47" y="108"/>
      <point x="107" y="-14"/>
      <point x="329" y="-14" type="curve" smooth="yes"/>
      <point x="421" y="-14"/>
      <point x="564" y="9"/>
      <point x="564" y="9" type="curve"/>
    </contour>
    <contour>
      <point x="279" y="946" type="line"/>
      <point x="159" y="946" type="line"/>
      <point x="290" y="769" type="line"/>
      <point x="406" y="769" type="line"/>
      <point x="537" y="946" type="line"/>
      <point x="417" y="946" type="line"/>
      <point x="348" y="848" type="line"/>
    </contour>
  </outline>
</glyph>
<glyph name="uni01E8" format="2">
  <advance width="590"/>
  <unicode hex="01E8"/>
  <note>
uni01E8
</note>
  <anchor x="304" y="0" name="bottom"/>
  <anchor x="300" y="943" name="top"/>
  <outline>
    <contour>
      <point x="210" y="277" type="line"/>
      <point x="292" y="287" type="line"/>
      <point x="420" y="0" type="line"/>
      <point x="575" y="0" type="line"/>
      <point x="413" y="355" type="line"/>
      <point x="571" y="710" type="line"/>
      <point x="419" y="710" type="line"/>
      <point x="292" y="407" type="line"/>
      <point x="210" y="397" type="line"/>
      <point x="210" y="710" type="line"/>
      <point x="72" y="710" type="line"/>
      <point x="72" y="0" type="line"/>
      <point x="210" y="0" type="line"/>
    </contour>
    <contour>
      <point x="231" y="946" type="line"/>
      <point x="111" y="946" type="line"/>
      <point x="242" y="769" type="line"/>
      <point x="358" y="769" type="line"/>
      <point x="489" y="946" type="line"/>
      <point x="369" y="946" type="line"/>
      <point x="300" y="848" type="line"/>
    </contour>
  </outline>
</glyph>
<glyph name="uni01E9" format="2">
  <advance width="512"/>
  <unicode hex="01E9"/>
  <note>
uni01E9
</note>
  <anchor x="275" y="0" name="bottom"/>
  <anchor x="128" y="963" name="top"/>
  <outline>
    <contour>
      <point x="62" y="730" type="line"/>
      <point x="62" y="0" type="line"/>
      <point x="196" y="0" type="line"/>
      <point x="196" y="213" type="line"/>
      <point x="251" y="222" type="line"/>
      <point x="352" y="0" type="line"/>
      <point x="503" y="0" type="line"/>
      <point x="366" y="290" type="line"/>
      <point x="496" y="510" type="line"/>
      <point x="346" y="510" type="line"/>
      <point x="247" y="338" type="line"/>
      <point x="196" y="329" type="line"/>
      <point x="196" y="730" type="line"/>
    </contour>
    <contour>
      <point x="59" y="966" type="line"/>
      <point x="-61" y="966" type="line"/>
      <point x="70" y="789" type="line"/>
      <point x="186" y="789" type="line"/>
      <point x="317" y="966" type="line"/>
      <point x="197" y="966" type="line"/>
      <point x="128" y="868" type="line"/>
    </contour>
  </outline>
</glyph>
<glyph name="uni01EA" format="2">
  <advance width="664"/>
  <unicode hex="01EA"/>
  <note>
uni01EA
</note>
  <anchor x="336" y="0" name="bottom"/>
  <anchor x="336" y="350" name="center"/>
  <anchor x="425" y="0" name="ogonek"/>
  <anchor x="336" y="710" name="top"/>
  <anchor x="646" y="710" name="topright"/>
  <outline>
    <contour>
      <point x="332" y="106" type="curve" smooth="yes"/>
      <point x="220" y="106"/>
      <point x="188" y="177"/>
      <point x="188" y="356" type="curve" smooth="yes"/>
      <point x="188" y="537"/>
      <point x="220" y="616"/>
      <point x="332" y="616" type="curve" smooth="yes"/>
      <point x="444" y="616"/>
      <point x="476" y="537"/>
      <point x="476" y="356" type="curve" smooth="yes"/>
      <point x="476" y="177"/>
      <point x="444" y="106"/>
    </contour>
    <contour>
      <point x="46" y="356" type="curve" smooth="yes"/>
      <point x="46" y="117"/>
      <point x="111" y="-2"/>
      <point x="300" y="-13" type="curve"/>
      <point x="277" y="-40"/>
      <point x="243" y="-83"/>
      <point x="243" y="-120" type="curve" smooth="yes"/>
      <point x="243" y="-180"/>
      <point x="290" y="-216"/>
      <point x="352" y="-216" type="curve" smooth="yes"/>
      <point x="395" y="-216"/>
      <point x="454" y="-205"/>
      <point x="454" y="-205" type="curve"/>
      <point x="442" y="-110" type="line"/>
      <point x="442" y="-110"/>
      <point x="407" y="-114"/>
      <point x="400" y="-114" type="curve" smooth="yes"/>
      <point x="382" y="-114"/>
      <point x="368" y="-103"/>
      <point x="368" y="-86" type="curve" smooth="yes"/>
      <point x="368" y="-65"/>
      <point x="405" y="-22"/>
      <point x="420" y="-6" type="curve"/>
      <point x="566" y="25"/>
      <point x="618" y="142"/>
      <point x="618" y="356" type="curve" smooth="yes"/>
      <point x="618" y="610"/>
      <point x="546" y="726"/>
      <point x="332" y="726" type="curve" smooth="yes"/>
      <point x="118" y="726"/>
      <point x="46" y="610"/>
    </contour>
  </outline>
</glyph>
<glyph name="uni01EB" format="2">
  <advance width="536"/>
  <unicode hex="01EB"/>
  <note>
uni01EB
</note>
  <anchor x="266" y="0" name="bottom"/>
  <anchor x="266" y="256" name="center"/>
  <anchor x="353" y="0" name="ogonek"/>
  <anchor x="266" y="510" name="top"/>
  <anchor x="510" y="510" name="topright"/>
  <outline>
    <contour>
      <point x="268" y="526" type="curve" smooth="yes"/>
      <point x="94" y="526"/>
      <point x="38" y="416"/>
      <point x="38" y="256" type="curve" smooth="yes"/>
      <point x="38" y="107"/>
      <point x="86" y="5"/>
      <point x="233" y="-8" type="curve"/>
      <point x="209" y="-34"/>
      <point x="171" y="-81"/>
      <point x="171" y="-120" type="curve" smooth="yes"/>
      <point x="171" y="-180"/>
      <point x="218" y="-216"/>
      <point x="280" y="-216" type="curve" smooth="yes"/>
      <point x="323" y="-216"/>
      <point x="382" y="-205"/>
      <point x="382" y="-205" type="curve"/>
      <point x="370" y="-110" type="line"/>
      <point x="370" y="-110"/>
      <point x="335" y="-114"/>
      <point x="328" y="-114" type="curve" smooth="yes"/>
      <point x="310" y="-114"/>
      <point x="296" y="-103"/>
      <point x="296" y="-86" type="curve" smooth="yes"/>
      <point x="296" y="-60"/>
      <point x="353" y="0"/>
      <point x="353" y="0" type="curve"/>
      <point x="351" y="0" type="line"/>
      <point x="460" y="30"/>
      <point x="498" y="125"/>
      <point x="498" y="256" type="curve" smooth="yes"/>
      <point x="498" y="416"/>
      <point x="442" y="526"/>
    </contour>
    <contour>
      <point x="174" y="256" type="curve" smooth="yes"/>
      <point x="174" y="359"/>
      <point x="194" y="412"/>
      <point x="268" y="412" type="curve" smooth="yes"/>
      <point x="342" y="412"/>
      <point x="362" y="359"/>
      <point x="362" y="256" type="curve" smooth="yes"/>
      <point x="362" y="153"/>
      <point x="342" y="104"/>
      <point x="268" y="104" type="curve" smooth="yes"/>
      <point x="194" y="104"/>
      <point x="174" y="153"/>
    </contour>
  </outline>
</glyph>
<glyph name="uni01F8" format="2">
  <advance width="729"/>
  <unicode hex="01F8"/>
  <note>
uni01F8
</note>
  <anchor x="364" y="0" name="bottom"/>
  <anchor x="374" y="943" name="top"/>
  <outline>
    <contour>
      <point x="322" y="710" type="line"/>
      <point x="72" y="710" type="line"/>
      <point x="72" y="0" type="line"/>
      <point x="210" y="0" type="line"/>
      <point x="210" y="590" type="line"/>
      <point x="240" y="590" type="line"/>
      <point x="410" y="0" type="line"/>
      <point x="657" y="0" type="line"/>
      <point x="657" y="710" type="line"/>
      <point x="519" y="710" type="line"/>
      <point x="519" y="120" type="line"/>
      <point x="489" y="120" type="line"/>
    </contour>
    <contour>
      <point x="259" y="952" type="line"/>
      <point x="221" y="837" type="line"/>
      <point x="499" y="763" type="line"/>
      <point x="527" y="850" type="line"/>
    </contour>
  </outline>
</glyph>
<glyph name="AEacute" format="2">
  <advance width="857"/>
  <unicode hex="01FC"/>
  <note>
AEacute
</note>
  <anchor x="534" y="0" name="bottom"/>
  <anchor x="534" y="933" name="top"/>
  <outline>
    <contour>
      <point x="315" y="580" type="line"/>
      <point x="375" y="580" type="line"/>
      <point x="375" y="268" type="line"/>
      <point x="217" y="268" type="line"/>
    </contour>
    <contour>
      <point x="220" y="700" type="line"/>
      <point x="-7" y="0" type="line"/>
      <point x="133" y="0" type="line"/>
      <point x="179" y="148" type="line"/>
      <point x="375" y="148" type="line"/>
      <point x="375" y="0" type="line"/>
      <point x="815" y="0" type="line"/>
      <point x="815" y="120" type="line"/>
      <point x="513" y="120" type="line"/>
      <point x="513" y="293" type="line"/>
      <point x="755" y="293" type="line"/>
      <point x="755" y="411" type="line"/>
      <point x="513" y="411" type="line"/>
      <point x="513" y="580" type="line"/>
      <point x="815" y="580" type="line"/>
      <point x="815" y="700" type="line"/>
    </contour>
    <contour>
      <point x="649" y="942" type="line"/>
      <point x="381" y="840" type="line"/>
      <point x="409" y="753" type="line"/>
      <point x="687" y="827" type="line"/>
    </contour>
  </outline>
</glyph>
<glyph name="uni021A" format="2">
  <advance width="546"/>
  <unicode hex="021A"/>
  <note>
uni021A
</note>
  <anchor x="232" y="-265" name="bottom"/>
  <anchor x="272" y="330" name="center"/>
  <anchor x="272" y="710" name="top"/>
  <outline>
    <contour>
      <point x="532" y="710" type="line"/>
      <point x="14" y="710" type="line"/>
      <point x="14" y="588" type="line"/>
      <point x="204" y="588" type="line"/>
      <point x="204" y="0" type="line"/>
      <point x="342" y="0" type="line"/>
      <point x="342" y="588" type="line"/>
      <point x="532" y="588" type="line"/>
    </contour>
    <contour>
      <point x="252" y="-69" type="line"/>
      <point x="161" y="-239" type="line"/>
      <point x="234" y="-282" type="line"/>
      <point x="343" y="-125" type="line"/>
    </contour>
  </outline>
</glyph>
<glyph name="uni021B" format="2">
  <advance width="376"/>
  <unicode hex="021B"/>
  <note>
uni021B
</note>
  <anchor x="197" y="-265" name="bottom"/>
  <anchor x="154" y="257" name="center"/>
  <anchor x="154" y="653" name="top"/>
  <anchor x="244" y="730" name="topright"/>
  <outline>
    <contour>
      <point x="220" y="179" type="curve" smooth="yes"/>
      <point x="220" y="396" type="line"/>
      <point x="343" y="396" type="line"/>
      <point x="343" y="510" type="line"/>
      <point x="220" y="510" type="line"/>
      <point x="220" y="653" type="line"/>
      <point x="86" y="653" type="line"/>
      <point x="86" y="510" type="line"/>
      <point x="27" y="510" type="line"/>
      <point x="27" y="396" type="line"/>
      <point x="86" y="396" type="line"/>
      <point x="86" y="176" type="line" smooth="yes"/>
      <point x="86" y="32"/>
      <point x="121" y="-14"/>
      <point x="242" y="-14" type="curve" smooth="yes"/>
      <point x="277" y="-14"/>
      <point x="349" y="1"/>
      <point x="349" y="1" type="curve"/>
      <point x="343" y="108" type="line"/>
      <point x="343" y="108"/>
      <point x="290" y="106"/>
      <point x="262" y="106" type="curve" smooth="yes"/>
      <point x="220" y="106"/>
      <point x="220" y="129"/>
    </contour>
    <contour>
      <point x="217" y="-69" type="line"/>
      <point x="126" y="-239" type="line"/>
      <point x="199" y="-282" type="line"/>
      <point x="308" y="-125" type="line"/>
    </contour>
  </outline>
</glyph>
<glyph name="uni021F" format="2">
  <advance width="553"/>
  <unicode hex="021F"/>
  <note>
uni021F
</note>
  <anchor x="276" y="0" name="bottom"/>
  <anchor x="204" y="633" name="center"/>
  <anchor x="130" y="963" name="top"/>
  <outline>
    <contour>
      <point x="62" y="730" type="line"/>
      <point x="62" y="0" type="line"/>
      <point x="196" y="0" type="line"/>
      <point x="196" y="390" type="line"/>
      <point x="196" y="390"/>
      <point x="243" y="406"/>
      <point x="287" y="406" type="curve" smooth="yes"/>
      <point x="352" y="406"/>
      <point x="362" y="357"/>
      <point x="362" y="282" type="curve" smooth="yes"/>
      <point x="362" y="0" type="line"/>
      <point x="496" y="0" type="line"/>
      <point x="496" y="285" type="line" smooth="yes"/>
      <point x="496" y="438"/>
      <point x="460" y="526"/>
      <point x="320" y="526" type="curve" smooth="yes"/>
      <point x="265" y="526"/>
      <point x="196" y="490"/>
      <point x="196" y="490" type="curve"/>
      <point x="196" y="730" type="line"/>
    </contour>
    <contour>
      <point x="61" y="966" type="line"/>
      <point x="-59" y="966" type="line"/>
      <point x="72" y="789" type="line"/>
      <point x="188" y="789" type="line"/>
      <point x="319" y="966" type="line"/>
      <point x="199" y="966" type="line"/>
      <point x="130" y="868" type="line"/>
    </contour>
  </outline>
</glyph>
<glyph name="uni0232" format="2">
  <advance width="556"/>
  <unicode hex="0232"/>
  <note>
uni0232
</note>
  <anchor x="277" y="0" name="bottom"/>
  <anchor x="277" y="887" name="top"/>
  <outline>
    <contour>
      <point x="209" y="298" type="line"/>
      <point x="209" y="0" type="line"/>
      <point x="347" y="0" type="line"/>
      <point x="347" y="298" type="line"/>
      <point x="555" y="710" type="line"/>
      <point x="402" y="710" type="line"/>
      <point x="277" y="432" type="line"/>
      <point x="152" y="710" type="line"/>
      <point x="-1" y="710" type="line"/>
    </contour>
    <contour>
      <point x="133" y="887" type="line"/>
      <point x="133" y="787" type="line"/>
      <point x="420" y="787" type="line"/>
      <point x="420" y="887" type="line"/>
    </contour>
  </outline>
</glyph>
<glyph name="uni0233" format="2">
  <advance width="505"/>
  <unicode hex="0233"/>
  <note>
uni0233
</note>
  <anchor x="254" y="0" name="bottom"/>
  <anchor x="254" y="687" name="top"/>
  <outline>
    <contour>
      <point x="240" y="114" type="line"/>
      <point x="151" y="510" type="line"/>
      <point x="19" y="510" type="line"/>
      <point x="140" y="0" type="line"/>
      <point x="236" y="0" type="line"/>
      <point x="177" y="-230" type="line"/>
      <point x="308" y="-230" type="line"/>
      <point x="488" y="510" type="line"/>
      <point x="356" y="510" type="line"/>
      <point x="265" y="114" type="line"/>
    </contour>
    <contour>
      <point x="110" y="687" type="line"/>
      <point x="110" y="587" type="line"/>
      <point x="397" y="587" type="line"/>
      <point x="397" y="687" type="line"/>
    </contour>
  </outline>
</glyph>
<glyph name="uni0244" format="2">
  <advance width="694"/>
  <unicode hex="0244"/>
  <note>
uni0244
</note>
  <anchor x="345" y="0" name="bottom"/>
  <anchor x="438" y="0" name="ogonek"/>
  <anchor x="345" y="710" name="top"/>
  <anchor x="645" y="710" name="topright"/>
  <outline>
    <contour>
      <point x="225" y="225" type="curve" smooth="yes"/>
      <point x="225" y="352" type="line"/>
      <point x="467" y="352" type="line"/>
      <point x="467" y="225" type="line" smooth="yes"/>
      <point x="467" y="145"/>
      <point x="427" y="106"/>
      <point x="346" y="106" type="curve" smooth="yes"/>
      <point x="265" y="106"/>
      <point x="225" y="144"/>
    </contour>
    <contour>
      <point x="20" y="462" type="line"/>
      <point x="20" y="352" type="line"/>
      <point x="87" y="352" type="line"/>
      <point x="87" y="228" type="line" smooth="yes"/>
      <point x="87" y="58"/>
      <point x="176" y="-14"/>
      <point x="346" y="-14" type="curve" smooth="yes"/>
      <point x="516" y="-14"/>
      <point x="605" y="58"/>
      <point x="605" y="228" type="curve" smooth="yes"/>
      <point x="605" y="352" type="line"/>
      <point x="677" y="352" type="line"/>
      <point x="677" y="462" type="line"/>
      <point x="605" y="462" type="line"/>
      <point x="605" y="710" type="line"/>
      <point x="467" y="710" type="line"/>
      <point x="467" y="462" type="line"/>
      <point x="225" y="462" type="line"/>
      <point x="225" y="710" type="line"/>
      <point x="87" y="710" type="line"/>
      <point x="87" y="462" type="line"/>
    </contour>
  </outline>
</glyph>
<glyph name="uni0259" format="2">
  <advance width="515"/>
  <unicode hex="0259"/>
  <note>
uni0259
</note>
  <anchor x="243" y="0" name="bottom"/>
  <anchor x="124" y="510" name="ogonek"/>
  <anchor x="258" y="510" name="top"/>
  <outline>
    <contour>
      <point x="55" y="407" type="line"/>
      <point x="230" y="406" type="line" smooth="yes"/>
      <point x="332" y="406"/>
      <point x="340" y="381"/>
      <point x="341" y="301" type="curve"/>
      <point x="47" y="301" type="line"/>
      <point x="37" y="208" type="line"/>
      <point x="37" y="59"/>
      <point x="110" y="-16"/>
      <point x="250" y="-16" type="curve" smooth="yes"/>
      <point x="403" y="-16"/>
      <point x="476" y="71"/>
      <point x="476" y="254" type="curve" smooth="yes"/>
      <point x="476" y="447"/>
      <point x="412" y="524"/>
      <point x="261" y="524" type="curve" smooth="yes"/>
      <point x="168" y="524"/>
      <point x="53" y="506"/>
      <point x="53" y="506" type="curve"/>
    </contour>
    <contour>
      <point x="169" y="199" type="curve"/>
      <point x="342" y="199" type="line"/>
      <point x="341" y="125"/>
      <point x="319" y="94"/>
      <point x="255" y="94" type="curve" smooth="yes"/>
      <point x="192" y="94"/>
      <point x="169" y="120"/>
    </contour>
  </outline>
</glyph>
<glyph name="uni0268" format="2">
  <advance width="361"/>
  <unicode hex="0268"/>
  <note>
uni0268
</note>
  <anchor x="180" y="0" name="bottom"/>
  <anchor x="247" y="0" name="ogonek"/>
  <anchor x="180" y="700" name="top"/>
  <outline>
    <contour>
      <point x="247" y="510" type="line"/>
      <point x="113" y="510" type="line"/>
      <point x="113" y="326" type="line"/>
      <point x="24" y="326" type="line"/>
      <point x="24" y="212" type="line"/>
      <point x="113" y="212" type="line"/>
      <point x="113" y="0" type="line"/>
      <point x="247" y="0" type="line"/>
      <point x="247" y="212" type="line"/>
      <point x="337" y="212" type="line"/>
      <point x="337" y="326" type="line"/>
      <point x="247" y="326" type="line"/>
    </contour>
    <contour>
      <point x="113" y="700" type="line"/>
      <point x="113" y="564" type="line"/>
      <point x="247" y="564" type="line"/>
      <point x="247" y="700" type="line"/>
    </contour>
  </outline>
</glyph>
<glyph name="uni0289" format="2">
  <advance width="592"/>
  <unicode hex="0289"/>
  <note>
uni0289
</note>
  <anchor x="295" y="0" name="bottom"/>
  <anchor x="488" y="0" name="ogonek"/>
  <anchor x="295" y="510" name="top"/>
  <anchor x="549" y="510" name="topright"/>
  <outline>
    <contour>
      <point x="75" y="353" type="line"/>
      <point x="20" y="353" type="line"/>
      <point x="20" y="243" type="line"/>
      <point x="75" y="243" type="line"/>
      <point x="75" y="236" type="line" smooth="yes"/>
      <point x="75" y="67"/>
      <point x="105" y="-14"/>
      <point x="251" y="-14" type="curve" smooth="yes"/>
      <point x="304" y="-14"/>
      <point x="376" y="30"/>
      <point x="376" y="30" type="curve"/>
      <point x="376" y="0" type="line"/>
      <point x="509" y="0" type="line"/>
      <point x="509" y="243" type="line"/>
      <point x="564" y="243" type="line"/>
      <point x="564" y="353" type="line"/>
      <point x="509" y="353" type="line"/>
      <point x="509" y="510" type="line"/>
      <point x="375" y="510" type="line"/>
      <point x="375" y="353" type="line"/>
      <point x="209" y="353" type="line"/>
      <point x="209" y="510" type="line"/>
      <point x="75" y="510" type="line"/>
    </contour>
    <contour>
      <point x="209" y="234" type="curve" smooth="yes"/>
      <point x="209" y="243" type="line"/>
      <point x="375" y="243" type="line"/>
      <point x="375" y="128" type="line"/>
      <point x="375" y="128"/>
      <point x="329" y="106"/>
      <point x="279" y="106" type="curve" smooth="yes"/>
      <point x="213" y="106"/>
      <point x="209" y="145"/>
    </contour>
  </outline>
</glyph>
<glyph name="circumflex" format="2">
  <advance width="478"/>
  <unicode hex="02C6"/>
  <note>
circumflex
</note>
  <outline>
    <contour>
      <point x="170" y="569" type="line"/>
      <point x="239" y="667" type="line"/>
      <point x="308" y="569" type="line"/>
      <point x="428" y="569" type="line"/>
      <point x="297" y="746" type="line"/>
      <point x="181" y="746" type="line"/>
      <point x="50" y="569" type="line"/>
    </contour>
  </outline>
</glyph>
<glyph name="caron" format="2">
  <advance width="478"/>
  <unicode hex="02C7"/>
  <note>
caron
</note>
  <outline>
    <contour>
      <point x="308" y="748" type="line"/>
      <point x="239" y="650" type="line"/>
      <point x="170" y="748" type="line"/>
      <point x="50" y="748" type="line"/>
      <point x="181" y="571" type="line"/>
      <point x="297" y="571" type="line"/>
      <point x="428" y="748" type="line"/>
    </contour>
  </outline>
</glyph>
<glyph name="breve" format="2">
  <advance width="438"/>
  <unicode hex="02D8"/>
  <note>
breve
</note>
  <outline>
    <contour>
      <point x="150" y="730" type="curve"/>
      <point x="50" y="730" type="line"/>
      <point x="53" y="640"/>
      <point x="103" y="564"/>
      <point x="219" y="564" type="curve" smooth="yes"/>
      <point x="335" y="564"/>
      <point x="385" y="640"/>
      <point x="388" y="730" type="curve"/>
      <point x="288" y="730" type="line"/>
      <point x="286" y="681"/>
      <point x="264" y="654"/>
      <point x="219" y="654" type="curve" smooth="yes"/>
      <point x="174" y="654"/>
      <point x="152" y="681"/>
    </contour>
  </outline>
</glyph>
<glyph name="dotaccent" format="2">
  <advance width="234"/>
  <unicode hex="02D9"/>
  <note>
dotaccent
</note>
  <outline>
    <contour>
      <point x="184" y="730" type="line"/>
      <point x="50" y="730" type="line"/>
      <point x="50" y="587" type="line"/>
      <point x="184" y="587" type="line"/>
    </contour>
  </outline>
</glyph>
